<?xml version="1.0" encoding="utf-8"?>
<!-- Generator: Adobe Illustrator 15.0.2, SVG Export Plug-In . SVG Version: 6.00 Build 0)  -->
<!DOCTYPE svg PUBLIC "-//W3C//DTD SVG 1.1//EN" "http://www.w3.org/Graphics/SVG/1.1/DTD/svg11.dtd">
<svg version="1.1" id="Layer_1" xmlns="http://www.w3.org/2000/svg" xmlns:xlink="http://www.w3.org/1999/xlink" x="0px" y="0px"
	 width="694.804px" height="253.807px" viewBox="0 0 694.804 253.807" enable-background="new 0 0 694.804 253.807"
	 xml:space="preserve">
<g id="Layer_1_1_">
	<g>
		<g>

				<line fill="none" stroke="#FCFAFA" stroke-width="2" stroke-miterlimit="10" x1="126.174" y1="54.669" x2="126.174" y2="252.139"/>
			<path fill="none" stroke="#FCFAFA" stroke-width="2" stroke-linejoin="round" stroke-miterlimit="10" d="M126.297,97.423
				c-9.03-0.031-23.702-1.947-26-12.288c9.431,1.7,21.879,1.312,25.38,12.288"/>
			<path fill="none" stroke="#FCFAFA" stroke-width="2" stroke-linecap="round" stroke-linejoin="round" stroke-miterlimit="10" d="
				M126.297,102.229c8.95-7.179,16.741-3.356,26.667-0.616c-3.113,0.434-7.854,4.487-12.117,5.183
				c-5.95,0.969-9.69-0.798-13.917-3.912"/>
			<path fill="none" stroke="#FCFAFA" stroke-width="2" stroke-miterlimit="10" d="M125.631,53.757
				c-2.584,3.278-13.963,9.219-16.699,3.365c-4.52-9.669,12.519-5.07,15.365-3.365"/>
			<path fill="none" stroke="#FCFAFA" stroke-width="2" stroke-miterlimit="10" d="M125.93,53.56
				c-0.521-4.143,3.237-16.415,9.326-14.256c10.06,3.569-5.178,12.475-8.39,13.306"/>
			<path fill="none" stroke="#FCFAFA" stroke-width="2" stroke-miterlimit="10" d="M126.748,54.669
				c-3.992-1.221-13.652-9.674-9.188-14.345c7.374-7.717,9.262,9.831,8.704,13.102"/>
			<path fill="none" stroke="#FCFAFA" stroke-width="2" stroke-miterlimit="10" d="M126.502,53.56
				c3.765,1.807,12.049,11.608,6.938,15.56c-8.446,6.525-7.686-11.105-6.646-14.258"/>
			<path fill="none" stroke="#FCFAFA" stroke-width="2" stroke-miterlimit="10" d="M126.886,52.912
				c3.816-1.694,16.65-1.641,16.341,4.812c-0.513,10.662-13.438-1.354-15.161-4.189"/>
			<path fill="none" stroke="#FCFAFA" stroke-width="2" stroke-miterlimit="10" d="M125.19,54.743
				c1.292,3.971-0.082,16.73-6.469,15.76c-10.552-1.606,2.73-13.228,5.729-14.649"/>
		</g>
		<g>

				<line fill="none" stroke="#FCFAFA" stroke-width="2" stroke-miterlimit="10" x1="199.612" y1="168.341" x2="199.612" y2="252.807"/>
			<path fill="none" stroke="#FCFAFA" stroke-width="2" stroke-linejoin="round" stroke-miterlimit="10" d="M199.561,167.062
				c-4.357-6.78,2.049-17.66,3.665-24.565c0.439,3.927-0.307,8.633-0.665,12.565c-0.339,3.724,0.391,9.138-2,12"/>
			<path fill="none" stroke="#FCFAFA" stroke-width="2" stroke-linecap="round" stroke-linejoin="round" stroke-miterlimit="10" d="
				M199.602,168.578c-8.015-0.863-12.464-12.679-16.827-18.271c3.334,2.122,6.529,5.656,9.366,8.404
				c2.687,2.6,7.359,5.43,8.089,9.088"/>
			<path fill="none" stroke="#FCFAFA" stroke-width="2" stroke-linejoin="round" stroke-miterlimit="10" d="M198.988,168.896
				c-5.897,5.495-17.742,1.128-24.826,0.769c3.786-1.132,8.55-1.235,12.483-1.582c3.725-0.331,8.922-2.013,12.166-0.17"/>
			<path fill="none" stroke="#FCFAFA" stroke-width="2" stroke-linejoin="round" stroke-miterlimit="10" d="M200.714,169.214
				c-0.937,8.007-12.791,12.348-18.423,16.659c2.152-3.313,5.716-6.478,8.489-9.288c2.624-2.664,5.497-7.311,9.161-8.007"/>
			<path fill="none" stroke="#FCFAFA" stroke-width="2" stroke-linejoin="round" stroke-miterlimit="10" d="M201.59,167.062
				c5.293,6.08,0.528,17.771-0.071,24.838c-1.003-3.82-0.945-8.586-1.159-12.528c-0.206-3.734-1.709-8.985,0.24-12.165"/>
			<path fill="none" stroke="#FCFAFA" stroke-width="2" stroke-linejoin="round" stroke-miterlimit="10" d="M201.272,167.062
				c8.06,0.159,13.524,11.539,18.36,16.729c-3.506-1.822-6.999-5.064-10.064-7.553c-2.905-2.354-7.807-4.767-8.854-8.347"/>
			<path fill="none" stroke="#FCFAFA" stroke-width="2" stroke-linejoin="round" stroke-miterlimit="10" d="M200.714,166.592
				c3.99-7.005,16.599-6.37,23.468-8.14c-3.276,2.208-7.793,3.729-11.442,5.233c-3.457,1.427-7.917,4.581-11.562,3.792"/>
			<path fill="none" stroke="#FCFAFA" stroke-width="2" stroke-linecap="round" stroke-linejoin="round" stroke-miterlimit="10" d="
				M199.612,231.865c-2.265-9.788-11.53-16.329-17.141-24.29c-5.373-7.621-7.155-16.38-8.561-25.307
				c-0.188-1.183-0.29-3.189-0.922-4.052c-1.631,8.561,0.276,17.26,1.745,25.58c1.723,9.765,7.323,21.514,15.589,27.606
				c2.105,1.553,6.366,4.58,9.086,3.515"/>
			<path fill="none" stroke="#FCFAFA" stroke-width="2" stroke-linecap="round" stroke-linejoin="round" stroke-miterlimit="10" d="
				M200.229,238.198c2.857-3.114,3.591-9.021,4.016-13.129c0.69-6.683,1.977-12.179,4.647-18.303
				c2.429-5.565,5.587-13.234,9.729-17.53c-2.243,4.159-2.204,9.781-2.603,14.475c-0.519,6.102-0.181,12.157-1.244,18.236
				c-0.78,4.453-2.244,11.646-5.457,14.951c-2.337,2.404-5.979,2.3-9.089,2.3"/>
		</g>
		<g>

				<line fill="none" stroke="#FCFAFA" stroke-width="2" stroke-linejoin="round" stroke-miterlimit="10" x1="678.875" y1="109.765" x2="678.875" y2="252.807"/>
			<path fill="none" stroke="#FCFAFA" stroke-width="2" stroke-linecap="round" stroke-linejoin="round" stroke-miterlimit="10" d="
				M663.179,109.228c2.842-2.624,8.945-1.27,12.25-0.405c4.328,1.131,8.967,1.769,13.621,2.037c1.758,0.103,3.139,0.323,4.754-0.257
				"/>
			<path fill="none" stroke="#FCFAFA" stroke-width="2" stroke-linecap="round" stroke-linejoin="round" stroke-miterlimit="10" d="
				M664.679,103.603c2.668,0.509,5.246,1.554,7.777,2.503c2.76,1.037,5.428,1.771,7.939,3.372c3.803,2.425,7.529,5.378,11.656,7.375
				"/>
			<path fill="none" stroke="#FCFAFA" stroke-width="2" stroke-linecap="round" stroke-linejoin="round" stroke-miterlimit="10" d="
				M667.554,99.603c0.557,1.188,2.562,2.006,3.6,2.845c1.449,1.172,2.477,2.631,3.994,3.754c1.74,1.284,3.617,2.541,5.277,3.928
				c1.84,1.536,3.408,3.343,4.66,5.35c0.797,1.277,1.854,2.302,2.469,3.625"/>
			<path fill="none" stroke="#FCFAFA" stroke-width="2" stroke-linecap="round" stroke-linejoin="round" stroke-miterlimit="10" d="
				M671.429,96.728c0.508,1.225,1.861,2.326,2.562,3.561c0.904,1.589,1.686,3.243,2.689,4.784c1.096,1.676,2.061,3.293,2.838,5.155
				c0.812,1.953,1.721,3.894,2.412,5.878c0.432,1.235,1.66,2.66,1.871,3.872"/>
			<path fill="none" stroke="#FCFAFA" stroke-width="2" stroke-linecap="round" stroke-linejoin="round" stroke-miterlimit="10" d="
				M675.804,95.228c0.455,2.439,0.271,5.131,0.375,7.618c0.088,2.113,0.285,4.186,0.473,6.291c0.252,2.841,1.684,6.359,0.777,9.216"
				/>
			<path fill="none" stroke="#FCFAFA" stroke-width="2" stroke-linecap="round" stroke-linejoin="round" stroke-miterlimit="10" d="
				M682.554,95.978c-0.381,1.214-1.252,2.2-1.75,3.379c-0.477,1.127-0.602,2.276-0.75,3.466c-0.23,1.846-0.838,3.436-1.402,5.246
				c-0.83,2.659-1.672,5.209-3.227,7.534c-0.707,1.062-1.059,2.662-1.871,3.5"/>
			<path fill="none" stroke="#FCFAFA" stroke-width="2" stroke-linecap="round" stroke-linejoin="round" stroke-miterlimit="10" d="
				M685.804,97.353c-1.227,1.31-2.553,2.544-3.619,4c-1.635,2.232-2.904,4.722-4.529,6.997c-1.441,2.018-3.193,3.914-4.852,5.746
				c-0.871,0.962-2.133,1.732-2.875,2.757"/>
			<path fill="none" stroke="#FCFAFA" stroke-width="2" stroke-linecap="round" stroke-linejoin="round" stroke-miterlimit="10" d="
				M689.429,100.103c-1,1.978-5.648,3.613-7.627,4.625c-2.971,1.518-5.492,3.652-8.252,5.465c-2.418,1.59-5.125,2.864-7.746,4.035"
				/>
			<path fill="none" stroke="#FCFAFA" stroke-width="2" stroke-linecap="round" stroke-linejoin="round" stroke-miterlimit="10" d="
				M664.804,111.103c2.854-0.569,5.596-2.444,8.406-3.344c2.924-0.934,5.668-0.653,8.693-0.656c1.963-0.002,3.855-0.094,5.773,0
				c1.115,0.055,3.074,0.272,4-0.125"/>
			<path fill="none" stroke="#FCFAFA" stroke-width="2" stroke-linecap="round" stroke-linejoin="round" stroke-miterlimit="10" d="
				M691.429,102.478c-3.305,1.013-6.74,2.444-9.748,4.224c-1.414,0.836-2.852,1.887-4.127,2.905c-1.16,0.926-2.762,1.725-3.75,2.746
				"/>
		</g>
		<g>

				<line fill="none" stroke="#FCFAFA" stroke-width="2" stroke-linejoin="round" stroke-miterlimit="10" x1="91.312" y1="195.624" x2="91.328" y2="252.807"/>
			<path fill="none" stroke="#FCFAFA" stroke-width="2" stroke-linecap="round" stroke-linejoin="round" stroke-miterlimit="10" d="
				M91.272,161.876c2.467-0.915,6.229,1.63,4.812,4.312c-2.162,4.088-4.258-2.008-4.562-3.812"/>
			<path fill="none" stroke="#FCFAFA" stroke-width="2" stroke-linecap="round" stroke-linejoin="round" stroke-miterlimit="10" d="
				M90.272,161.876c0.258,2.598-2.239,8.369-5.699,4.938c-3.489-3.461,3.39-5.127,5.449-5.188"/>
			<path fill="none" stroke="#FCFAFA" stroke-width="2" stroke-linecap="round" stroke-linejoin="round" stroke-miterlimit="10" d="
				M91.272,162.626c0.626,2.176,5.799,8.255,1.513,9.513c-1.985,0.583-4.112-1.528-4.506-3.258
				c-0.445-1.961,0.829-3.365,1.743-5.005"/>
			<path fill="none" stroke="#FCFAFA" stroke-width="2" stroke-linecap="round" stroke-linejoin="round" stroke-miterlimit="10" d="
				M90.272,160.626c-2.047-1.854-10.205,0.353-6.75,3"/>
			<path fill="none" stroke="#FCFAFA" stroke-width="2" stroke-linecap="round" stroke-linejoin="round" stroke-miterlimit="10" d="
				M91.022,160.626c1.345-5.562,9.402,2.121,5.75,3.25"/>
			<path fill="none" stroke="#FCFAFA" stroke-width="2" stroke-linecap="round" stroke-linejoin="round" stroke-miterlimit="10" d="
				M82.772,160.626c-5.235-1.969-5.309,8.41,0.25,5.75"/>
			<path fill="none" stroke="#FCFAFA" stroke-width="2" stroke-linecap="round" stroke-linejoin="round" stroke-miterlimit="10" d="
				M98.272,162.126c3.295,1.772,1.664,6.487-2.25,6"/>
			<path fill="none" stroke="#FCFAFA" stroke-width="2" stroke-linecap="round" stroke-linejoin="round" stroke-miterlimit="10" d="
				M82.038,167.376c-1.474,3.039,4.359,6.865,6.437,3.807"/>
			<path fill="none" stroke="#FCFAFA" stroke-width="2" stroke-linecap="round" stroke-linejoin="round" stroke-miterlimit="10" d="
				M94.522,169.126c-0.05,0.988,0.414,1.724,1.243,2.146c1.278,0.108,3.078,0.376,4.326-0.576c1.208-0.921,1.917-3.119,0.181-4.068"
				/>
			<path fill="none" stroke="#FCFAFA" stroke-width="2" stroke-linecap="round" stroke-linejoin="round" stroke-miterlimit="10" d="
				M79.2,165.627c-3.105-0.262-4.046,3.709-2.739,5.757c1.164,1.824,5.753,3.188,5.796-0.184"/>
			<path fill="none" stroke="#FCFAFA" stroke-width="2" stroke-linecap="round" stroke-linejoin="round" stroke-miterlimit="10" d="
				M82.723,171.374c-2.931,1.161-1.146,5.247,1.237,6.013c2.927,0.941,6.624-1.714,5.263-4.763"/>
			<path fill="none" stroke="#FCFAFA" stroke-width="2" stroke-linecap="round" stroke-linejoin="round" stroke-miterlimit="10" d="
				M90.272,172.376c-2.654,5.365,10.538,7.303,6.25-0.5"/>
			<path fill="none" stroke="#FCFAFA" stroke-width="2" stroke-linecap="round" stroke-linejoin="round" stroke-miterlimit="10" d="
				M97.522,171.626c0.789,2.439,4.799,4.31,6.999,2.5c2.592-2.131,0.275-5.667-2.499-6"/>
			<path fill="none" stroke="#FCFAFA" stroke-width="2" stroke-linecap="round" stroke-linejoin="round" stroke-miterlimit="10" d="
				M76.522,172.626c-3.749,4.135,4.864,8.25,6.25,4.75"/>
			<path fill="none" stroke="#FCFAFA" stroke-width="2" stroke-linecap="round" stroke-linejoin="round" stroke-miterlimit="10" d="
				M82.772,177.626c-1.194,6.66,10.92,5.592,9.25,0.25"/>
			<path fill="none" stroke="#FCFAFA" stroke-width="2" stroke-linecap="round" stroke-linejoin="round" stroke-miterlimit="10" d="
				M92.522,177.626c-0.599,2.592,3.101,5.005,5.312,4.062c2.525-1.078,1.807-4.281-0.062-5.562"/>
			<path fill="none" stroke="#FCFAFA" stroke-width="2" stroke-linecap="round" stroke-linejoin="round" stroke-miterlimit="10" d="
				M97.772,175.126c1.059,2.297,3.802,4.801,6.506,4.256c2.581-0.521,4.527-4.706,1.494-6.006"/>
			<path fill="none" stroke="#FCFAFA" stroke-width="2" stroke-linecap="round" stroke-linejoin="round" stroke-miterlimit="10" d="
				M100.522,163.626c1.565,0.011,2.841-0.258,3.812,1.188c0.781,1.162,0.571,2.638-0.812,3.312"/>
			<path fill="none" stroke="#FCFAFA" stroke-width="2" stroke-linecap="round" stroke-linejoin="round" stroke-miterlimit="10" d="
				M105.022,167.376c3.566-1.576,5.181,4.633,2,6"/>
			<path fill="none" stroke="#FCFAFA" stroke-width="2" stroke-linecap="round" stroke-linejoin="round" stroke-miterlimit="10" d="
				M75.272,170.626c-6.859,1.379-2.574,10.755,2,7.75"/>
			<path fill="none" stroke="#FCFAFA" stroke-width="2" stroke-linecap="round" stroke-linejoin="round" stroke-miterlimit="10" d="
				M77.522,178.376c-4.726,5.547,6.268,9.715,7.25,4.5"/>
			<path fill="none" stroke="#FCFAFA" stroke-width="2" stroke-linecap="round" stroke-linejoin="round" stroke-miterlimit="10" d="
				M85.522,182.126c-1.812,9.188,11.836,3.854,7.25-1"/>
			<path fill="none" stroke="#FCFAFA" stroke-width="2" stroke-linecap="round" stroke-linejoin="round" stroke-miterlimit="10" d="
				M94.022,182.876c0.285,2.746,2.868,4.439,5.438,3.188c2.954-1.438,1.52-3.69,0.312-5.688"/>
			<path fill="none" stroke="#FCFAFA" stroke-width="2" stroke-linecap="round" stroke-linejoin="round" stroke-miterlimit="10" d="
				M100.522,180.626c0.448,1.887,2.328,5.189,4.749,5.005c3.213-0.247,1.975-4.3,0.501-5.755"/>
			<path fill="none" stroke="#FCFAFA" stroke-width="2" stroke-linecap="round" stroke-linejoin="round" stroke-miterlimit="10" d="
				M109.022,172.126c2.926,2.288,1.499,9.294-2.25,7"/>
			<path fill="none" stroke="#FCFAFA" stroke-width="2" stroke-linecap="round" stroke-linejoin="round" stroke-miterlimit="10" d="
				M73.272,179.376c-0.933,2.397-1.592,4.764,0.562,6.938c1.712,1.729,4.815,2.242,6.188-0.188"/>
			<path fill="none" stroke="#FCFAFA" stroke-width="2" stroke-linecap="round" stroke-linejoin="round" stroke-miterlimit="10" d="
				M79.022,187.376c-0.294,3.984,7.275,4.563,7.75,0.25"/>
			<path fill="none" stroke="#FCFAFA" stroke-width="2" stroke-linecap="round" stroke-linejoin="round" stroke-miterlimit="10" d="
				M86.772,187.376c-1.834,6.018,9.719,6.029,8.75-0.894"/>
			<path fill="none" stroke="#FCFAFA" stroke-width="2" stroke-linecap="round" stroke-linejoin="round" stroke-miterlimit="10" d="
				M100.022,186.626c0.379,2.197-1.784,6.818-4.5,4.25"/>
			<path fill="none" stroke="#FCFAFA" stroke-width="2" stroke-linecap="round" stroke-linejoin="round" stroke-miterlimit="10" d="
				M104.772,186.626c-0.415,2.449-1.949,3.267-4.5,3"/>
			<path fill="none" stroke="#FCFAFA" stroke-width="2" stroke-linecap="round" stroke-linejoin="round" stroke-miterlimit="10" d="
				M110.272,179.126c4.645,2.627-0.916,10.591-4.75,7.5"/>
			<path fill="none" stroke="#FCFAFA" stroke-width="2" stroke-linecap="round" stroke-linejoin="round" stroke-miterlimit="10" d="
				M97.272,160.376c3.057-2.009,6.672,1.83,4,2.75"/>
			<path fill="none" stroke="#FCFAFA" stroke-width="2" stroke-linecap="round" stroke-linejoin="round" stroke-miterlimit="10" d="
				M74.022,187.376c-1.503,6.253,7.334,11.186,9.75,4.25"/>
			<path fill="none" stroke="#FCFAFA" stroke-width="2" stroke-linecap="round" stroke-linejoin="round" stroke-miterlimit="10" d="
				M84.272,190.876c-0.405,2.926-0.059,4.976,3.237,5.763c2.698,0.646,4.887-0.996,4.513-3.763"/>
			<path fill="none" stroke="#FCFAFA" stroke-width="2" stroke-linecap="round" stroke-linejoin="round" stroke-miterlimit="10" d="
				M92.772,192.626c-0.579,4.089,8.397,3.6,7-1.75"/>
			<path fill="none" stroke="#FCFAFA" stroke-width="2" stroke-linecap="round" stroke-linejoin="round" stroke-miterlimit="10" d="
				M112.272,184.876c0.38,2.229,0.397,5.077-1.757,6.438c-2.148,1.355-5.122,0.681-6.493-1.438"/>
			<path fill="none" stroke="#FCFAFA" stroke-width="2" stroke-linecap="round" stroke-linejoin="round" stroke-miterlimit="10" d="
				M100.272,191.626c-0.303,4.145,5.864,5.294,6.25,1"/>
			<path fill="none" stroke="#FCFAFA" stroke-width="2" stroke-linecap="round" stroke-linejoin="round" stroke-miterlimit="10" d="
				M78.522,162.376c-1.679-0.781-4.185,0.675-4.943,2.307c-0.938,2.018,0.153,4.142,0.943,5.943"/>
			<path fill="none" stroke="#FCFAFA" stroke-width="2" stroke-linecap="round" stroke-linejoin="round" stroke-miterlimit="10" d="
				M72.522,168.126c-1.67,0.085-3.239,1.408-3.764,2.985c-0.651,1.963,0.668,3.132,1.3,4.701c0.396,0.153,1.697,0.409,2.053,0.604"
				/>
			<path fill="none" stroke="#FCFAFA" stroke-width="2" stroke-linecap="round" stroke-linejoin="round" stroke-miterlimit="10" d="
				M70.272,176.126c-4.806,0.542-1.714,8.562,2,8.25"/>
			<path fill="none" stroke="#FCFAFA" stroke-width="2" stroke-linecap="round" stroke-linejoin="round" stroke-miterlimit="10" d="
				M102.522,161.626c3.786-1.517,7.607,2.147,5.5,6"/>
			<path fill="none" stroke="#FCFAFA" stroke-width="2" stroke-linecap="round" stroke-linejoin="round" stroke-miterlimit="10" d="
				M108.772,166.626c4.138-0.56,6.62,5.668,2.25,7"/>
			<path fill="none" stroke="#FCFAFA" stroke-width="2" stroke-linecap="round" stroke-linejoin="round" stroke-miterlimit="10" d="
				M111.522,173.376c6.153-0.521,6.605,7.718,1.5,9.75"/>
			<path fill="none" stroke="#FCFAFA" stroke-width="2" stroke-linecap="round" stroke-linejoin="round" stroke-miterlimit="10" d="
				M114.772,182.376c1.008,2.349-0.187,5.019-2.5,6.25"/>
			<path fill="none" stroke="#FCFAFA" stroke-width="2" stroke-linecap="round" stroke-linejoin="round" stroke-miterlimit="10" d="
				M69.522,183.876c-2.987,3.824,1.343,7.723,4.956,8.75"/>
			<path fill="none" stroke="#FCFAFA" stroke-width="2" stroke-linecap="round" stroke-linejoin="round" stroke-miterlimit="10" d="
				M91.022,219.876c-0.399-1.295-2.041-1.739-3.619-1.456c-1.542,1.926,0.927,5.273,3.619,3.956"/>
			<path fill="none" stroke="#FCFAFA" stroke-width="2" stroke-linecap="round" stroke-linejoin="round" stroke-miterlimit="10" d="
				M91.522,219.126c1.065-1.812,4.878-2.283,4.263,0.763c-0.515,2.553-3.463,1.873-4.263-0.013"/>
			<path fill="none" stroke="#FCFAFA" stroke-width="2" stroke-linecap="round" stroke-linejoin="round" stroke-miterlimit="10" d="
				M90.772,209.126c-0.751-1.438-2.177-1.91-3.706-1.706c-2.091,3.017,2.507,6.019,3.956,2.456"/>
			<path fill="none" stroke="#FCFAFA" stroke-width="2" stroke-linecap="round" stroke-linejoin="round" stroke-miterlimit="10" d="
				M91.522,230.126c-0.148-2.304-3.491-2.493-4.02-0.035c-0.449,2.089,2.503,5.566,3.52,3.27"/>
			<path fill="none" stroke="#FCFAFA" stroke-width="2" stroke-linecap="round" stroke-linejoin="round" stroke-miterlimit="10" d="
				M91.772,231.626c2.366-1.308,5.947,0.938,3.938,3.438c-2.11,2.621-4.078-0.85-4.438-2.688"/>
		</g>
		<g>

				<line fill="none" stroke="#FCFAFA" stroke-width="2" stroke-linejoin="round" stroke-miterlimit="10" x1="16.695" y1="214.376" x2="16.695" y2="253.151"/>
			<path fill="none" stroke="#FCFAFA" stroke-width="2" stroke-linecap="round" stroke-linejoin="round" stroke-miterlimit="10" d="
				M1,213.839c2.842-2.624,8.946-1.271,12.25-0.406c4.328,1.131,8.967,1.77,13.622,2.038c1.758,0.103,3.138,0.323,4.753-0.257"/>
			<path fill="none" stroke="#FCFAFA" stroke-width="2" stroke-linecap="round" stroke-linejoin="round" stroke-miterlimit="10" d="
				M2.5,208.214c2.668,0.509,5.246,1.553,7.777,2.503c2.76,1.037,5.428,1.77,7.94,3.372c3.803,2.425,7.529,5.378,11.657,7.375"/>
			<path fill="none" stroke="#FCFAFA" stroke-width="2" stroke-linecap="round" stroke-linejoin="round" stroke-miterlimit="10" d="
				M5.375,204.214c0.557,1.188,2.562,2.006,3.6,2.844c1.45,1.172,2.476,2.631,3.994,3.754c1.74,1.285,3.618,2.541,5.277,3.929
				c1.84,1.535,3.408,3.343,4.66,5.35c0.797,1.277,1.854,2.301,2.469,3.625"/>
			<path fill="none" stroke="#FCFAFA" stroke-width="2" stroke-linecap="round" stroke-linejoin="round" stroke-miterlimit="10" d="
				M9.25,201.339c0.508,1.224,1.861,2.326,2.563,3.56c0.904,1.59,1.685,3.243,2.69,4.784c1.094,1.676,2.06,3.293,2.837,5.156
				c0.813,1.953,1.721,3.893,2.413,5.878c0.431,1.235,1.66,2.66,1.871,3.872"/>
			<path fill="none" stroke="#FCFAFA" stroke-width="2" stroke-linecap="round" stroke-linejoin="round" stroke-miterlimit="10" d="
				M13.625,199.839c0.456,2.438,0.271,5.131,0.375,7.618c0.089,2.112,0.285,4.185,0.473,6.291c0.252,2.841,1.683,6.358,0.777,9.216"
				/>
			<path fill="none" stroke="#FCFAFA" stroke-width="2" stroke-linecap="round" stroke-linejoin="round" stroke-miterlimit="10" d="
				M20.375,200.589c-0.38,1.214-1.252,2.2-1.75,3.379c-0.477,1.127-0.602,2.276-0.75,3.465c-0.23,1.846-0.837,3.437-1.402,5.247
				c-0.83,2.659-1.673,5.209-3.226,7.534c-0.708,1.061-1.06,2.662-1.872,3.5"/>
			<path fill="none" stroke="#FCFAFA" stroke-width="2" stroke-linecap="round" stroke-linejoin="round" stroke-miterlimit="10" d="
				M23.625,201.964c-1.226,1.309-2.552,2.544-3.618,4c-1.636,2.231-2.906,4.721-4.531,6.997c-1.44,2.017-3.193,3.914-4.851,5.746
				c-0.87,0.962-2.132,1.731-2.875,2.757"/>
			<path fill="none" stroke="#FCFAFA" stroke-width="2" stroke-linecap="round" stroke-linejoin="round" stroke-miterlimit="10" d="
				M27.25,204.714c-1,1.977-5.648,3.613-7.627,4.625c-2.971,1.517-5.492,3.652-8.252,5.465c-2.417,1.589-5.125,2.864-7.746,4.035"/>
			<path fill="none" stroke="#FCFAFA" stroke-width="2" stroke-linecap="round" stroke-linejoin="round" stroke-miterlimit="10" d="
				M2.625,215.714c2.854-0.57,5.595-2.445,8.406-3.344c2.924-0.935,5.668-0.653,8.693-0.656c1.964-0.002,3.856-0.094,5.775,0
				c1.114,0.054,3.073,0.271,4-0.125"/>
			<path fill="none" stroke="#FCFAFA" stroke-width="2" stroke-linecap="round" stroke-linejoin="round" stroke-miterlimit="10" d="
				M29.25,207.089c-3.305,1.012-6.74,2.444-9.747,4.223c-1.415,0.836-2.852,1.888-4.128,2.906c-1.159,0.925-2.762,1.724-3.75,2.746"
				/>
		</g>
		<g>

				<line fill="none" stroke="#FCFAFA" stroke-width="2" stroke-miterlimit="10" x1="39.502" y1="110.906" x2="39.502" y2="251.722"/>
			<path fill="none" stroke="#FCFAFA" stroke-width="2" stroke-linejoin="round" stroke-miterlimit="10" d="M39.625,153.659
				c-9.03-0.031-23.702-1.947-26-12.288c9.431,1.699,21.879,1.312,25.38,12.288"/>
			<path fill="none" stroke="#FCFAFA" stroke-width="2" stroke-linecap="round" stroke-linejoin="round" stroke-miterlimit="10" d="
				M39.625,158.465c8.95-7.179,16.741-3.357,26.667-0.616c-3.113,0.434-7.854,4.487-12.117,5.183
				c-5.95,0.969-9.69-0.799-13.917-3.912"/>
			<path fill="none" stroke="#FCFAFA" stroke-width="2" stroke-miterlimit="10" d="M38.959,109.993
				c-2.584,3.277-13.963,9.219-16.699,3.364c-4.52-9.669,12.519-5.069,15.365-3.364"/>
			<path fill="none" stroke="#FCFAFA" stroke-width="2" stroke-miterlimit="10" d="M39.258,109.796
				c-0.521-4.144,3.237-16.415,9.326-14.256c10.06,3.568-5.178,12.475-8.39,13.306"/>
			<path fill="none" stroke="#FCFAFA" stroke-width="2" stroke-miterlimit="10" d="M40.076,110.906
				c-3.992-1.222-13.652-9.675-9.188-14.346c7.374-7.716,9.262,9.831,8.704,13.103"/>
			<path fill="none" stroke="#FCFAFA" stroke-width="2" stroke-miterlimit="10" d="M39.83,109.796
				c3.765,1.806,12.049,11.607,6.938,15.559c-8.446,6.526-7.686-11.104-6.646-14.257"/>
			<path fill="none" stroke="#FCFAFA" stroke-width="2" stroke-miterlimit="10" d="M40.214,109.148
				c3.816-1.693,16.65-1.64,16.341,4.812c-0.513,10.662-13.438-1.354-15.161-4.19"/>
			<path fill="none" stroke="#FCFAFA" stroke-width="2" stroke-miterlimit="10" d="M38.519,110.979
				c1.292,3.972-0.082,16.731-6.469,15.761c-10.552-1.606,2.73-13.228,5.729-14.649"/>
		</g>
		<g>

				<line fill="none" stroke="#FCFAFA" stroke-width="2" stroke-miterlimit="10" x1="459.824" y1="137.27" x2="459.824" y2="252.807"/>
			<path fill="none" stroke="#FCFAFA" stroke-width="2" stroke-linejoin="round" stroke-miterlimit="10" d="M459.771,135.991
				c-4.355-6.781,2.051-17.66,3.666-24.566c0.439,3.927-0.307,8.633-0.666,12.566c-0.338,3.723,0.393,9.137-2,12"/>
			<path fill="none" stroke="#FCFAFA" stroke-width="2" stroke-linecap="round" stroke-linejoin="round" stroke-miterlimit="10" d="
				M459.812,137.507c-8.014-0.863-12.463-12.678-16.826-18.271c3.334,2.122,6.529,5.656,9.365,8.404
				c2.688,2.601,7.359,5.43,8.09,9.088"/>
			<path fill="none" stroke="#FCFAFA" stroke-width="2" stroke-linejoin="round" stroke-miterlimit="10" d="M459.201,137.824
				c-5.898,5.494-17.742,1.128-24.826,0.768c3.785-1.132,8.549-1.235,12.482-1.582c3.725-0.331,8.922-2.012,12.166-0.17"/>
			<path fill="none" stroke="#FCFAFA" stroke-width="2" stroke-linejoin="round" stroke-miterlimit="10" d="M460.925,138.143
				c-0.936,8.007-12.791,12.349-18.422,16.659c2.152-3.312,5.715-6.477,8.488-9.288c2.625-2.664,5.498-7.31,9.162-8.007"/>
			<path fill="none" stroke="#FCFAFA" stroke-width="2" stroke-linejoin="round" stroke-miterlimit="10" d="M461.802,135.991
				c5.293,6.079,0.527,17.771-0.072,24.838c-1.002-3.821-0.943-8.586-1.158-12.529c-0.205-3.734-1.709-8.985,0.24-12.165"/>
			<path fill="none" stroke="#FCFAFA" stroke-width="2" stroke-linejoin="round" stroke-miterlimit="10" d="M461.484,135.991
				c8.061,0.158,13.523,11.539,18.359,16.729c-3.506-1.822-6.998-5.063-10.062-7.553c-2.906-2.354-7.809-4.767-8.855-8.346"/>
			<path fill="none" stroke="#FCFAFA" stroke-width="2" stroke-linejoin="round" stroke-miterlimit="10" d="M460.925,135.521
				c3.99-7.005,16.6-6.37,23.469-8.14c-3.275,2.208-7.793,3.729-11.441,5.234c-3.457,1.427-7.918,4.58-11.562,3.792"/>
			<path fill="none" stroke="#FCFAFA" stroke-width="2" stroke-linecap="round" stroke-linejoin="round" stroke-miterlimit="10" d="
				M459.824,200.793c-2.266-9.788-11.529-16.329-17.141-24.29c-5.373-7.621-7.154-16.379-8.561-25.306
				c-0.189-1.184-0.291-3.19-0.922-4.053c-1.631,8.562,0.275,17.26,1.744,25.58c1.723,9.766,7.322,21.515,15.59,27.607
				c2.104,1.552,6.365,4.58,9.086,3.514"/>
			<path fill="none" stroke="#FCFAFA" stroke-width="2" stroke-linecap="round" stroke-linejoin="round" stroke-miterlimit="10" d="
				M460.441,207.126c2.857-3.114,3.592-9.021,4.016-13.128c0.689-6.684,1.977-12.18,4.646-18.304
				c2.43-5.565,5.588-13.234,9.73-17.529c-2.244,4.159-2.205,9.781-2.604,14.474c-0.52,6.103-0.182,12.157-1.244,18.236
				c-0.779,4.454-2.244,11.646-5.457,14.952c-2.336,2.403-5.979,2.299-9.088,2.299"/>
		</g>
		<g>

				<line fill="none" stroke="#FCFAFA" stroke-width="2" stroke-linecap="round" stroke-linejoin="round" stroke-miterlimit="10" x1="156.306" y1="140.026" x2="156.306" y2="252.513"/>
			<path fill="none" stroke="#FCFAFA" stroke-width="2" stroke-linecap="round" stroke-linejoin="round" stroke-miterlimit="10" d="
				M140.61,139.49c2.842-2.624,8.946-1.271,12.25-0.406c4.328,1.131,8.967,1.769,13.622,2.038c1.758,0.102,3.138,0.322,4.753-0.257"
				/>
			<path fill="none" stroke="#FCFAFA" stroke-width="2" stroke-linecap="round" stroke-linejoin="round" stroke-miterlimit="10" d="
				M142.11,133.865c2.668,0.509,5.246,1.553,7.777,2.503c2.76,1.036,5.428,1.77,7.94,3.372c3.803,2.425,7.529,5.378,11.657,7.375"/>
			<path fill="none" stroke="#FCFAFA" stroke-width="2" stroke-linecap="round" stroke-linejoin="round" stroke-miterlimit="10" d="
				M144.985,129.865c0.557,1.188,2.562,2.006,3.6,2.844c1.45,1.172,2.476,2.631,3.994,3.754c1.74,1.285,3.618,2.541,5.277,3.928
				c1.84,1.536,3.408,3.343,4.66,5.351c0.797,1.276,1.854,2.301,2.469,3.625"/>
			<path fill="none" stroke="#FCFAFA" stroke-width="2" stroke-linecap="round" stroke-linejoin="round" stroke-miterlimit="10" d="
				M148.86,126.99c0.508,1.224,1.861,2.325,2.563,3.56c0.904,1.589,1.685,3.243,2.69,4.784c1.094,1.676,2.06,3.293,2.837,5.156
				c0.813,1.952,1.721,3.893,2.413,5.878c0.431,1.234,1.66,2.659,1.871,3.872"/>
			<path fill="none" stroke="#FCFAFA" stroke-width="2" stroke-linecap="round" stroke-linejoin="round" stroke-miterlimit="10" d="
				M153.235,125.49c0.456,2.438,0.271,5.131,0.375,7.617c0.089,2.113,0.285,4.186,0.473,6.291c0.252,2.842,1.683,6.359,0.777,9.217"
				/>
			<path fill="none" stroke="#FCFAFA" stroke-width="2" stroke-linecap="round" stroke-linejoin="round" stroke-miterlimit="10" d="
				M159.985,126.24c-0.38,1.214-1.252,2.199-1.75,3.379c-0.477,1.127-0.602,2.275-0.75,3.465c-0.23,1.846-0.837,3.436-1.402,5.247
				c-0.83,2.659-1.673,5.209-3.226,7.534c-0.708,1.061-1.06,2.661-1.872,3.5"/>
			<path fill="none" stroke="#FCFAFA" stroke-width="2" stroke-linecap="round" stroke-linejoin="round" stroke-miterlimit="10" d="
				M163.235,127.615c-1.226,1.309-2.552,2.544-3.618,4c-1.636,2.231-2.906,4.721-4.531,6.996c-1.44,2.018-3.193,3.914-4.851,5.746
				c-0.87,0.962-2.132,1.732-2.875,2.758"/>
			<path fill="none" stroke="#FCFAFA" stroke-width="2" stroke-linecap="round" stroke-linejoin="round" stroke-miterlimit="10" d="
				M166.86,130.365c-1,1.977-5.648,3.612-7.627,4.625c-2.971,1.517-5.492,3.651-8.252,5.465c-2.417,1.589-5.125,2.863-7.746,4.035"
				/>
			<path fill="none" stroke="#FCFAFA" stroke-width="2" stroke-linecap="round" stroke-linejoin="round" stroke-miterlimit="10" d="
				M142.235,141.365c2.854-0.57,5.595-2.445,8.406-3.345c2.924-0.934,5.668-0.652,8.693-0.655c1.964-0.003,3.856-0.095,5.775,0
				c1.114,0.054,3.073,0.271,4-0.125"/>
			<path fill="none" stroke="#FCFAFA" stroke-width="2" stroke-linecap="round" stroke-linejoin="round" stroke-miterlimit="10" d="
				M168.86,132.74c-3.305,1.012-6.74,2.443-9.747,4.223c-1.415,0.836-2.852,1.887-4.128,2.906c-1.159,0.925-2.762,1.724-3.75,2.746"
				/>
		</g>
		<g>

				<line fill="none" stroke="#FCFAFA" stroke-width="2" stroke-linejoin="round" stroke-miterlimit="10" x1="525.693" y1="215.079" x2="525.693" y2="252.807"/>
			<path fill="none" stroke="#FCFAFA" stroke-width="2" stroke-linecap="round" stroke-linejoin="round" stroke-miterlimit="10" d="
				M509.998,214.542c2.842-2.624,8.947-1.271,12.25-0.406c4.328,1.131,8.967,1.77,13.623,2.038c1.758,0.102,3.137,0.323,4.752-0.257
				"/>
			<path fill="none" stroke="#FCFAFA" stroke-width="2" stroke-linecap="round" stroke-linejoin="round" stroke-miterlimit="10" d="
				M511.498,208.917c2.668,0.509,5.246,1.553,7.777,2.503c2.76,1.037,5.428,1.77,7.939,3.372c3.803,2.425,7.529,5.378,11.658,7.375"
				/>
			<path fill="none" stroke="#FCFAFA" stroke-width="2" stroke-linecap="round" stroke-linejoin="round" stroke-miterlimit="10" d="
				M514.373,204.917c0.557,1.188,2.562,2.006,3.6,2.844c1.451,1.172,2.477,2.631,3.994,3.754c1.74,1.285,3.619,2.541,5.277,3.928
				c1.84,1.536,3.408,3.344,4.66,5.351c0.797,1.276,1.854,2.301,2.469,3.625"/>
			<path fill="none" stroke="#FCFAFA" stroke-width="2" stroke-linecap="round" stroke-linejoin="round" stroke-miterlimit="10" d="
				M518.248,202.042c0.508,1.224,1.861,2.326,2.562,3.56c0.904,1.589,1.686,3.243,2.691,4.784c1.094,1.676,2.059,3.293,2.836,5.156
				c0.814,1.953,1.721,3.893,2.414,5.878c0.43,1.235,1.66,2.66,1.871,3.872"/>
			<path fill="none" stroke="#FCFAFA" stroke-width="2" stroke-linecap="round" stroke-linejoin="round" stroke-miterlimit="10" d="
				M522.623,200.542c0.457,2.438,0.271,5.131,0.375,7.618c0.09,2.112,0.285,4.185,0.473,6.291c0.252,2.841,1.684,6.358,0.777,9.216"
				/>
			<path fill="none" stroke="#FCFAFA" stroke-width="2" stroke-linecap="round" stroke-linejoin="round" stroke-miterlimit="10" d="
				M529.373,201.292c-0.379,1.214-1.252,2.2-1.75,3.379c-0.477,1.127-0.602,2.276-0.75,3.465c-0.23,1.846-0.836,3.437-1.402,5.247
				c-0.83,2.659-1.672,5.209-3.225,7.534c-0.709,1.061-1.061,2.662-1.873,3.5"/>
			<path fill="none" stroke="#FCFAFA" stroke-width="2" stroke-linecap="round" stroke-linejoin="round" stroke-miterlimit="10" d="
				M532.623,202.667c-1.227,1.309-2.551,2.544-3.617,4c-1.637,2.231-2.906,4.721-4.531,6.997c-1.439,2.017-3.193,3.914-4.852,5.746
				c-0.869,0.962-2.131,1.731-2.875,2.757"/>
			<path fill="none" stroke="#FCFAFA" stroke-width="2" stroke-linecap="round" stroke-linejoin="round" stroke-miterlimit="10" d="
				M536.248,205.417c-1,1.977-5.648,3.613-7.627,4.625c-2.971,1.517-5.492,3.651-8.252,5.465c-2.416,1.589-5.125,2.864-7.746,4.035"
				/>
			<path fill="none" stroke="#FCFAFA" stroke-width="2" stroke-linecap="round" stroke-linejoin="round" stroke-miterlimit="10" d="
				M511.623,216.417c2.854-0.57,5.596-2.445,8.406-3.344c2.924-0.935,5.668-0.653,8.693-0.656c1.963-0.002,3.855-0.094,5.775,0
				c1.113,0.054,3.072,0.271,4-0.125"/>
			<path fill="none" stroke="#FCFAFA" stroke-width="2" stroke-linecap="round" stroke-linejoin="round" stroke-miterlimit="10" d="
				M538.248,207.792c-3.305,1.012-6.74,2.443-9.746,4.223c-1.416,0.836-2.852,1.887-4.129,2.906
				c-1.158,0.925-2.762,1.724-3.75,2.746"/>
		</g>
		<g>

				<line fill="none" stroke="#FCFAFA" stroke-width="2" stroke-linecap="round" stroke-linejoin="round" stroke-miterlimit="10" x1="337.812" y1="164.298" x2="337.812" y2="252.139"/>
			<path fill="none" stroke="#FCFAFA" stroke-width="2" stroke-linecap="round" stroke-linejoin="round" stroke-miterlimit="10" d="
				M322.117,163.761c2.842-2.624,8.946-1.27,12.25-0.406c4.328,1.131,8.967,1.77,13.623,2.038c1.758,0.103,3.137,0.323,4.752-0.257"
				/>
			<path fill="none" stroke="#FCFAFA" stroke-width="2" stroke-linecap="round" stroke-linejoin="round" stroke-miterlimit="10" d="
				M323.617,158.136c2.668,0.509,5.246,1.553,7.777,2.503c2.76,1.037,5.428,1.771,7.94,3.372c3.803,2.425,7.529,5.378,11.658,7.375"
				/>
			<path fill="none" stroke="#FCFAFA" stroke-width="2" stroke-linecap="round" stroke-linejoin="round" stroke-miterlimit="10" d="
				M326.492,154.136c0.557,1.188,2.562,2.006,3.6,2.844c1.45,1.172,2.476,2.631,3.994,3.754c1.74,1.285,3.618,2.541,5.277,3.929
				c1.84,1.536,3.408,3.343,4.66,5.35c0.797,1.277,1.854,2.301,2.469,3.625"/>
			<path fill="none" stroke="#FCFAFA" stroke-width="2" stroke-linecap="round" stroke-linejoin="round" stroke-miterlimit="10" d="
				M330.367,151.261c0.508,1.224,1.861,2.326,2.563,3.56c0.904,1.59,1.685,3.243,2.69,4.784c1.094,1.677,2.06,3.293,2.837,5.156
				c0.813,1.953,1.721,3.893,2.413,5.878c0.431,1.235,1.66,2.66,1.871,3.872"/>
			<path fill="none" stroke="#FCFAFA" stroke-width="2" stroke-linecap="round" stroke-linejoin="round" stroke-miterlimit="10" d="
				M334.742,149.761c0.456,2.439,0.271,5.131,0.375,7.618c0.089,2.113,0.285,4.185,0.473,6.291c0.252,2.841,1.683,6.358,0.777,9.216
				"/>
			<path fill="none" stroke="#FCFAFA" stroke-width="2" stroke-linecap="round" stroke-linejoin="round" stroke-miterlimit="10" d="
				M341.492,150.511c-0.38,1.214-1.252,2.2-1.75,3.379c-0.477,1.127-0.602,2.276-0.75,3.465c-0.23,1.847-0.837,3.437-1.402,5.247
				c-0.83,2.659-1.673,5.209-3.226,7.534c-0.708,1.062-1.061,2.662-1.872,3.5"/>
			<path fill="none" stroke="#FCFAFA" stroke-width="2" stroke-linecap="round" stroke-linejoin="round" stroke-miterlimit="10" d="
				M344.742,151.886c-1.226,1.309-2.552,2.544-3.618,4c-1.636,2.232-2.906,4.721-4.531,6.997c-1.44,2.017-3.193,3.914-4.851,5.746
				c-0.87,0.962-2.132,1.731-2.875,2.757"/>
			<path fill="none" stroke="#FCFAFA" stroke-width="2" stroke-linecap="round" stroke-linejoin="round" stroke-miterlimit="10" d="
				M348.367,154.636c-1,1.978-5.648,3.613-7.626,4.625c-2.971,1.517-5.492,3.652-8.252,5.465c-2.417,1.589-5.125,2.864-7.746,4.035"
				/>
			<path fill="none" stroke="#FCFAFA" stroke-width="2" stroke-linecap="round" stroke-linejoin="round" stroke-miterlimit="10" d="
				M323.742,165.636c2.854-0.57,5.595-2.445,8.406-3.344c2.924-0.935,5.668-0.653,8.693-0.656c1.964-0.002,3.856-0.094,5.775,0
				c1.114,0.054,3.073,0.272,4-0.125"/>
			<path fill="none" stroke="#FCFAFA" stroke-width="2" stroke-linecap="round" stroke-linejoin="round" stroke-miterlimit="10" d="
				M350.367,157.011c-3.305,1.012-6.74,2.444-9.747,4.223c-1.415,0.836-2.852,1.888-4.128,2.906
				c-1.159,0.925-2.762,1.725-3.75,2.746"/>
		</g>
		<g>

				<line fill="none" stroke="#FCFAFA" stroke-width="2" stroke-linejoin="round" stroke-miterlimit="10" x1="394.807" y1="193.298" x2="394.807" y2="252.807"/>
			<path fill="none" stroke="#FCFAFA" stroke-width="2" stroke-linecap="round" stroke-linejoin="round" stroke-miterlimit="10" d="
				M379.111,192.761c2.842-2.624,8.946-1.27,12.25-0.406c4.328,1.131,8.967,1.77,13.623,2.038c1.758,0.103,3.137,0.323,4.752-0.257"
				/>
			<path fill="none" stroke="#FCFAFA" stroke-width="2" stroke-linecap="round" stroke-linejoin="round" stroke-miterlimit="10" d="
				M380.611,187.136c2.668,0.509,5.246,1.553,7.777,2.503c2.76,1.037,5.428,1.771,7.939,3.372c3.803,2.425,7.529,5.378,11.658,7.375
				"/>
			<path fill="none" stroke="#FCFAFA" stroke-width="2" stroke-linecap="round" stroke-linejoin="round" stroke-miterlimit="10" d="
				M383.486,183.136c0.557,1.188,2.562,2.006,3.6,2.844c1.451,1.172,2.477,2.631,3.994,3.754c1.74,1.285,3.619,2.541,5.277,3.929
				c1.84,1.536,3.408,3.343,4.66,5.35c0.797,1.277,1.854,2.301,2.469,3.625"/>
			<path fill="none" stroke="#FCFAFA" stroke-width="2" stroke-linecap="round" stroke-linejoin="round" stroke-miterlimit="10" d="
				M387.361,180.261c0.508,1.224,1.861,2.326,2.562,3.56c0.904,1.59,1.686,3.243,2.691,4.784c1.094,1.677,2.059,3.293,2.836,5.156
				c0.812,1.953,1.721,3.893,2.414,5.878c0.43,1.235,1.66,2.66,1.871,3.872"/>
			<path fill="none" stroke="#FCFAFA" stroke-width="2" stroke-linecap="round" stroke-linejoin="round" stroke-miterlimit="10" d="
				M391.736,178.761c0.456,2.439,0.271,5.131,0.375,7.618c0.09,2.113,0.285,4.185,0.473,6.291c0.252,2.841,1.684,6.358,0.777,9.216"
				/>
			<path fill="none" stroke="#FCFAFA" stroke-width="2" stroke-linecap="round" stroke-linejoin="round" stroke-miterlimit="10" d="
				M398.486,179.511c-0.381,1.214-1.252,2.2-1.75,3.379c-0.477,1.127-0.602,2.276-0.75,3.465c-0.23,1.847-0.837,3.437-1.402,5.247
				c-0.83,2.659-1.672,5.209-3.226,7.534c-0.708,1.062-1.06,2.662-1.872,3.5"/>
			<path fill="none" stroke="#FCFAFA" stroke-width="2" stroke-linecap="round" stroke-linejoin="round" stroke-miterlimit="10" d="
				M401.736,180.886c-1.227,1.309-2.553,2.544-3.617,4c-1.637,2.232-2.906,4.721-4.531,6.997c-1.44,2.017-3.193,3.914-4.852,5.746
				c-0.869,0.962-2.132,1.731-2.875,2.757"/>
			<path fill="none" stroke="#FCFAFA" stroke-width="2" stroke-linecap="round" stroke-linejoin="round" stroke-miterlimit="10" d="
				M405.361,183.636c-1,1.978-5.648,3.613-7.627,4.625c-2.971,1.517-5.492,3.652-8.252,5.465c-2.417,1.589-5.125,2.864-7.746,4.035"
				/>
			<path fill="none" stroke="#FCFAFA" stroke-width="2" stroke-linecap="round" stroke-linejoin="round" stroke-miterlimit="10" d="
				M380.736,194.636c2.854-0.57,5.596-2.445,8.406-3.344c2.924-0.935,5.668-0.653,8.693-0.656c1.963-0.002,3.855-0.094,5.775,0
				c1.113,0.054,3.072,0.272,4-0.125"/>
			<path fill="none" stroke="#FCFAFA" stroke-width="2" stroke-linecap="round" stroke-linejoin="round" stroke-miterlimit="10" d="
				M407.361,186.011c-3.305,1.012-6.74,2.444-9.746,4.223c-1.416,0.836-2.854,1.888-4.129,2.906
				c-1.158,0.925-2.762,1.725-3.75,2.746"/>
		</g>
		<g>

				<line fill="none" stroke="#FCFAFA" stroke-width="2" stroke-linecap="round" stroke-linejoin="round" stroke-miterlimit="10" x1="298.792" y1="213.079" x2="298.792" y2="251.854"/>
			<path fill="none" stroke="#FCFAFA" stroke-width="2" stroke-linecap="round" stroke-linejoin="round" stroke-miterlimit="10" d="
				M283.097,212.542c2.842-2.624,8.946-1.271,12.25-0.406c4.328,1.131,8.967,1.77,13.622,2.038c1.758,0.102,3.138,0.323,4.753-0.257
				"/>
			<path fill="none" stroke="#FCFAFA" stroke-width="2" stroke-linecap="round" stroke-linejoin="round" stroke-miterlimit="10" d="
				M284.597,206.917c2.668,0.509,5.246,1.553,7.777,2.503c2.76,1.037,5.428,1.77,7.94,3.372c3.803,2.425,7.529,5.378,11.657,7.375"
				/>
			<path fill="none" stroke="#FCFAFA" stroke-width="2" stroke-linecap="round" stroke-linejoin="round" stroke-miterlimit="10" d="
				M287.472,202.917c0.557,1.188,2.562,2.006,3.6,2.844c1.45,1.172,2.476,2.631,3.994,3.754c1.74,1.285,3.618,2.541,5.277,3.928
				c1.84,1.536,3.408,3.344,4.66,5.351c0.797,1.276,1.854,2.301,2.469,3.625"/>
			<path fill="none" stroke="#FCFAFA" stroke-width="2" stroke-linecap="round" stroke-linejoin="round" stroke-miterlimit="10" d="
				M291.347,200.042c0.508,1.224,1.861,2.326,2.563,3.56c0.904,1.589,1.685,3.243,2.69,4.784c1.094,1.676,2.06,3.293,2.837,5.156
				c0.813,1.953,1.721,3.893,2.413,5.878c0.431,1.235,1.66,2.66,1.871,3.872"/>
			<path fill="none" stroke="#FCFAFA" stroke-width="2" stroke-linecap="round" stroke-linejoin="round" stroke-miterlimit="10" d="
				M295.722,198.542c0.456,2.438,0.271,5.131,0.375,7.618c0.089,2.112,0.285,4.185,0.473,6.291c0.252,2.841,1.683,6.358,0.777,9.216
				"/>
			<path fill="none" stroke="#FCFAFA" stroke-width="2" stroke-linecap="round" stroke-linejoin="round" stroke-miterlimit="10" d="
				M302.472,199.292c-0.38,1.214-1.252,2.2-1.75,3.379c-0.477,1.127-0.602,2.276-0.75,3.465c-0.23,1.846-0.837,3.437-1.402,5.247
				c-0.83,2.659-1.673,5.209-3.226,7.534c-0.708,1.061-1.06,2.662-1.872,3.5"/>
			<path fill="none" stroke="#FCFAFA" stroke-width="2" stroke-linecap="round" stroke-linejoin="round" stroke-miterlimit="10" d="
				M305.722,200.667c-1.226,1.309-2.552,2.544-3.618,4c-1.636,2.231-2.906,4.721-4.531,6.997c-1.44,2.017-3.193,3.914-4.852,5.746
				c-0.87,0.962-2.132,1.731-2.875,2.757"/>
			<path fill="none" stroke="#FCFAFA" stroke-width="2" stroke-linecap="round" stroke-linejoin="round" stroke-miterlimit="10" d="
				M309.347,203.417c-1,1.977-5.648,3.613-7.627,4.625c-2.971,1.517-5.492,3.651-8.252,5.465c-2.417,1.589-5.125,2.864-7.746,4.035"
				/>
			<path fill="none" stroke="#FCFAFA" stroke-width="2" stroke-linecap="round" stroke-linejoin="round" stroke-miterlimit="10" d="
				M284.722,214.417c2.854-0.57,5.595-2.445,8.406-3.344c2.924-0.935,5.668-0.653,8.693-0.656c1.964-0.002,3.856-0.094,5.775,0
				c1.114,0.054,3.073,0.271,4-0.125"/>
			<path fill="none" stroke="#FCFAFA" stroke-width="2" stroke-linecap="round" stroke-linejoin="round" stroke-miterlimit="10" d="
				M311.347,205.792c-3.305,1.012-6.74,2.443-9.747,4.223c-1.415,0.836-2.852,1.887-4.128,2.906
				c-1.159,0.925-2.762,1.724-3.75,2.746"/>
		</g>
		<g>

				<line fill="none" stroke="#FCFAFA" stroke-width="2" stroke-miterlimit="10" x1="641.912" y1="33.305" x2="641.912" y2="252.513"/>
			<path fill="none" stroke="#FCFAFA" stroke-width="2" stroke-linejoin="round" stroke-miterlimit="10" d="M641.861,32.026
				c-4.357-6.78,2.049-17.659,3.664-24.565c0.439,3.927-0.307,8.633-0.664,12.565c-0.34,3.724,0.391,9.138-2,12"/>
			<path fill="none" stroke="#FCFAFA" stroke-width="2" stroke-linecap="round" stroke-linejoin="round" stroke-miterlimit="10" d="
				M641.902,33.542c-8.016-0.863-12.465-12.678-16.828-18.271c3.334,2.122,6.529,5.656,9.367,8.404
				c2.686,2.6,7.357,5.43,8.088,9.088"/>
			<path fill="none" stroke="#FCFAFA" stroke-width="2" stroke-linejoin="round" stroke-miterlimit="10" d="M641.289,33.859
				c-5.898,5.495-17.742,1.128-24.826,0.769c3.785-1.132,8.549-1.235,12.482-1.582c3.725-0.331,8.922-2.012,12.166-0.17"/>
			<path fill="none" stroke="#FCFAFA" stroke-width="2" stroke-linejoin="round" stroke-miterlimit="10" d="M643.013,34.178
				c-0.936,8.007-12.791,12.348-18.422,16.659c2.152-3.313,5.715-6.478,8.488-9.288c2.625-2.664,5.498-7.31,9.162-8.007"/>
			<path fill="none" stroke="#FCFAFA" stroke-width="2" stroke-linejoin="round" stroke-miterlimit="10" d="M643.89,32.026
				c5.293,6.08,0.527,17.771-0.07,24.839c-1.004-3.821-0.945-8.587-1.16-12.529c-0.205-3.734-1.709-8.985,0.24-12.165"/>
			<path fill="none" stroke="#FCFAFA" stroke-width="2" stroke-linejoin="round" stroke-miterlimit="10" d="M643.572,32.026
				c8.061,0.159,13.523,11.539,18.359,16.729c-3.506-1.822-6.998-5.064-10.062-7.553c-2.906-2.354-7.809-4.767-8.855-8.347"/>
			<path fill="none" stroke="#FCFAFA" stroke-width="2" stroke-linejoin="round" stroke-miterlimit="10" d="M643.013,31.556
				c3.99-7.005,16.6-6.37,23.469-8.14c-3.275,2.208-7.793,3.729-11.441,5.233c-3.457,1.428-7.918,4.581-11.562,3.792"/>
			<path fill="none" stroke="#FCFAFA" stroke-width="2" stroke-linecap="round" stroke-linejoin="round" stroke-miterlimit="10" d="
				M641.912,96.828c-2.266-9.788-11.529-16.329-17.141-24.29c-5.373-7.621-7.154-16.379-8.561-25.307
				c-0.188-1.183-0.291-3.189-0.922-4.052c-1.631,8.562,0.275,17.26,1.744,25.58c1.723,9.765,7.324,21.514,15.59,27.607
				c2.104,1.552,6.365,4.58,9.086,3.514"/>
			<path fill="none" stroke="#FCFAFA" stroke-width="2" stroke-linecap="round" stroke-linejoin="round" stroke-miterlimit="10" d="
				M642.529,103.161c2.857-3.114,3.592-9.021,4.016-13.128c0.691-6.684,1.977-12.18,4.648-18.304
				c2.428-5.565,5.586-13.234,9.729-17.529c-2.244,4.158-2.205,9.78-2.604,14.474c-0.52,6.102-0.182,12.157-1.244,18.236
				c-0.779,4.454-2.244,11.646-5.457,14.951c-2.336,2.404-5.979,2.3-9.088,2.3"/>
		</g>
		<g>

				<line fill="none" stroke="#FCFAFA" stroke-width="2" stroke-linecap="round" stroke-linejoin="round" stroke-miterlimit="10" x1="502.539" y1="119.448" x2="502.539" y2="252.513"/>
			<path fill="none" stroke="#FCFAFA" stroke-width="2" stroke-linecap="round" stroke-linejoin="round" stroke-miterlimit="10" d="
				M502.5,85.7c2.467-0.915,6.229,1.63,4.811,4.312c-2.16,4.088-4.258-2.008-4.561-3.812"/>
			<path fill="none" stroke="#FCFAFA" stroke-width="2" stroke-linecap="round" stroke-linejoin="round" stroke-miterlimit="10" d="
				M501.5,85.7c0.258,2.598-2.24,8.368-5.699,4.938c-3.49-3.461,3.391-5.127,5.449-5.188"/>
			<path fill="none" stroke="#FCFAFA" stroke-width="2" stroke-linecap="round" stroke-linejoin="round" stroke-miterlimit="10" d="
				M502.5,86.45c0.625,2.176,5.799,8.255,1.512,9.513c-1.984,0.583-4.111-1.528-4.506-3.258c-0.445-1.961,0.83-3.365,1.744-5.005"/>
			<path fill="none" stroke="#FCFAFA" stroke-width="2" stroke-linecap="round" stroke-linejoin="round" stroke-miterlimit="10" d="
				M501.5,84.45c-2.047-1.854-10.205,0.353-6.75,3"/>
			<path fill="none" stroke="#FCFAFA" stroke-width="2" stroke-linecap="round" stroke-linejoin="round" stroke-miterlimit="10" d="
				M502.25,84.45c1.344-5.562,9.402,2.12,5.75,3.25"/>
			<path fill="none" stroke="#FCFAFA" stroke-width="2" stroke-linecap="round" stroke-linejoin="round" stroke-miterlimit="10" d="
				M494,84.45c-5.236-1.97-5.309,8.409,0.25,5.75"/>
			<path fill="none" stroke="#FCFAFA" stroke-width="2" stroke-linecap="round" stroke-linejoin="round" stroke-miterlimit="10" d="
				M509.5,85.95c3.295,1.772,1.664,6.486-2.25,6"/>
			<path fill="none" stroke="#FCFAFA" stroke-width="2" stroke-linecap="round" stroke-linejoin="round" stroke-miterlimit="10" d="
				M493.265,91.2c-1.475,3.039,4.359,6.864,6.438,3.807"/>
			<path fill="none" stroke="#FCFAFA" stroke-width="2" stroke-linecap="round" stroke-linejoin="round" stroke-miterlimit="10" d="
				M505.75,92.95c-0.051,0.987,0.414,1.724,1.242,2.146c1.277,0.108,3.078,0.376,4.326-0.576c1.209-0.921,1.918-3.12,0.182-4.068"/>
			<path fill="none" stroke="#FCFAFA" stroke-width="2" stroke-linecap="round" stroke-linejoin="round" stroke-miterlimit="10" d="
				M490.427,89.451c-3.105-0.263-4.047,3.709-2.74,5.757c1.164,1.824,5.754,3.188,5.797-0.185"/>
			<path fill="none" stroke="#FCFAFA" stroke-width="2" stroke-linecap="round" stroke-linejoin="round" stroke-miterlimit="10" d="
				M493.949,95.198c-2.932,1.16-1.146,5.246,1.236,6.013c2.928,0.94,6.625-1.714,5.264-4.763"/>
			<path fill="none" stroke="#FCFAFA" stroke-width="2" stroke-linecap="round" stroke-linejoin="round" stroke-miterlimit="10" d="
				M501.5,96.2c-2.654,5.364,10.537,7.303,6.25-0.5"/>
			<path fill="none" stroke="#FCFAFA" stroke-width="2" stroke-linecap="round" stroke-linejoin="round" stroke-miterlimit="10" d="
				M508.75,95.45c0.789,2.439,4.799,4.31,6.998,2.5c2.592-2.132,0.275-5.667-2.498-6"/>
			<path fill="none" stroke="#FCFAFA" stroke-width="2" stroke-linecap="round" stroke-linejoin="round" stroke-miterlimit="10" d="
				M487.75,96.45c-3.75,4.135,4.863,8.25,6.25,4.75"/>
			<path fill="none" stroke="#FCFAFA" stroke-width="2" stroke-linecap="round" stroke-linejoin="round" stroke-miterlimit="10" d="
				M494,101.45c-1.195,6.659,10.92,5.592,9.25,0.25"/>
			<path fill="none" stroke="#FCFAFA" stroke-width="2" stroke-linecap="round" stroke-linejoin="round" stroke-miterlimit="10" d="
				M503.75,101.45c-0.6,2.592,3.1,5.005,5.311,4.062c2.525-1.078,1.809-4.282-0.061-5.562"/>
			<path fill="none" stroke="#FCFAFA" stroke-width="2" stroke-linecap="round" stroke-linejoin="round" stroke-miterlimit="10" d="
				M509,98.95c1.059,2.297,3.801,4.801,6.506,4.256c2.58-0.521,4.527-4.706,1.494-6.006"/>
			<path fill="none" stroke="#FCFAFA" stroke-width="2" stroke-linecap="round" stroke-linejoin="round" stroke-miterlimit="10" d="
				M511.75,87.45c1.564,0.011,2.84-0.259,3.811,1.188c0.781,1.162,0.572,2.637-0.811,3.312"/>
			<path fill="none" stroke="#FCFAFA" stroke-width="2" stroke-linecap="round" stroke-linejoin="round" stroke-miterlimit="10" d="
				M516.25,91.2c3.566-1.576,5.18,4.633,2,6"/>
			<path fill="none" stroke="#FCFAFA" stroke-width="2" stroke-linecap="round" stroke-linejoin="round" stroke-miterlimit="10" d="
				M486.5,94.45c-6.859,1.379-2.574,10.755,2,7.75"/>
			<path fill="none" stroke="#FCFAFA" stroke-width="2" stroke-linecap="round" stroke-linejoin="round" stroke-miterlimit="10" d="
				M488.75,102.2c-4.727,5.547,6.268,9.715,7.25,4.5"/>
			<path fill="none" stroke="#FCFAFA" stroke-width="2" stroke-linecap="round" stroke-linejoin="round" stroke-miterlimit="10" d="
				M496.75,105.95c-1.812,9.188,11.836,3.854,7.25-1"/>
			<path fill="none" stroke="#FCFAFA" stroke-width="2" stroke-linecap="round" stroke-linejoin="round" stroke-miterlimit="10" d="
				M505.25,106.7c0.285,2.745,2.867,4.439,5.438,3.188c2.953-1.438,1.52-3.69,0.312-5.688"/>
			<path fill="none" stroke="#FCFAFA" stroke-width="2" stroke-linecap="round" stroke-linejoin="round" stroke-miterlimit="10" d="
				M511.75,104.45c0.447,1.887,2.328,5.189,4.748,5.005c3.213-0.247,1.975-4.301,0.502-5.755"/>
			<path fill="none" stroke="#FCFAFA" stroke-width="2" stroke-linecap="round" stroke-linejoin="round" stroke-miterlimit="10" d="
				M520.25,95.95c2.926,2.287,1.498,9.294-2.25,7"/>
			<path fill="none" stroke="#FCFAFA" stroke-width="2" stroke-linecap="round" stroke-linejoin="round" stroke-miterlimit="10" d="
				M484.5,103.2c-0.934,2.397-1.592,4.764,0.561,6.938c1.713,1.729,4.816,2.242,6.189-0.188"/>
			<path fill="none" stroke="#FCFAFA" stroke-width="2" stroke-linecap="round" stroke-linejoin="round" stroke-miterlimit="10" d="
				M490.25,111.2c-0.295,3.984,7.275,4.563,7.75,0.25"/>
			<path fill="none" stroke="#FCFAFA" stroke-width="2" stroke-linecap="round" stroke-linejoin="round" stroke-miterlimit="10" d="
				M498,111.2c-1.834,6.018,9.719,6.028,8.75-0.894"/>
			<path fill="none" stroke="#FCFAFA" stroke-width="2" stroke-linecap="round" stroke-linejoin="round" stroke-miterlimit="10" d="
				M511.25,110.45c0.379,2.196-1.785,6.818-4.5,4.25"/>
			<path fill="none" stroke="#FCFAFA" stroke-width="2" stroke-linecap="round" stroke-linejoin="round" stroke-miterlimit="10" d="
				M516,110.45c-0.416,2.448-1.949,3.267-4.5,3"/>
			<path fill="none" stroke="#FCFAFA" stroke-width="2" stroke-linecap="round" stroke-linejoin="round" stroke-miterlimit="10" d="
				M521.5,102.95c4.645,2.627-0.916,10.591-4.75,7.5"/>
			<path fill="none" stroke="#FCFAFA" stroke-width="2" stroke-linecap="round" stroke-linejoin="round" stroke-miterlimit="10" d="
				M508.5,84.2c3.057-2.01,6.672,1.83,4,2.75"/>
			<path fill="none" stroke="#FCFAFA" stroke-width="2" stroke-linecap="round" stroke-linejoin="round" stroke-miterlimit="10" d="
				M485.25,111.2c-1.504,6.253,7.334,11.186,9.75,4.25"/>
			<path fill="none" stroke="#FCFAFA" stroke-width="2" stroke-linecap="round" stroke-linejoin="round" stroke-miterlimit="10" d="
				M495.5,114.7c-0.406,2.926-0.059,4.976,3.236,5.763c2.697,0.645,4.887-0.996,4.514-3.763"/>
			<path fill="none" stroke="#FCFAFA" stroke-width="2" stroke-linecap="round" stroke-linejoin="round" stroke-miterlimit="10" d="
				M504,116.45c-0.58,4.089,8.396,3.6,7-1.75"/>
			<path fill="none" stroke="#FCFAFA" stroke-width="2" stroke-linecap="round" stroke-linejoin="round" stroke-miterlimit="10" d="
				M523.5,108.7c0.379,2.229,0.396,5.076-1.758,6.438c-2.148,1.355-5.121,0.68-6.492-1.438"/>
			<path fill="none" stroke="#FCFAFA" stroke-width="2" stroke-linecap="round" stroke-linejoin="round" stroke-miterlimit="10" d="
				M511.5,115.45c-0.303,4.145,5.863,5.294,6.25,1"/>
			<path fill="none" stroke="#FCFAFA" stroke-width="2" stroke-linecap="round" stroke-linejoin="round" stroke-miterlimit="10" d="
				M489.75,86.2c-1.68-0.781-4.186,0.675-4.943,2.307c-0.938,2.017,0.152,4.141,0.943,5.943"/>
			<path fill="none" stroke="#FCFAFA" stroke-width="2" stroke-linecap="round" stroke-linejoin="round" stroke-miterlimit="10" d="
				M483.75,91.95c-1.67,0.085-3.24,1.407-3.764,2.985c-0.652,1.962,0.668,3.131,1.299,4.701c0.396,0.153,1.697,0.409,2.053,0.604"/>
			<path fill="none" stroke="#FCFAFA" stroke-width="2" stroke-linecap="round" stroke-linejoin="round" stroke-miterlimit="10" d="
				M481.5,99.95c-4.807,0.542-1.715,8.562,2,8.25"/>
			<path fill="none" stroke="#FCFAFA" stroke-width="2" stroke-linecap="round" stroke-linejoin="round" stroke-miterlimit="10" d="
				M513.75,85.45c3.785-1.517,7.607,2.147,5.5,6"/>
			<path fill="none" stroke="#FCFAFA" stroke-width="2" stroke-linecap="round" stroke-linejoin="round" stroke-miterlimit="10" d="
				M520,90.45c4.137-0.56,6.619,5.668,2.25,7"/>
			<path fill="none" stroke="#FCFAFA" stroke-width="2" stroke-linecap="round" stroke-linejoin="round" stroke-miterlimit="10" d="
				M522.75,97.2c6.152-0.521,6.604,7.718,1.5,9.75"/>
			<path fill="none" stroke="#FCFAFA" stroke-width="2" stroke-linecap="round" stroke-linejoin="round" stroke-miterlimit="10" d="
				M526,106.2c1.008,2.349-0.188,5.019-2.5,6.25"/>
			<path fill="none" stroke="#FCFAFA" stroke-width="2" stroke-linecap="round" stroke-linejoin="round" stroke-miterlimit="10" d="
				M480.75,107.7c-2.988,3.823,1.342,7.723,4.955,8.75"/>
			<path fill="none" stroke="#FCFAFA" stroke-width="2" stroke-linecap="round" stroke-linejoin="round" stroke-miterlimit="10" d="
				M502.25,143.7c-0.4-1.295-2.041-1.739-3.619-1.456c-1.543,1.926,0.926,5.273,3.619,3.956"/>
			<path fill="none" stroke="#FCFAFA" stroke-width="2" stroke-linecap="round" stroke-linejoin="round" stroke-miterlimit="10" d="
				M502.75,142.95c1.064-1.812,4.877-2.283,4.262,0.763c-0.514,2.553-3.463,1.873-4.262-0.013"/>
			<path fill="none" stroke="#FCFAFA" stroke-width="2" stroke-linecap="round" stroke-linejoin="round" stroke-miterlimit="10" d="
				M502,132.95c-0.752-1.438-2.178-1.91-3.707-1.706c-2.09,3.017,2.508,6.019,3.957,2.456"/>
			<path fill="none" stroke="#FCFAFA" stroke-width="2" stroke-linecap="round" stroke-linejoin="round" stroke-miterlimit="10" d="
				M502.75,153.95c-0.148-2.305-3.492-2.493-4.021-0.035c-0.447,2.089,2.504,5.565,3.521,3.27"/>
			<path fill="none" stroke="#FCFAFA" stroke-width="2" stroke-linecap="round" stroke-linejoin="round" stroke-miterlimit="10" d="
				M503,155.45c2.365-1.308,5.947,0.938,3.938,3.438c-2.109,2.621-4.078-0.85-4.438-2.688"/>
		</g>
		<g>

				<line fill="none" stroke="#FCFAFA" stroke-width="2" stroke-linecap="round" stroke-linejoin="round" stroke-miterlimit="10" x1="420.441" y1="105.698" x2="420.441" y2="252.807"/>
			<path fill="none" stroke="#FCFAFA" stroke-width="2" stroke-linecap="round" stroke-linejoin="round" stroke-miterlimit="10" d="
				M420.4,71.95c2.467-0.915,6.229,1.63,4.812,4.312c-2.162,4.088-4.258-2.008-4.562-3.812"/>
			<path fill="none" stroke="#FCFAFA" stroke-width="2" stroke-linecap="round" stroke-linejoin="round" stroke-miterlimit="10" d="
				M419.4,71.95c0.258,2.598-2.238,8.368-5.699,4.938c-3.488-3.461,3.391-5.127,5.449-5.188"/>
			<path fill="none" stroke="#FCFAFA" stroke-width="2" stroke-linecap="round" stroke-linejoin="round" stroke-miterlimit="10" d="
				M420.4,72.7c0.627,2.176,5.799,8.255,1.514,9.513c-1.986,0.583-4.113-1.528-4.506-3.258c-0.445-1.961,0.828-3.365,1.742-5.005"/>
			<path fill="none" stroke="#FCFAFA" stroke-width="2" stroke-linecap="round" stroke-linejoin="round" stroke-miterlimit="10" d="
				M419.4,70.7c-2.047-1.854-10.205,0.353-6.75,3"/>
			<path fill="none" stroke="#FCFAFA" stroke-width="2" stroke-linecap="round" stroke-linejoin="round" stroke-miterlimit="10" d="
				M420.15,70.7c1.346-5.562,9.402,2.12,5.75,3.25"/>
			<path fill="none" stroke="#FCFAFA" stroke-width="2" stroke-linecap="round" stroke-linejoin="round" stroke-miterlimit="10" d="
				M411.9,70.7c-5.234-1.97-5.309,8.409,0.25,5.75"/>
			<path fill="none" stroke="#FCFAFA" stroke-width="2" stroke-linecap="round" stroke-linejoin="round" stroke-miterlimit="10" d="
				M427.4,72.2c3.295,1.772,1.664,6.486-2.25,6"/>
			<path fill="none" stroke="#FCFAFA" stroke-width="2" stroke-linecap="round" stroke-linejoin="round" stroke-miterlimit="10" d="
				M411.166,77.45c-1.473,3.039,4.359,6.864,6.438,3.807"/>
			<path fill="none" stroke="#FCFAFA" stroke-width="2" stroke-linecap="round" stroke-linejoin="round" stroke-miterlimit="10" d="
				M423.65,79.2c-0.051,0.987,0.414,1.724,1.242,2.146c1.279,0.108,3.078,0.376,4.326-0.576c1.209-0.921,1.918-3.12,0.182-4.068"/>
			<path fill="none" stroke="#FCFAFA" stroke-width="2" stroke-linecap="round" stroke-linejoin="round" stroke-miterlimit="10" d="
				M408.328,75.701c-3.105-0.263-4.045,3.709-2.738,5.757c1.164,1.824,5.752,3.188,5.795-0.185"/>
			<path fill="none" stroke="#FCFAFA" stroke-width="2" stroke-linecap="round" stroke-linejoin="round" stroke-miterlimit="10" d="
				M411.851,81.448c-2.932,1.16-1.146,5.246,1.236,6.013c2.928,0.94,6.625-1.714,5.264-4.763"/>
			<path fill="none" stroke="#FCFAFA" stroke-width="2" stroke-linecap="round" stroke-linejoin="round" stroke-miterlimit="10" d="
				M419.4,82.45c-2.654,5.364,10.537,7.303,6.25-0.5"/>
			<path fill="none" stroke="#FCFAFA" stroke-width="2" stroke-linecap="round" stroke-linejoin="round" stroke-miterlimit="10" d="
				M426.65,81.7c0.789,2.439,4.799,4.31,7,2.5c2.592-2.132,0.273-5.667-2.5-6"/>
			<path fill="none" stroke="#FCFAFA" stroke-width="2" stroke-linecap="round" stroke-linejoin="round" stroke-miterlimit="10" d="
				M405.65,82.7c-3.748,4.135,4.863,8.25,6.25,4.75"/>
			<path fill="none" stroke="#FCFAFA" stroke-width="2" stroke-linecap="round" stroke-linejoin="round" stroke-miterlimit="10" d="
				M411.9,87.7c-1.193,6.659,10.92,5.592,9.25,0.25"/>
			<path fill="none" stroke="#FCFAFA" stroke-width="2" stroke-linecap="round" stroke-linejoin="round" stroke-miterlimit="10" d="
				M421.65,87.7c-0.6,2.592,3.102,5.005,5.312,4.062c2.525-1.078,1.807-4.282-0.062-5.562"/>
			<path fill="none" stroke="#FCFAFA" stroke-width="2" stroke-linecap="round" stroke-linejoin="round" stroke-miterlimit="10" d="
				M426.9,85.2c1.059,2.297,3.803,4.801,6.506,4.256c2.582-0.521,4.527-4.706,1.494-6.006"/>
			<path fill="none" stroke="#FCFAFA" stroke-width="2" stroke-linecap="round" stroke-linejoin="round" stroke-miterlimit="10" d="
				M429.65,73.7c1.564,0.011,2.842-0.259,3.812,1.188c0.781,1.162,0.57,2.637-0.812,3.312"/>
			<path fill="none" stroke="#FCFAFA" stroke-width="2" stroke-linecap="round" stroke-linejoin="round" stroke-miterlimit="10" d="
				M434.15,77.45c3.566-1.576,5.182,4.633,2,6"/>
			<path fill="none" stroke="#FCFAFA" stroke-width="2" stroke-linecap="round" stroke-linejoin="round" stroke-miterlimit="10" d="
				M404.4,80.7c-6.859,1.379-2.574,10.755,2,7.75"/>
			<path fill="none" stroke="#FCFAFA" stroke-width="2" stroke-linecap="round" stroke-linejoin="round" stroke-miterlimit="10" d="
				M406.65,88.45c-4.727,5.547,6.268,9.715,7.25,4.5"/>
			<path fill="none" stroke="#FCFAFA" stroke-width="2" stroke-linecap="round" stroke-linejoin="round" stroke-miterlimit="10" d="
				M414.65,92.2c-1.812,9.188,11.836,3.854,7.25-1"/>
			<path fill="none" stroke="#FCFAFA" stroke-width="2" stroke-linecap="round" stroke-linejoin="round" stroke-miterlimit="10" d="
				M423.15,92.95c0.285,2.745,2.867,4.439,5.438,3.188c2.955-1.438,1.521-3.69,0.312-5.688"/>
			<path fill="none" stroke="#FCFAFA" stroke-width="2" stroke-linecap="round" stroke-linejoin="round" stroke-miterlimit="10" d="
				M429.65,90.7c0.447,1.887,2.328,5.189,4.75,5.005c3.213-0.247,1.975-4.301,0.5-5.755"/>
			<path fill="none" stroke="#FCFAFA" stroke-width="2" stroke-linecap="round" stroke-linejoin="round" stroke-miterlimit="10" d="
				M438.15,82.2c2.926,2.287,1.5,9.294-2.25,7"/>
			<path fill="none" stroke="#FCFAFA" stroke-width="2" stroke-linecap="round" stroke-linejoin="round" stroke-miterlimit="10" d="
				M402.4,89.45c-0.934,2.397-1.592,4.764,0.562,6.938c1.711,1.729,4.814,2.242,6.188-0.188"/>
			<path fill="none" stroke="#FCFAFA" stroke-width="2" stroke-linecap="round" stroke-linejoin="round" stroke-miterlimit="10" d="
				M408.15,97.45c-0.295,3.984,7.275,4.563,7.75,0.25"/>
			<path fill="none" stroke="#FCFAFA" stroke-width="2" stroke-linecap="round" stroke-linejoin="round" stroke-miterlimit="10" d="
				M415.9,97.45c-1.834,6.018,9.719,6.028,8.75-0.894"/>
			<path fill="none" stroke="#FCFAFA" stroke-width="2" stroke-linecap="round" stroke-linejoin="round" stroke-miterlimit="10" d="
				M429.15,96.7c0.379,2.196-1.783,6.818-4.5,4.25"/>
			<path fill="none" stroke="#FCFAFA" stroke-width="2" stroke-linecap="round" stroke-linejoin="round" stroke-miterlimit="10" d="
				M433.9,96.7c-0.414,2.448-1.949,3.267-4.5,3"/>
			<path fill="none" stroke="#FCFAFA" stroke-width="2" stroke-linecap="round" stroke-linejoin="round" stroke-miterlimit="10" d="
				M439.4,89.2c4.645,2.627-0.916,10.591-4.75,7.5"/>
			<path fill="none" stroke="#FCFAFA" stroke-width="2" stroke-linecap="round" stroke-linejoin="round" stroke-miterlimit="10" d="
				M426.4,70.45c3.057-2.01,6.672,1.83,4,2.75"/>
			<path fill="none" stroke="#FCFAFA" stroke-width="2" stroke-linecap="round" stroke-linejoin="round" stroke-miterlimit="10" d="
				M403.15,97.45c-1.504,6.253,7.334,11.186,9.75,4.25"/>
			<path fill="none" stroke="#FCFAFA" stroke-width="2" stroke-linecap="round" stroke-linejoin="round" stroke-miterlimit="10" d="
				M413.4,100.95c-0.404,2.926-0.059,4.976,3.236,5.763c2.699,0.645,4.889-0.996,4.514-3.763"/>
			<path fill="none" stroke="#FCFAFA" stroke-width="2" stroke-linecap="round" stroke-linejoin="round" stroke-miterlimit="10" d="
				M421.9,102.7c-0.578,4.089,8.396,3.6,7-1.75"/>
			<path fill="none" stroke="#FCFAFA" stroke-width="2" stroke-linecap="round" stroke-linejoin="round" stroke-miterlimit="10" d="
				M441.4,94.95c0.381,2.229,0.396,5.076-1.758,6.438c-2.146,1.355-5.121,0.68-6.492-1.438"/>
			<path fill="none" stroke="#FCFAFA" stroke-width="2" stroke-linecap="round" stroke-linejoin="round" stroke-miterlimit="10" d="
				M429.4,101.7c-0.303,4.145,5.863,5.294,6.25,1"/>
			<path fill="none" stroke="#FCFAFA" stroke-width="2" stroke-linecap="round" stroke-linejoin="round" stroke-miterlimit="10" d="
				M407.65,72.45c-1.68-0.781-4.186,0.675-4.943,2.307c-0.938,2.017,0.154,4.141,0.943,5.943"/>
			<path fill="none" stroke="#FCFAFA" stroke-width="2" stroke-linecap="round" stroke-linejoin="round" stroke-miterlimit="10" d="
				M401.65,78.2c-1.67,0.085-3.238,1.407-3.764,2.985c-0.65,1.962,0.668,3.131,1.299,4.701c0.396,0.153,1.697,0.409,2.055,0.604"/>
			<path fill="none" stroke="#FCFAFA" stroke-width="2" stroke-linecap="round" stroke-linejoin="round" stroke-miterlimit="10" d="
				M399.4,86.2c-4.807,0.542-1.715,8.562,2,8.25"/>
			<path fill="none" stroke="#FCFAFA" stroke-width="2" stroke-linecap="round" stroke-linejoin="round" stroke-miterlimit="10" d="
				M431.65,71.7c3.785-1.517,7.607,2.147,5.5,6"/>
			<path fill="none" stroke="#FCFAFA" stroke-width="2" stroke-linecap="round" stroke-linejoin="round" stroke-miterlimit="10" d="
				M437.9,76.7c4.139-0.56,6.619,5.668,2.25,7"/>
			<path fill="none" stroke="#FCFAFA" stroke-width="2" stroke-linecap="round" stroke-linejoin="round" stroke-miterlimit="10" d="
				M440.65,83.45c6.152-0.521,6.605,7.718,1.5,9.75"/>
			<path fill="none" stroke="#FCFAFA" stroke-width="2" stroke-linecap="round" stroke-linejoin="round" stroke-miterlimit="10" d="
				M443.9,92.45c1.008,2.349-0.188,5.019-2.5,6.25"/>
			<path fill="none" stroke="#FCFAFA" stroke-width="2" stroke-linecap="round" stroke-linejoin="round" stroke-miterlimit="10" d="
				M398.65,93.95c-2.986,3.823,1.344,7.723,4.955,8.75"/>
			<path fill="none" stroke="#FCFAFA" stroke-width="2" stroke-linecap="round" stroke-linejoin="round" stroke-miterlimit="10" d="
				M420.15,129.95c-0.398-1.295-2.041-1.739-3.619-1.456c-1.541,1.926,0.928,5.273,3.619,3.956"/>
			<path fill="none" stroke="#FCFAFA" stroke-width="2" stroke-linecap="round" stroke-linejoin="round" stroke-miterlimit="10" d="
				M420.65,129.2c1.064-1.812,4.879-2.283,4.264,0.763c-0.516,2.553-3.463,1.873-4.264-0.013"/>
			<path fill="none" stroke="#FCFAFA" stroke-width="2" stroke-linecap="round" stroke-linejoin="round" stroke-miterlimit="10" d="
				M419.9,119.2c-0.75-1.438-2.178-1.91-3.705-1.706c-2.092,3.017,2.506,6.019,3.955,2.456"/>
			<path fill="none" stroke="#FCFAFA" stroke-width="2" stroke-linecap="round" stroke-linejoin="round" stroke-miterlimit="10" d="
				M420.65,140.2c-0.148-2.305-3.49-2.493-4.02-0.035c-0.449,2.089,2.502,5.565,3.52,3.27"/>
			<path fill="none" stroke="#FCFAFA" stroke-width="2" stroke-linecap="round" stroke-linejoin="round" stroke-miterlimit="10" d="
				M420.9,141.7c2.365-1.308,5.947,0.938,3.938,3.438c-2.109,2.621-4.078-0.85-4.438-2.688"/>
		</g>
		<g>

				<line fill="none" stroke="#FCFAFA" stroke-width="2" stroke-linecap="round" stroke-linejoin="round" stroke-miterlimit="10" x1="368.828" y1="37.998" x2="368.828" y2="252.139"/>
			<path fill="none" stroke="#FCFAFA" stroke-width="2" stroke-linecap="round" stroke-linejoin="round" stroke-miterlimit="10" d="
				M368.787,4.25c2.467-0.915,6.229,1.63,4.812,4.312c-2.162,4.088-4.258-2.008-4.562-3.812"/>
			<path fill="none" stroke="#FCFAFA" stroke-width="2" stroke-linecap="round" stroke-linejoin="round" stroke-miterlimit="10" d="
				M367.787,4.25c0.258,2.598-2.238,8.369-5.699,4.938c-3.488-3.461,3.391-5.127,5.449-5.188"/>
			<path fill="none" stroke="#FCFAFA" stroke-width="2" stroke-linecap="round" stroke-linejoin="round" stroke-miterlimit="10" d="
				M368.787,5c0.627,2.176,5.799,8.255,1.514,9.513c-1.985,0.583-4.112-1.528-4.506-3.258c-0.445-1.961,0.828-3.365,1.742-5.005"/>
			<path fill="none" stroke="#FCFAFA" stroke-width="2" stroke-linecap="round" stroke-linejoin="round" stroke-miterlimit="10" d="
				M367.787,3c-2.047-1.854-10.205,0.353-6.75,3"/>
			<path fill="none" stroke="#FCFAFA" stroke-width="2" stroke-linecap="round" stroke-linejoin="round" stroke-miterlimit="10" d="
				M368.537,3c1.346-5.562,9.402,2.121,5.75,3.25"/>
			<path fill="none" stroke="#FCFAFA" stroke-width="2" stroke-linecap="round" stroke-linejoin="round" stroke-miterlimit="10" d="
				M360.287,3c-5.234-1.969-5.309,8.41,0.25,5.75"/>
			<path fill="none" stroke="#FCFAFA" stroke-width="2" stroke-linecap="round" stroke-linejoin="round" stroke-miterlimit="10" d="
				M375.787,4.5c3.295,1.772,1.664,6.486-2.25,6"/>
			<path fill="none" stroke="#FCFAFA" stroke-width="2" stroke-linecap="round" stroke-linejoin="round" stroke-miterlimit="10" d="
				M359.552,9.75c-1.473,3.039,4.359,6.865,6.438,3.807"/>
			<path fill="none" stroke="#FCFAFA" stroke-width="2" stroke-linecap="round" stroke-linejoin="round" stroke-miterlimit="10" d="
				M372.037,11.5c-0.05,0.987,0.414,1.724,1.244,2.146c1.277,0.108,3.077,0.376,4.325-0.576c1.208-0.921,1.917-3.119,0.181-4.068"/>
			<path fill="none" stroke="#FCFAFA" stroke-width="2" stroke-linecap="round" stroke-linejoin="round" stroke-miterlimit="10" d="
				M356.714,8.001c-3.104-0.262-4.045,3.709-2.738,5.757c1.164,1.824,5.753,3.188,5.796-0.184"/>
			<path fill="none" stroke="#FCFAFA" stroke-width="2" stroke-linecap="round" stroke-linejoin="round" stroke-miterlimit="10" d="
				M360.237,13.748c-2.931,1.161-1.146,5.247,1.237,6.013c2.927,0.941,6.624-1.714,5.263-4.763"/>
			<path fill="none" stroke="#FCFAFA" stroke-width="2" stroke-linecap="round" stroke-linejoin="round" stroke-miterlimit="10" d="
				M367.787,14.75c-2.654,5.365,10.539,7.303,6.25-0.5"/>
			<path fill="none" stroke="#FCFAFA" stroke-width="2" stroke-linecap="round" stroke-linejoin="round" stroke-miterlimit="10" d="
				M375.037,14c0.789,2.439,4.799,4.31,7,2.5c2.592-2.131,0.274-5.667-2.5-6"/>
			<path fill="none" stroke="#FCFAFA" stroke-width="2" stroke-linecap="round" stroke-linejoin="round" stroke-miterlimit="10" d="
				M354.037,15c-3.748,4.135,4.864,8.25,6.25,4.75"/>
			<path fill="none" stroke="#FCFAFA" stroke-width="2" stroke-linecap="round" stroke-linejoin="round" stroke-miterlimit="10" d="
				M360.287,20c-1.193,6.66,10.92,5.592,9.25,0.25"/>
			<path fill="none" stroke="#FCFAFA" stroke-width="2" stroke-linecap="round" stroke-linejoin="round" stroke-miterlimit="10" d="
				M370.037,20c-0.599,2.592,3.102,5.005,5.312,4.062c2.525-1.078,1.807-4.281-0.062-5.562"/>
			<path fill="none" stroke="#FCFAFA" stroke-width="2" stroke-linecap="round" stroke-linejoin="round" stroke-miterlimit="10" d="
				M375.287,17.5c1.059,2.297,3.803,4.801,6.506,4.256c2.582-0.521,4.527-4.706,1.494-6.006"/>
			<path fill="none" stroke="#FCFAFA" stroke-width="2" stroke-linecap="round" stroke-linejoin="round" stroke-miterlimit="10" d="
				M378.037,6c1.565,0.011,2.842-0.258,3.812,1.188c0.781,1.162,0.57,2.638-0.812,3.312"/>
			<path fill="none" stroke="#FCFAFA" stroke-width="2" stroke-linecap="round" stroke-linejoin="round" stroke-miterlimit="10" d="
				M382.537,9.75c3.566-1.576,5.182,4.633,2,6"/>
			<path fill="none" stroke="#FCFAFA" stroke-width="2" stroke-linecap="round" stroke-linejoin="round" stroke-miterlimit="10" d="
				M352.787,13c-6.859,1.379-2.574,10.755,2,7.75"/>
			<path fill="none" stroke="#FCFAFA" stroke-width="2" stroke-linecap="round" stroke-linejoin="round" stroke-miterlimit="10" d="
				M355.037,20.75c-4.726,5.547,6.269,9.715,7.25,4.5"/>
			<path fill="none" stroke="#FCFAFA" stroke-width="2" stroke-linecap="round" stroke-linejoin="round" stroke-miterlimit="10" d="
				M363.037,24.5c-1.812,9.188,11.836,3.854,7.25-1"/>
			<path fill="none" stroke="#FCFAFA" stroke-width="2" stroke-linecap="round" stroke-linejoin="round" stroke-miterlimit="10" d="
				M371.537,25.25c0.285,2.746,2.869,4.439,5.438,3.188c2.954-1.438,1.521-3.69,0.312-5.688"/>
			<path fill="none" stroke="#FCFAFA" stroke-width="2" stroke-linecap="round" stroke-linejoin="round" stroke-miterlimit="10" d="
				M378.037,23c0.448,1.887,2.328,5.189,4.75,5.005c3.213-0.247,1.975-4.3,0.5-5.755"/>
			<path fill="none" stroke="#FCFAFA" stroke-width="2" stroke-linecap="round" stroke-linejoin="round" stroke-miterlimit="10" d="
				M386.537,14.5c2.926,2.288,1.5,9.294-2.25,7"/>
			<path fill="none" stroke="#FCFAFA" stroke-width="2" stroke-linecap="round" stroke-linejoin="round" stroke-miterlimit="10" d="
				M350.787,21.75c-0.933,2.397-1.592,4.764,0.562,6.938c1.712,1.729,4.814,2.242,6.188-0.188"/>
			<path fill="none" stroke="#FCFAFA" stroke-width="2" stroke-linecap="round" stroke-linejoin="round" stroke-miterlimit="10" d="
				M356.537,29.75c-0.293,3.984,7.275,4.563,7.75,0.25"/>
			<path fill="none" stroke="#FCFAFA" stroke-width="2" stroke-linecap="round" stroke-linejoin="round" stroke-miterlimit="10" d="
				M364.287,29.75c-1.834,6.018,9.719,6.028,8.75-0.894"/>
			<path fill="none" stroke="#FCFAFA" stroke-width="2" stroke-linecap="round" stroke-linejoin="round" stroke-miterlimit="10" d="
				M377.537,29c0.379,2.197-1.783,6.818-4.5,4.25"/>
			<path fill="none" stroke="#FCFAFA" stroke-width="2" stroke-linecap="round" stroke-linejoin="round" stroke-miterlimit="10" d="
				M382.287,29c-0.414,2.449-1.949,3.267-4.5,3"/>
			<path fill="none" stroke="#FCFAFA" stroke-width="2" stroke-linecap="round" stroke-linejoin="round" stroke-miterlimit="10" d="
				M387.787,21.5c4.646,2.627-0.916,10.591-4.75,7.5"/>
			<path fill="none" stroke="#FCFAFA" stroke-width="2" stroke-linecap="round" stroke-linejoin="round" stroke-miterlimit="10" d="
				M374.787,2.75c3.057-2.009,6.672,1.83,4,2.75"/>
			<path fill="none" stroke="#FCFAFA" stroke-width="2" stroke-linecap="round" stroke-linejoin="round" stroke-miterlimit="10" d="
				M351.537,29.75c-1.502,6.253,7.334,11.186,9.75,4.25"/>
			<path fill="none" stroke="#FCFAFA" stroke-width="2" stroke-linecap="round" stroke-linejoin="round" stroke-miterlimit="10" d="
				M361.787,33.25c-0.404,2.926-0.059,4.976,3.237,5.763c2.698,0.646,4.888-0.996,4.513-3.763"/>
			<path fill="none" stroke="#FCFAFA" stroke-width="2" stroke-linecap="round" stroke-linejoin="round" stroke-miterlimit="10" d="
				M370.287,35c-0.578,4.089,8.397,3.6,7-1.75"/>
			<path fill="none" stroke="#FCFAFA" stroke-width="2" stroke-linecap="round" stroke-linejoin="round" stroke-miterlimit="10" d="
				M389.787,27.25c0.381,2.229,0.397,5.077-1.756,6.438c-2.148,1.355-5.123,0.681-6.494-1.438"/>
			<path fill="none" stroke="#FCFAFA" stroke-width="2" stroke-linecap="round" stroke-linejoin="round" stroke-miterlimit="10" d="
				M377.787,34c-0.303,4.145,5.864,5.294,6.25,1"/>
			<path fill="none" stroke="#FCFAFA" stroke-width="2" stroke-linecap="round" stroke-linejoin="round" stroke-miterlimit="10" d="
				M356.037,4.75c-1.679-0.781-4.185,0.675-4.943,2.307c-0.938,2.018,0.154,4.142,0.943,5.943"/>
			<path fill="none" stroke="#FCFAFA" stroke-width="2" stroke-linecap="round" stroke-linejoin="round" stroke-miterlimit="10" d="
				M350.037,10.5c-1.67,0.085-3.239,1.408-3.764,2.985c-0.651,1.963,0.668,3.132,1.3,4.701c0.395,0.153,1.697,0.409,2.053,0.604"/>
			<path fill="none" stroke="#FCFAFA" stroke-width="2" stroke-linecap="round" stroke-linejoin="round" stroke-miterlimit="10" d="
				M347.787,18.5c-4.806,0.542-1.714,8.562,2,8.25"/>
			<path fill="none" stroke="#FCFAFA" stroke-width="2" stroke-linecap="round" stroke-linejoin="round" stroke-miterlimit="10" d="
				M380.037,4c3.787-1.517,7.607,2.147,5.5,6"/>
			<path fill="none" stroke="#FCFAFA" stroke-width="2" stroke-linecap="round" stroke-linejoin="round" stroke-miterlimit="10" d="
				M386.287,9c4.139-0.56,6.621,5.668,2.25,7"/>
			<path fill="none" stroke="#FCFAFA" stroke-width="2" stroke-linecap="round" stroke-linejoin="round" stroke-miterlimit="10" d="
				M389.037,15.75c6.153-0.521,6.605,7.718,1.5,9.75"/>
			<path fill="none" stroke="#FCFAFA" stroke-width="2" stroke-linecap="round" stroke-linejoin="round" stroke-miterlimit="10" d="
				M392.287,24.75c1.008,2.349-0.187,5.019-2.5,6.25"/>
			<path fill="none" stroke="#FCFAFA" stroke-width="2" stroke-linecap="round" stroke-linejoin="round" stroke-miterlimit="10" d="
				M347.037,26.25c-2.987,3.824,1.343,7.723,4.957,8.75"/>
			<path fill="none" stroke="#FCFAFA" stroke-width="2" stroke-linecap="round" stroke-linejoin="round" stroke-miterlimit="10" d="
				M368.537,62.25c-0.398-1.295-2.041-1.739-3.619-1.456c-1.541,1.926,0.928,5.273,3.619,3.956"/>
			<path fill="none" stroke="#FCFAFA" stroke-width="2" stroke-linecap="round" stroke-linejoin="round" stroke-miterlimit="10" d="
				M369.037,61.5c1.065-1.812,4.879-2.283,4.264,0.763c-0.516,2.553-3.463,1.873-4.264-0.013"/>
			<path fill="none" stroke="#FCFAFA" stroke-width="2" stroke-linecap="round" stroke-linejoin="round" stroke-miterlimit="10" d="
				M368.287,51.5c-0.75-1.438-2.177-1.91-3.705-1.706c-2.092,3.017,2.506,6.019,3.955,2.456"/>
			<path fill="none" stroke="#FCFAFA" stroke-width="2" stroke-linecap="round" stroke-linejoin="round" stroke-miterlimit="10" d="
				M369.037,72.5c-0.147-2.305-3.49-2.493-4.02-0.035c-0.449,2.089,2.503,5.566,3.52,3.27"/>
			<path fill="none" stroke="#FCFAFA" stroke-width="2" stroke-linecap="round" stroke-linejoin="round" stroke-miterlimit="10" d="
				M369.287,74c2.366-1.308,5.947,0.938,3.938,3.438c-2.11,2.621-4.078-0.85-4.438-2.688"/>
		</g>
		<g>

				<line fill="none" stroke="#FCFAFA" stroke-width="2" stroke-linecap="round" stroke-linejoin="round" stroke-miterlimit="10" x1="236.243" y1="119.029" x2="236.243" y2="252.094"/>
			<path fill="none" stroke="#FCFAFA" stroke-width="2" stroke-linecap="round" stroke-linejoin="round" stroke-miterlimit="10" d="
				M236.203,85.281c2.467-0.915,6.229,1.63,4.812,4.312c-2.162,4.088-4.258-2.008-4.562-3.812"/>
			<path fill="none" stroke="#FCFAFA" stroke-width="2" stroke-linecap="round" stroke-linejoin="round" stroke-miterlimit="10" d="
				M235.203,85.281c0.258,2.598-2.239,8.368-5.699,4.938c-3.489-3.461,3.39-5.127,5.449-5.188"/>
			<path fill="none" stroke="#FCFAFA" stroke-width="2" stroke-linecap="round" stroke-linejoin="round" stroke-miterlimit="10" d="
				M236.203,86.031c0.626,2.176,5.799,8.255,1.513,9.513c-1.985,0.583-4.112-1.528-4.506-3.258
				c-0.445-1.961,0.829-3.365,1.743-5.005"/>
			<path fill="none" stroke="#FCFAFA" stroke-width="2" stroke-linecap="round" stroke-linejoin="round" stroke-miterlimit="10" d="
				M235.203,84.031c-2.047-1.854-10.205,0.353-6.75,3"/>
			<path fill="none" stroke="#FCFAFA" stroke-width="2" stroke-linecap="round" stroke-linejoin="round" stroke-miterlimit="10" d="
				M235.953,84.031c1.345-5.562,9.402,2.12,5.75,3.25"/>
			<path fill="none" stroke="#FCFAFA" stroke-width="2" stroke-linecap="round" stroke-linejoin="round" stroke-miterlimit="10" d="
				M227.703,84.031c-5.235-1.97-5.309,8.409,0.25,5.75"/>
			<path fill="none" stroke="#FCFAFA" stroke-width="2" stroke-linecap="round" stroke-linejoin="round" stroke-miterlimit="10" d="
				M243.203,85.531c3.295,1.772,1.664,6.486-2.25,6"/>
			<path fill="none" stroke="#FCFAFA" stroke-width="2" stroke-linecap="round" stroke-linejoin="round" stroke-miterlimit="10" d="
				M226.969,90.781c-1.474,3.038,4.359,6.864,6.438,3.807"/>
			<path fill="none" stroke="#FCFAFA" stroke-width="2" stroke-linecap="round" stroke-linejoin="round" stroke-miterlimit="10" d="
				M239.453,92.531c-0.05,0.987,0.414,1.724,1.243,2.146c1.278,0.108,3.078,0.376,4.326-0.576c1.208-0.921,1.917-3.12,0.181-4.068"
				/>
			<path fill="none" stroke="#FCFAFA" stroke-width="2" stroke-linecap="round" stroke-linejoin="round" stroke-miterlimit="10" d="
				M224.131,89.032c-3.105-0.263-4.046,3.709-2.739,5.757c1.164,1.823,5.753,3.188,5.796-0.185"/>
			<path fill="none" stroke="#FCFAFA" stroke-width="2" stroke-linecap="round" stroke-linejoin="round" stroke-miterlimit="10" d="
				M227.653,94.779c-2.931,1.161-1.146,5.247,1.237,6.014c2.927,0.94,6.624-1.714,5.263-4.764"/>
			<path fill="none" stroke="#FCFAFA" stroke-width="2" stroke-linecap="round" stroke-linejoin="round" stroke-miterlimit="10" d="
				M235.203,95.781c-2.654,5.364,10.538,7.303,6.25-0.5"/>
			<path fill="none" stroke="#FCFAFA" stroke-width="2" stroke-linecap="round" stroke-linejoin="round" stroke-miterlimit="10" d="
				M242.453,95.031c0.789,2.439,4.799,4.31,6.999,2.5c2.592-2.132,0.275-5.667-2.499-6"/>
			<path fill="none" stroke="#FCFAFA" stroke-width="2" stroke-linecap="round" stroke-linejoin="round" stroke-miterlimit="10" d="
				M221.453,96.031c-3.749,4.135,4.864,8.25,6.25,4.75"/>
			<path fill="none" stroke="#FCFAFA" stroke-width="2" stroke-linecap="round" stroke-linejoin="round" stroke-miterlimit="10" d="
				M227.703,101.031c-1.194,6.659,10.92,5.592,9.25,0.25"/>
			<path fill="none" stroke="#FCFAFA" stroke-width="2" stroke-linecap="round" stroke-linejoin="round" stroke-miterlimit="10" d="
				M237.453,101.031c-0.599,2.592,3.101,5.005,5.312,4.062c2.525-1.078,1.807-4.282-0.062-5.562"/>
			<path fill="none" stroke="#FCFAFA" stroke-width="2" stroke-linecap="round" stroke-linejoin="round" stroke-miterlimit="10" d="
				M242.703,98.531c1.059,2.297,3.802,4.801,6.506,4.256c2.581-0.521,4.527-4.706,1.494-6.006"/>
			<path fill="none" stroke="#FCFAFA" stroke-width="2" stroke-linecap="round" stroke-linejoin="round" stroke-miterlimit="10" d="
				M245.453,87.031c1.565,0.011,2.841-0.259,3.812,1.188c0.781,1.162,0.571,2.637-0.812,3.312"/>
			<path fill="none" stroke="#FCFAFA" stroke-width="2" stroke-linecap="round" stroke-linejoin="round" stroke-miterlimit="10" d="
				M249.953,90.781c3.566-1.576,5.181,4.633,2,6"/>
			<path fill="none" stroke="#FCFAFA" stroke-width="2" stroke-linecap="round" stroke-linejoin="round" stroke-miterlimit="10" d="
				M220.203,94.031c-6.859,1.379-2.574,10.755,2,7.75"/>
			<path fill="none" stroke="#FCFAFA" stroke-width="2" stroke-linecap="round" stroke-linejoin="round" stroke-miterlimit="10" d="
				M222.453,101.781c-4.726,5.547,6.268,9.715,7.25,4.5"/>
			<path fill="none" stroke="#FCFAFA" stroke-width="2" stroke-linecap="round" stroke-linejoin="round" stroke-miterlimit="10" d="
				M230.453,105.531c-1.812,9.188,11.836,3.854,7.25-1"/>
			<path fill="none" stroke="#FCFAFA" stroke-width="2" stroke-linecap="round" stroke-linejoin="round" stroke-miterlimit="10" d="
				M238.953,106.281c0.285,2.745,2.868,4.439,5.438,3.188c2.954-1.438,1.52-3.691,0.312-5.688"/>
			<path fill="none" stroke="#FCFAFA" stroke-width="2" stroke-linecap="round" stroke-linejoin="round" stroke-miterlimit="10" d="
				M245.453,104.031c0.448,1.887,2.328,5.189,4.749,5.005c3.213-0.247,1.975-4.301,0.501-5.755"/>
			<path fill="none" stroke="#FCFAFA" stroke-width="2" stroke-linecap="round" stroke-linejoin="round" stroke-miterlimit="10" d="
				M253.953,95.531c2.926,2.287,1.499,9.294-2.25,7"/>
			<path fill="none" stroke="#FCFAFA" stroke-width="2" stroke-linecap="round" stroke-linejoin="round" stroke-miterlimit="10" d="
				M218.203,102.781c-0.933,2.397-1.592,4.764,0.562,6.938c1.712,1.729,4.815,2.242,6.188-0.188"/>
			<path fill="none" stroke="#FCFAFA" stroke-width="2" stroke-linecap="round" stroke-linejoin="round" stroke-miterlimit="10" d="
				M223.953,110.781c-0.294,3.984,7.275,4.563,7.75,0.25"/>
			<path fill="none" stroke="#FCFAFA" stroke-width="2" stroke-linecap="round" stroke-linejoin="round" stroke-miterlimit="10" d="
				M231.703,110.781c-1.834,6.018,9.719,6.028,8.75-0.894"/>
			<path fill="none" stroke="#FCFAFA" stroke-width="2" stroke-linecap="round" stroke-linejoin="round" stroke-miterlimit="10" d="
				M244.953,110.031c0.379,2.196-1.784,6.818-4.5,4.25"/>
			<path fill="none" stroke="#FCFAFA" stroke-width="2" stroke-linecap="round" stroke-linejoin="round" stroke-miterlimit="10" d="
				M249.703,110.031c-0.415,2.448-1.949,3.267-4.5,3"/>
			<path fill="none" stroke="#FCFAFA" stroke-width="2" stroke-linecap="round" stroke-linejoin="round" stroke-miterlimit="10" d="
				M255.203,102.531c4.645,2.627-0.916,10.591-4.75,7.5"/>
			<path fill="none" stroke="#FCFAFA" stroke-width="2" stroke-linecap="round" stroke-linejoin="round" stroke-miterlimit="10" d="
				M242.203,83.781c3.057-2.01,6.672,1.829,4,2.75"/>
			<path fill="none" stroke="#FCFAFA" stroke-width="2" stroke-linecap="round" stroke-linejoin="round" stroke-miterlimit="10" d="
				M218.953,110.781c-1.503,6.253,7.334,11.186,9.75,4.25"/>
			<path fill="none" stroke="#FCFAFA" stroke-width="2" stroke-linecap="round" stroke-linejoin="round" stroke-miterlimit="10" d="
				M229.203,114.281c-0.405,2.926-0.059,4.976,3.237,5.763c2.698,0.645,4.887-0.996,4.513-3.763"/>
			<path fill="none" stroke="#FCFAFA" stroke-width="2" stroke-linecap="round" stroke-linejoin="round" stroke-miterlimit="10" d="
				M237.703,116.031c-0.579,4.089,8.397,3.6,7-1.75"/>
			<path fill="none" stroke="#FCFAFA" stroke-width="2" stroke-linecap="round" stroke-linejoin="round" stroke-miterlimit="10" d="
				M257.203,108.281c0.38,2.229,0.397,5.076-1.757,6.438c-2.148,1.355-5.122,0.68-6.493-1.438"/>
			<path fill="none" stroke="#FCFAFA" stroke-width="2" stroke-linecap="round" stroke-linejoin="round" stroke-miterlimit="10" d="
				M245.203,115.031c-0.303,4.145,5.864,5.294,6.25,1"/>
			<path fill="none" stroke="#FCFAFA" stroke-width="2" stroke-linecap="round" stroke-linejoin="round" stroke-miterlimit="10" d="
				M223.453,85.781c-1.679-0.781-4.185,0.675-4.943,2.307c-0.938,2.017,0.153,4.141,0.943,5.943"/>
			<path fill="none" stroke="#FCFAFA" stroke-width="2" stroke-linecap="round" stroke-linejoin="round" stroke-miterlimit="10" d="
				M217.453,91.531c-1.67,0.085-3.239,1.407-3.764,2.985c-0.651,1.962,0.668,3.131,1.3,4.701c0.396,0.153,1.697,0.409,2.053,0.604"
				/>
			<path fill="none" stroke="#FCFAFA" stroke-width="2" stroke-linecap="round" stroke-linejoin="round" stroke-miterlimit="10" d="
				M215.203,99.531c-4.806,0.542-1.714,8.562,2,8.25"/>
			<path fill="none" stroke="#FCFAFA" stroke-width="2" stroke-linecap="round" stroke-linejoin="round" stroke-miterlimit="10" d="
				M247.453,85.031c3.786-1.517,7.607,2.147,5.5,6"/>
			<path fill="none" stroke="#FCFAFA" stroke-width="2" stroke-linecap="round" stroke-linejoin="round" stroke-miterlimit="10" d="
				M253.703,90.031c4.138-0.56,6.62,5.668,2.25,7"/>
			<path fill="none" stroke="#FCFAFA" stroke-width="2" stroke-linecap="round" stroke-linejoin="round" stroke-miterlimit="10" d="
				M256.453,96.781c6.153-0.521,6.605,7.718,1.5,9.75"/>
			<path fill="none" stroke="#FCFAFA" stroke-width="2" stroke-linecap="round" stroke-linejoin="round" stroke-miterlimit="10" d="
				M259.703,105.781c1.008,2.349-0.187,5.019-2.5,6.25"/>
			<path fill="none" stroke="#FCFAFA" stroke-width="2" stroke-linecap="round" stroke-linejoin="round" stroke-miterlimit="10" d="
				M214.453,107.281c-2.987,3.823,1.343,7.723,4.956,8.75"/>
			<path fill="none" stroke="#FCFAFA" stroke-width="2" stroke-linecap="round" stroke-linejoin="round" stroke-miterlimit="10" d="
				M235.953,143.281c-0.399-1.296-2.041-1.739-3.619-1.456c-1.542,1.926,0.927,5.273,3.619,3.956"/>
			<path fill="none" stroke="#FCFAFA" stroke-width="2" stroke-linecap="round" stroke-linejoin="round" stroke-miterlimit="10" d="
				M236.453,142.531c1.065-1.812,4.878-2.283,4.263,0.763c-0.515,2.553-3.463,1.873-4.263-0.013"/>
			<path fill="none" stroke="#FCFAFA" stroke-width="2" stroke-linecap="round" stroke-linejoin="round" stroke-miterlimit="10" d="
				M235.703,132.531c-0.751-1.438-2.177-1.91-3.706-1.706c-2.091,3.017,2.507,6.019,3.956,2.456"/>
			<path fill="none" stroke="#FCFAFA" stroke-width="2" stroke-linecap="round" stroke-linejoin="round" stroke-miterlimit="10" d="
				M236.453,153.531c-0.148-2.305-3.491-2.493-4.02-0.035c-0.449,2.089,2.503,5.565,3.52,3.27"/>
			<path fill="none" stroke="#FCFAFA" stroke-width="2" stroke-linecap="round" stroke-linejoin="round" stroke-miterlimit="10" d="
				M236.703,155.031c2.366-1.308,5.947,0.938,3.938,3.438c-2.11,2.621-4.078-0.85-4.438-2.688"/>
		</g>
		<g>

				<line fill="none" stroke="#FCFAFA" stroke-width="2" stroke-miterlimit="10" x1="594.708" y1="132.371" x2="594.708" y2="252.807"/>
			<path fill="none" stroke="#FCFAFA" stroke-width="2" stroke-linejoin="round" stroke-miterlimit="10" d="M594.832,175.125
				c-9.029-0.031-23.701-1.947-26-12.288c9.432,1.7,21.879,1.312,25.381,12.288"/>
			<path fill="none" stroke="#FCFAFA" stroke-width="2" stroke-linecap="round" stroke-linejoin="round" stroke-miterlimit="10" d="
				M594.832,179.931c8.951-7.179,16.742-3.356,26.668-0.616c-3.113,0.434-7.855,4.487-12.117,5.183
				c-5.951,0.969-9.689-0.798-13.918-3.912"/>
			<path fill="none" stroke="#FCFAFA" stroke-width="2" stroke-miterlimit="10" d="M594.166,131.459
				c-2.584,3.277-13.963,9.219-16.699,3.365c-4.52-9.669,12.52-5.07,15.365-3.365"/>
			<path fill="none" stroke="#FCFAFA" stroke-width="2" stroke-miterlimit="10" d="M594.464,131.262
				c-0.52-4.143,3.238-16.415,9.326-14.256c10.061,3.569-5.178,12.475-8.389,13.306"/>
			<path fill="none" stroke="#FCFAFA" stroke-width="2" stroke-miterlimit="10" d="M595.283,132.371
				c-3.992-1.222-13.652-9.674-9.188-14.346c7.373-7.716,9.262,9.831,8.703,13.103"/>
			<path fill="none" stroke="#FCFAFA" stroke-width="2" stroke-miterlimit="10" d="M595.037,131.262
				c3.766,1.806,12.049,11.608,6.938,15.559c-8.445,6.526-7.686-11.104-6.645-14.257"/>
			<path fill="none" stroke="#FCFAFA" stroke-width="2" stroke-miterlimit="10" d="M595.421,130.615
				c3.816-1.694,16.65-1.641,16.34,4.812c-0.512,10.662-13.438-1.354-15.16-4.19"/>
			<path fill="none" stroke="#FCFAFA" stroke-width="2" stroke-miterlimit="10" d="M593.726,132.445
				c1.291,3.972-0.082,16.731-6.469,15.761c-10.553-1.606,2.73-13.228,5.729-14.649"/>
		</g>
		<g>

				<line fill="none" stroke="#FCFAFA" stroke-width="2" stroke-miterlimit="10" x1="557.501" y1="41.637" x2="557.501" y2="252.513"/>
			<path fill="none" stroke="#FCFAFA" stroke-width="2" stroke-linejoin="round" stroke-miterlimit="10" d="M557.625,84.391
				c-9.031-0.031-23.703-1.947-26-12.288c9.43,1.7,21.879,1.312,25.379,12.288"/>
			<path fill="none" stroke="#FCFAFA" stroke-width="2" stroke-linecap="round" stroke-linejoin="round" stroke-miterlimit="10" d="
				M557.625,89.196c8.949-7.179,16.74-3.356,26.666-0.615c-3.113,0.433-7.854,4.486-12.117,5.182
				c-5.949,0.969-9.689-0.798-13.916-3.912"/>
			<path fill="none" stroke="#FCFAFA" stroke-width="2" stroke-miterlimit="10" d="M556.958,40.725
				c-2.584,3.278-13.963,9.219-16.699,3.365c-4.52-9.669,12.52-5.07,15.365-3.365"/>
			<path fill="none" stroke="#FCFAFA" stroke-width="2" stroke-miterlimit="10" d="M557.257,40.527
				c-0.521-4.143,3.236-16.415,9.326-14.256c10.059,3.569-5.178,12.476-8.391,13.307"/>
			<path fill="none" stroke="#FCFAFA" stroke-width="2" stroke-miterlimit="10" d="M558.076,41.637
				c-3.992-1.221-13.652-9.674-9.189-14.345c7.375-7.716,9.264,9.831,8.705,13.102"/>
			<path fill="none" stroke="#FCFAFA" stroke-width="2" stroke-miterlimit="10" d="M557.83,40.527
				c3.764,1.807,12.049,11.608,6.938,15.56c-8.445,6.525-7.686-11.105-6.646-14.257"/>
			<path fill="none" stroke="#FCFAFA" stroke-width="2" stroke-miterlimit="10" d="M558.212,39.88
				c3.816-1.694,16.65-1.64,16.342,4.812c-0.514,10.662-13.438-1.354-15.162-4.189"/>
			<path fill="none" stroke="#FCFAFA" stroke-width="2" stroke-miterlimit="10" d="M556.517,41.711
				c1.293,3.971-0.082,16.73-6.469,15.76c-10.551-1.605,2.73-13.227,5.73-14.648"/>
		</g>
		<g>

				<line fill="none" stroke="#FCFAFA" stroke-width="2" stroke-miterlimit="10" x1="271.328" y1="137.871" x2="271.328" y2="253.151"/>
			<path fill="none" stroke="#FCFAFA" stroke-width="2" stroke-linejoin="round" stroke-miterlimit="10" d="M271.451,180.625
				c-9.03-0.031-23.702-1.947-26-12.288c9.431,1.7,21.879,1.312,25.38,12.288"/>
			<path fill="none" stroke="#FCFAFA" stroke-width="2" stroke-linecap="round" stroke-linejoin="round" stroke-miterlimit="10" d="
				M271.451,185.431c8.95-7.179,16.741-3.356,26.667-0.616c-3.113,0.434-7.854,4.487-12.117,5.183
				c-5.95,0.969-9.69-0.798-13.917-3.912"/>
			<path fill="none" stroke="#FCFAFA" stroke-width="2" stroke-miterlimit="10" d="M270.785,136.959
				c-2.584,3.277-13.963,9.219-16.699,3.365c-4.52-9.669,12.519-5.07,15.365-3.365"/>
			<path fill="none" stroke="#FCFAFA" stroke-width="2" stroke-miterlimit="10" d="M271.084,136.762
				c-0.521-4.143,3.237-16.415,9.326-14.256c10.06,3.569-5.178,12.475-8.39,13.306"/>
			<path fill="none" stroke="#FCFAFA" stroke-width="2" stroke-miterlimit="10" d="M271.902,137.871
				c-3.992-1.222-13.652-9.674-9.188-14.346c7.374-7.716,9.262,9.831,8.704,13.103"/>
			<path fill="none" stroke="#FCFAFA" stroke-width="2" stroke-miterlimit="10" d="M271.656,136.762
				c3.765,1.806,12.049,11.608,6.938,15.559c-8.446,6.526-7.686-11.104-6.646-14.257"/>
			<path fill="none" stroke="#FCFAFA" stroke-width="2" stroke-miterlimit="10" d="M272.04,136.115
				c3.816-1.694,16.65-1.641,16.341,4.812c-0.513,10.662-13.438-1.354-15.161-4.19"/>
			<path fill="none" stroke="#FCFAFA" stroke-width="2" stroke-miterlimit="10" d="M270.345,137.945
				c1.292,3.972-0.082,16.731-6.469,15.761c-10.552-1.606,2.73-13.228,5.729-14.649"/>
		</g>
	</g>
</g>
<g id="Layer_2" display="none">
	<rect x="-9.799" y="40.128" display="inline" fill="none" stroke="#000000" stroke-miterlimit="10" width="400" height="200"/>
</g>
</svg>
