<?xml version="1.0" encoding="utf-8"?>
<!-- Generator: Adobe Illustrator 15.0.2, SVG Export Plug-In . SVG Version: 6.00 Build 0)  -->
<!DOCTYPE svg PUBLIC "-//W3C//DTD SVG 1.1//EN" "http://www.w3.org/Graphics/SVG/1.1/DTD/svg11.dtd">
<svg version="1.1" id="Layer_1" xmlns="http://www.w3.org/2000/svg" xmlns:xlink="http://www.w3.org/1999/xlink" x="0px" y="0px"
	 width="94.909px" height="61.414px" viewBox="0 0 94.909 61.414" enable-background="new 0 0 94.909 61.414" xml:space="preserve">
<g>
	<g>
		<path fill="none" stroke="#000000" stroke-width="5" stroke-linecap="round" stroke-linejoin="round" stroke-miterlimit="10" d="
			M-1715.437-296.861c-5.424,1.294-10.479,7.297-12.947,12.732c-1.967,4.333-1.902,9.907-2.087,14.574
			c-0.181,4.508,0.52,9.068,3.083,12.878c4.771,7.089,14.271,9.834,22.419,9.843c14.188,0.018,29.038-12.462,26.832-27.755
			C-1680.178-288.709-1700.385-302.016-1715.437-296.861"/>
		<path fill="none" stroke="#000000" stroke-width="5" stroke-linecap="round" stroke-linejoin="round" stroke-miterlimit="10" d="
			M-1719.709-266.787c1.841,9.676,14.819,9.822,22.131,7.588c3.454-1.055,7.353-2.953,8.875-6.806
			c1.298-3.284,1.33-9.431-1.812-11.63"/>
		<path fill="none" stroke="#000000" stroke-width="5" stroke-linecap="round" stroke-linejoin="round" stroke-miterlimit="10" d="
			M-1701.552-283.732c2.891,1.793,8.045,2.132,10.079-1.027"/>
		<path fill="none" stroke="#000000" stroke-width="5" stroke-linecap="round" stroke-linejoin="round" stroke-miterlimit="10" d="
			M-1712.996-278.69c-2.312,2.494-7.195,4.183-9.991,1.675"/>
	</g>
	<g>
		
			<path fill="#FFFFFF" stroke="#000000" stroke-width="5" stroke-linecap="round" stroke-linejoin="round" stroke-miterlimit="10" d="
			M-1754.376-298.031c-5.568-0.283-12.108,4.056-16.004,8.576c-3.108,3.606-4.612,8.972-6.105,13.398
			c-1.44,4.275-2.05,8.849-0.664,13.223c2.586,8.147,10.929,13.454,18.747,15.756c13.609,4.007,31.37-3.79,33.555-19.084
			C-1722.835-280.289-1738.481-298.743-1754.376-298.031"/>
		<path fill="none" stroke="#000000" stroke-width="5" stroke-linecap="round" stroke-linejoin="round" stroke-miterlimit="10" d="
			M-1766.938-270.374c-0.955,9.803,11.457,13.593,19.104,13.507c3.61-0.039,7.885-0.764,10.431-4.035
			c2.169-2.786,3.929-8.675,1.533-11.668"/>
		<path fill="none" stroke="#000000" stroke-width="5" stroke-linecap="round" stroke-linejoin="round" stroke-miterlimit="10" d="
			M-1744.746-281.525c2.27,2.534,7.121,4.309,9.96,1.852"/>
		<path fill="none" stroke="#000000" stroke-width="5" stroke-linecap="round" stroke-linejoin="round" stroke-miterlimit="10" d="
			M-1757.143-279.907c-2.924,1.743-8.085,1.99-10.062-1.203"/>
	</g>
</g>
<path fill="none" stroke="#000000" stroke-width="2" stroke-linecap="round" stroke-linejoin="round" stroke-miterlimit="10" d="
	M-1476.143,116.35c-3.092-2.039-8.75-0.869-11,3.157c-3.585,3.665,1.48,16.412,10.262,14.512
	C-1468.14,132.127-1468.893,119.757-1476.143,116.35"/>
<path fill="none" stroke="#000000" stroke-width="2" stroke-linecap="round" stroke-linejoin="round" stroke-miterlimit="10" d="
	M-1485.772,107.664c0.3-7.1-3.39-14.422-3.978-22.026c-0.606-7.835-0.359-14.724-2.109-24.611c-0.986-5.57-0.479-11.399-1-16.974
	c-0.471-5.037-2.024-10.796-1.436-15.812c9.397,0.073,19.504,5.345,28.962,6.423c7.346,0.836,15.784-0.729,22.91,1.073
	c-2.189,13.164-5.592,24.868-11.56,37.427c-2.733,5.75-5.111,11.645-7.863,17.474c-2.792,5.915-6.848,11.811-9.1,17.938
	C-1474.89,109.242-1481.641,107.664-1485.772,107.664"/>
<g>
	<path fill="none" stroke="#000000" stroke-width="2" stroke-linecap="round" stroke-linejoin="round" stroke-miterlimit="10" d="
		M-1613.547,2.31c0.124,2.262-0.461,4.723-0.651,6.975c-0.373,4.417-0.653,8.788-0.649,13.222
		c0.005,5.973-0.312,11.761-0.813,17.679"/>
	<path fill="none" stroke="#000000" stroke-width="2" stroke-linecap="round" stroke-linejoin="round" stroke-miterlimit="10" d="
		M-1595.266,39.043c0.124-2.262-0.46-4.723-0.651-6.975c-0.373-4.417-0.653-8.788-0.649-13.222
		c0.005-5.973-0.312-11.76-0.813-17.679"/>
	<path fill="none" stroke="#000000" stroke-width="2" stroke-linecap="round" stroke-linejoin="round" stroke-miterlimit="10" d="
		M-1586.328,14.649c-2.255,0.217-4.737-0.266-6.997-0.364c-4.427-0.191-8.807-0.292-13.237-0.105
		c-5.967,0.25-11.763,0.172-17.697-0.086"/>
	<path fill="none" stroke="#000000" stroke-width="2" stroke-linecap="round" stroke-linejoin="round" stroke-miterlimit="10" d="
		M-1586.339,27.216c-2.26-0.164-4.73,0.375-6.986,0.524c-4.423,0.292-8.798,0.493-13.231,0.409
		c-5.971-0.114-11.764,0.097-17.69,0.49"/>
</g>
<g>
	<path fill="none" stroke="#000000" stroke-width="5" stroke-linecap="round" stroke-linejoin="round" stroke-miterlimit="10" d="
		M-1910.342-288.217c-1.376-1.972-12.813-10.357-22.889-12.375c-8.538-1.709-18.378,1.253-21.089,9.667
		c-7.897,24.52,25.821,36.334,42.012,46.839c4.132-1.723,7.519-2.941,11.712-4.737c6.196-2.652,14.873-7.048,19.117-10.248
		c8.024-6.049,17.127-12.089,17.844-23.402C-1862.086-306.905-1901.366-309.178-1910.342-288.217"/>
	<path fill="none" stroke="#000000" stroke-width="5" stroke-linecap="round" stroke-linejoin="round" stroke-miterlimit="10" d="
		M-1910.498-280.568c0.035,5.654,0.69,11.297,0.69,17.049"/>
	<path fill="none" stroke="#000000" stroke-width="5" stroke-linecap="round" stroke-linejoin="round" stroke-miterlimit="10" d="
		M-1918.684-272.093c5.651,0.19,11.314-0.243,17.063-0.019"/>
</g>
<g>
	<path fill="none" stroke="#000000" stroke-width="5" stroke-linecap="round" stroke-linejoin="round" stroke-miterlimit="10" d="
		M-1619.959-308.071c-3.948,21.919-2.774,45.346-10.52,66.847c0.439,1.107,0.462-0.478,0.735-1.018"/>
	<path fill="none" stroke="#000000" stroke-width="5" stroke-linecap="round" stroke-linejoin="round" stroke-miterlimit="10" d="
		M-1584.377-305.402c0,24.359-2.952,46.415-7.115,69.386"/>
	<path fill="none" stroke="#000000" stroke-width="5" stroke-linecap="round" stroke-linejoin="round" stroke-miterlimit="10" d="
		M-1641.308-284.942c24.911,8.28,52.46,1.534,77.393,7.116"/>
	<path fill="none" stroke="#000000" stroke-width="5" stroke-linecap="round" stroke-linejoin="round" stroke-miterlimit="10" d="
		M-1643.977-262.703c24.813,5.646,52.383,1.062,76.503,7.116"/>
</g>
<g>
	<path fill="none" stroke="#000000" stroke-width="5" stroke-linecap="round" stroke-linejoin="round" stroke-miterlimit="10" d="
		M-1818.79-242.049c0.937,0.096,1.546,0.19,1.966,1.157c-2.178,4.279-5.904-1.994-1.966-0.77"/>
	<path fill="none" stroke="#000000" stroke-width="5" stroke-linecap="round" stroke-linejoin="round" stroke-miterlimit="10" d="
		M-1819.432-307.209c1.984,19.073,2.095,31.244,2.095,50.993"/>
</g>
<path fill="none" stroke="#000000" stroke-width="2" stroke-linecap="round" stroke-linejoin="round" stroke-miterlimit="10" d="
	M-2075.659-256.093c4.587,2.125,9.794-0.818,14.291,2.552c0.331,12.285,0,0-0.624,12.006c-0.271,5.212-0.602,11.242-0.274,16.626
	c0.595,9.775,4.656,9.942,9.419,12.837c8.875,5.395,25.789,2.117,32.257,18.271c3.76,9.39,2.727,28.967,3.087,40.597
	c0.574,18.544-0.357,37.857-1.403,56.271c-1.008,17.73-1.752,37.504-4.513,54.227c-1.168,7.073-2.943,11.008-6.854,12.484
	c-5.089,1.921-10.186,4.404-15.359,6.135c-8.719,2.917-17.702,3.531-26.425,1.847c-1.062-0.205-2.366-0.768-3.603-0.517"/>
<g>
	<path fill="none" stroke="#FCFAFB" stroke-width="3" stroke-linecap="round" stroke-linejoin="round" stroke-miterlimit="10" d="
		M46.658,15.783C45.282,13.811,33.845,5.426,23.77,3.409C15.231,1.7,5.392,4.662,2.681,13.075
		c-7.897,24.52,25.821,36.334,42.012,46.839c4.133-1.723,7.519-2.941,11.712-4.736c6.196-2.652,14.872-7.049,19.116-10.248
		c8.025-6.049,17.127-12.09,17.844-23.402C94.914-2.905,55.634-5.178,46.658,15.783"/>
	<path fill="none" stroke="#FCFAFB" stroke-width="3" stroke-linecap="round" stroke-linejoin="round" stroke-miterlimit="10" d="
		M46.503,26.432c0.034,5.654,0.689,11.297,0.689,17.049"/>
	<path fill="none" stroke="#FCFAFB" stroke-width="3" stroke-linecap="round" stroke-linejoin="round" stroke-miterlimit="10" d="
		M38.315,34.907c5.652,0.19,11.314-0.243,17.063-0.019"/>
</g>
<g>
	<path fill="none" stroke="#FCFAFB" stroke-width="5" stroke-linecap="round" stroke-linejoin="round" stroke-miterlimit="10" d="
		M162.21-351.049c0.937,0.096,1.547,0.19,1.966,1.157c-2.178,4.279-5.904-1.994-1.966-0.77"/>
	<path fill="none" stroke="#FCFAFB" stroke-width="5" stroke-linecap="round" stroke-linejoin="round" stroke-miterlimit="10" d="
		M161.568-416.209c1.984,19.073,2.095,31.244,2.095,50.993"/>
</g>
<g>
	<g>
		<path fill="none" stroke="#FCFAFB" stroke-width="2" stroke-linecap="round" stroke-linejoin="round" stroke-miterlimit="10" d="
			M898.563-2.861c-5.425,1.294-10.479,7.297-12.947,12.732c-0.17,0.376-0.535,0.742-0.467,1.155
			c0.588,3.526,8.525,12.026,1.079,25.7c-0.113,0.208,0.251,0.4,0.384,0.598c4.771,7.088,14.271,9.834,22.42,9.843
			c14.188,0.018,29.037-12.462,26.832-27.755C933.822,5.291,913.614-8.016,898.563-2.861"/>
		<path fill="none" stroke="#FCFAFB" stroke-width="2" stroke-linecap="round" stroke-linejoin="round" stroke-miterlimit="10" d="
			M894.291,27.213c1.841,9.676,14.819,9.822,22.131,7.588c3.454-1.055,7.353-2.953,8.874-6.806c1.299-3.284,1.33-9.431-1.811-11.63"
			/>
		<path fill="none" stroke="#FCFAFB" stroke-width="2" stroke-linecap="round" stroke-linejoin="round" stroke-miterlimit="10" d="
			M912.448,10.268c2.891,1.793,8.045,2.132,10.079-1.027"/>
		<path fill="none" stroke="#FCFAFB" stroke-width="2" stroke-linecap="round" stroke-linejoin="round" stroke-miterlimit="10" d="
			M901.005,15.31c-2.312,2.494-7.195,4.183-9.991,1.675"/>
	</g>
	<g>
		<path fill="none" stroke="#FCFAFB" stroke-width="2" stroke-linecap="round" stroke-linejoin="round" stroke-miterlimit="10" d="
			M859.624-4.031c-5.568-0.283-12.109,4.056-16.005,8.576c-3.108,3.606-4.612,8.972-6.104,13.398
			c-1.441,4.275-2.051,8.849-0.664,13.223c2.586,8.147,10.929,13.455,18.746,15.756c13.609,4.008,31.371-3.789,33.556-19.084
			C891.165,13.711,875.519-4.743,859.624-4.031"/>
		<path fill="none" stroke="#FCFAFB" stroke-width="2" stroke-linecap="round" stroke-linejoin="round" stroke-miterlimit="10" d="
			M847.062,23.626c-0.954,9.803,11.456,13.593,19.104,13.507c3.609-0.039,7.885-0.765,10.431-4.034
			c2.169-2.787,3.929-8.676,1.533-11.669"/>
		<path fill="none" stroke="#FCFAFB" stroke-width="2" stroke-linecap="round" stroke-linejoin="round" stroke-miterlimit="10" d="
			M869.255,12.475c2.27,2.534,7.12,4.309,9.96,1.852"/>
		<path fill="none" stroke="#FCFAFB" stroke-width="2" stroke-linecap="round" stroke-linejoin="round" stroke-miterlimit="10" d="
			M856.857,14.093c-2.924,1.743-8.085,1.99-10.062-1.203"/>
	</g>
</g>
</svg>
