<?xml version="1.0" encoding="utf-8"?>
<!-- Generator: Adobe Illustrator 15.0.2, SVG Export Plug-In . SVG Version: 6.00 Build 0)  -->
<!DOCTYPE svg PUBLIC "-//W3C//DTD SVG 1.1//EN" "http://www.w3.org/Graphics/SVG/1.1/DTD/svg11.dtd">
<svg version="1.1" id="Layer_1" xmlns="http://www.w3.org/2000/svg" xmlns:xlink="http://www.w3.org/1999/xlink" x="0px" y="0px"
	 width="210.941px" height="78.504px" viewBox="0 0 210.941 78.504" enable-background="new 0 0 210.941 78.504"
	 xml:space="preserve">
<g id="Layer_1_1_" display="none">
	<path display="inline" fill="#FFFFFF" stroke="#35495D" stroke-width="0.5" stroke-miterlimit="10" d="M-1564.977-258.141
		c0,5.566-6.228,10.079-13.907,10.079l0,0c-7.68,0-13.906-4.513-13.906-10.079v-14.637c0-5.566,6.228-3.864,13.907-3.864l0,0
		c7.681,0,13.906-1.702,13.906,3.864V-258.141z"/>
	<path display="inline" fill="#FFFFFF" stroke="#35495D" stroke-width="0.5" stroke-miterlimit="10" d="M-1354.889-318.307
		c-1.281-2.975-3.191-3.329-5.245-5.936c-1.812-2.297-4.016-4.369-5.559-6.794c-2.43,4.575-4.574,9.541-6.882,13.998"/>
	<circle display="inline" fill="#FFF6BF" cx="-1416.698" cy="-372.588" r="16.917"/>
	<path display="inline" fill="#FFFFFF" stroke="#35495D" stroke-width="0.5" stroke-miterlimit="10" d="M-1380.585-362.987
		c-1.281-2.975-3.19-3.329-5.245-5.936c-1.811-2.297-4.016-4.369-5.559-6.794c-2.429,4.575-4.574,9.541-6.881,13.998"/>
	<path display="inline" fill="#FFFFFF" stroke="#35495D" stroke-width="0.5" stroke-miterlimit="10" d="M-1417.239-359.654
		c1.017-3.146,3.512-5.749,5.14-8.505c1.435-2.429,3.184-4.62,4.406-7.185c1.926,4.837,3.626,10.089,5.454,14.801"/>
	<path display="inline" fill="none" stroke="#35495D" stroke-width="0.5" stroke-miterlimit="10" d="M-1438.528-329.199
		c1.559-2.297,4.167-4.817,6.212-7.667c1.317,3.944,4.905,7.815,6.562,11.5"/>
	<circle display="inline" fill="#FFF6BF" cx="-1391.823" cy="-329.477" r="16.917"/>
	<path display="inline" fill="#FFF6BF" d="M-1517.991-370.405c12.683-16.789,30.631-13.722,41.451,0.439"/>
	<rect x="-1347.047" y="-228.578" display="inline" fill="none" width="155.75" height="15.807"/>

		<text transform="matrix(1 0 0 1 -1347.0471 -220.4888)" display="inline" fill="#35495D" font-family="'SukhumvitSet-Thin'" font-size="12">Mindful Moments</text>
	<path display="inline" fill="#FFF6BF" d="M-1404.122-267.179c10.693-22.499,27.872-20.459,39.17-3.679"/>

		<polyline display="inline" fill="none" stroke="#000000" stroke-linecap="round" stroke-linejoin="round" stroke-miterlimit="10" points="
		-1540.781,-128.067 -1534.531,-140.942 -1529.531,-134.504 -1525.656,-138.942 -1520.906,-132.067 	"/>

		<polyline display="inline" fill="none" stroke="#000000" stroke-linecap="round" stroke-linejoin="round" stroke-miterlimit="10" points="
		-1522.844,-128.067 -1516.594,-140.942 -1511.594,-134.504 -1507.719,-138.942 -1502.969,-132.067 	"/>

		<polyline display="inline" fill="none" stroke="#000000" stroke-linecap="round" stroke-linejoin="round" stroke-miterlimit="10" points="
		-1535.198,-69.228 -1528.948,-82.103 -1523.948,-75.665 -1520.073,-80.103 -1515.323,-73.228 	"/>

		<polyline display="inline" fill="none" stroke="#000000" stroke-linecap="round" stroke-linejoin="round" stroke-miterlimit="10" points="
		-1517.26,-69.228 -1511.01,-82.103 -1506.01,-75.665 -1502.135,-80.103 -1497.385,-73.228 	"/>
	<path display="inline" fill="none" stroke="#000000" stroke-linecap="round" stroke-linejoin="round" stroke-miterlimit="10" d="
		M-1541.588-80.192c0-1.312,1.111-2.375,2.482-2.375s2.482,1.063,2.482,2.375"/>

		<line display="inline" fill="none" stroke="#000000" stroke-linejoin="round" stroke-miterlimit="10" x1="-1494.174" y1="-105.657" x2="-1492.174" y2="-102.194"/>

		<line display="inline" fill="none" stroke="#000000" stroke-linejoin="round" stroke-miterlimit="10" x1="-1474.206" y1="-105.657" x2="-1476.206" y2="-102.194"/>

		<line display="inline" fill="none" stroke="#000000" stroke-linejoin="round" stroke-miterlimit="10" x1="-1484.49" y1="-107.481" x2="-1484.49" y2="-103.483"/>
	<g display="inline">
		<path fill="#FFF6BF" d="M-1410.783-216.539c12.338-23.268,32.155-21.159,45.19-3.805"/>

			<path fill="#FFFFFF" stroke="#333333" stroke-width="0.5" stroke-linecap="round" stroke-linejoin="round" stroke-miterlimit="10" d="
			M-1406.802-213.141c5.097-1.241,11.327-9.746,14.037-14.696c0.483,5.614,11.672,13.081,15.893,12.896"/>

			<path fill="#FFFFFF" stroke="#333333" stroke-width="0.5" stroke-linecap="round" stroke-linejoin="round" stroke-miterlimit="10" d="
			M-1382.753-213.708c7.023,0.005,15.446-9.473,15.934-16.162c5.789,11.695,17.41,13.938,29.748,13.981"/>

			<path fill="#FFFFFF" stroke="#333333" stroke-width="0.5" stroke-linecap="round" stroke-linejoin="round" stroke-miterlimit="10" d="
			M-1423.297-208.924c6.854-4.322,13.489-15.006,15.763-23.412c-0.037,2.298,0.5,5.375,1.237,7.445
			c0.492,1.382,1.492,2.103,2.257,4.63c1.184,3.907,3.854,9.109,7.493,9.885c3.766,0.803,10.084-2.642,12.499-5.741
			c3.052-3.919,2.475-8.849,3.007-13.709c0.099-0.894-0.241,0.817,0,0c-0.009-0.216,0.009-0.216,0,0
			c-0.472-1.004,2.763,8.341,7.939,13.142c3.208,2.975,12.112,5.517,15.805,3.696"/>
	</g>

		<path display="inline" fill="#FFFFFF" stroke="#35495D" stroke-width="0.5" stroke-linecap="round" stroke-linejoin="round" stroke-miterlimit="10" d="
		M-1402.892-263.447c7.041-1.714,10.161-8.885,13.959-14.261c0.873,1.322,1.354,2.859,2.371,4.156
		c1.233,1.576,2.747,2.907,4.349,4.099c2.455,1.826,6.001,4.349,9.252,4.206"/>

		<path display="inline" fill="#FFFFFF" stroke="#35495D" stroke-width="0.5" stroke-linecap="round" stroke-linejoin="round" stroke-miterlimit="10" d="
		M-1384.886-263.932c6.52,0.004,12.526-6.655,14.891-12.203c0.489-1.148,0.914-2.235,1.193-3.442
		c-0.068,0.296,1.744,2.246,1.99,2.587c0.653,0.911,1.29,1.835,2.029,2.68c1.41,1.61,3.093,3.011,4.952,4.072
		c3.839,2.189,8.271,3.194,12.628,3.671c2.645,0.29,5.339,0.445,7.997,0.455"/>

		<path display="inline" fill="#FFFFFF" stroke="#35495D" stroke-width="0.5" stroke-linecap="round" stroke-linejoin="round" stroke-miterlimit="10" d="
		M-1417.011-262.004c3.166,0.073,6.615-0.889,9.003-3c1.89-1.67,3.188-4.148,4.53-6.252c1.901-2.983,3.434-6.498,5.507-9.308
		c-0.254,0.344,0.738,4.312,0.779,4.984c0.108,1.766,0.182,3.534,0.682,5.245c0.872,2.985,2.772,5.009,5.77,5.86
		c2.911,0.827,4.498,0.26,6.754-1.612c2.433-2.02,2.927-5.801,4.037-8.583c0.464-1.163,0.891-2.337,1.272-3.53
		c0.189-0.591,0.365-1.187,0.54-1.785c0.119-0.415,0.161-0.813,0.372-1.168c0.729,1.699,0.95,3.649,1.628,5.396
		c0.764,1.965,1.276,4.391,2.494,6.128c2.922,4.17,8.771,6.003,13.631,6.003"/>
	<g display="inline">
		<path fill="#FFF6BF" d="M-1395.919-55.928c13.441-22.648,33.135-19.589,45.321-1.628"/>

			<path fill="#FFFFFF" stroke="#333333" stroke-width="0.5" stroke-linecap="round" stroke-linejoin="round" stroke-miterlimit="10" d="
			M-1392.106-52.343c5.15-0.995,11.781-9.19,14.727-14.004c0.214,5.631,11.03,13.627,15.255,13.645"/>

			<path fill="#FFFFFF" stroke="#333333" stroke-width="0.5" stroke-linecap="round" stroke-linejoin="round" stroke-miterlimit="10" d="
			M-1368.058-51.754c7.015,0.343,15.884-8.719,16.691-15.377c5.221,11.959,16.721,14.759,29.042,15.395"/>

			<path fill="#FFFFFF" stroke="#333333" stroke-width="0.5" stroke-linecap="round" stroke-linejoin="round" stroke-miterlimit="10" d="
			M-1408.784-48.924c7.055-3.987,14.195-14.34,16.87-22.627c-0.146,2.293,0.241,5.393,0.878,7.496
			c0.426,1.404,1.506,1.423,2.499,4.527c1.264,3.951,2.944,9.49,6.542,10.439c3.724,0.983,10.2-2.154,12.762-5.133
			c3.235-3.768,2.896-8.719,3.661-13.549c0.142-0.888-0.279,0.805,0,0c0.001-0.216,0.02-0.215,0,0
			c-0.423-1.026,2.358,8.464,7.3,13.508c3.061,3.126,11.834,6.093,15.607,4.451"/>
	</g>
	<path display="inline" fill="#FFFFFF" stroke="#35495D" stroke-width="0.5" stroke-miterlimit="10" d="M-1387.656-318.832
		c2.27-3.93,4.741-9.466,7.484-12.819c1.265,4.599,3.366,8.792,4.901,13.262"/>
	<path display="inline" fill="#FFFFFF" stroke="#35495D" stroke-width="0.5" stroke-miterlimit="10" d="M-1384.121-314.702
		c1.304-2.121,2.803-4.101,4.097-6.229c1.233-2.028,2.189-4.224,3.39-6.273c1.562-2.667,3.167-5.374,4.988-7.855
		c1.449,2.016,1.98,4.573,2.87,6.875c1.021,2.646,2.144,5.25,3.153,7.902c1.455,3.824,2.772,7.736,4.597,11.281"/>
	<path display="inline" fill="#FFFFFF" stroke="#35495D" stroke-width="0.5" stroke-miterlimit="10" d="M-1406.907-311.811
		c1.828-4.904,6.32-8.961,9.25-13.258c2.583-3.786,5.73-7.201,7.932-11.199c3.466,7.541,6.525,15.726,9.818,23.071"/>
	<rect x="-1304.574" y="-311.811" display="inline" fill="none" width="155.75" height="15.807"/>

		<text transform="matrix(1 0 0 1 -1304.5745 -303.7222)" display="inline" fill="#35495D" font-family="'SukhumvitSet-Thin'" font-size="12">Mindful Moments</text>
	<rect x="-1353.802" y="-278.658" display="inline" fill="none" width="155.75" height="15.807"/>

		<text transform="matrix(1 0 0 1 -1353.803 -270.5698)" display="inline" fill="#35495D" font-family="'SukhumvitSet-Thin'" font-size="12">Mindful Moments</text>
	<path display="inline" fill="#FFFFFF" stroke="#35495D" stroke-width="0.5" stroke-miterlimit="10" d="M-1382.406-352.261
		c-1.827-4.904-7.261-11.103-10.191-15.398c-2.583-3.786-2.934-6.97-5.672-10.595c-3.969,6.5-7.378,11.358-11.469,19.625"/>
	<path display="inline" fill="#FFFFFF" stroke="#35495D" stroke-width="0.5" stroke-miterlimit="10" d="M-1430.47-354.724
		c1.667-4.904,4.702-6.498,7.375-10.794c2.354-3.786,5.226-7.201,7.233-11.199c3.16,7.541,5.237,13.953,8.24,21.298"/>
	<path display="inline" fill="#FFFFFF" stroke="#35495D" stroke-width="0.5" stroke-miterlimit="10" d="M-1718.226-171.166
		c0,6.625-5.371,11.996-11.995,11.996h-126.453c-6.625,0-11.996-5.371-11.996-11.996v-126.008c0-6.625,5.371-11.996,11.996-11.996
		h126.453c6.625,0,11.995,5.371,11.995,11.996V-171.166z"/>
	<path display="inline" fill="#FFFFFF" stroke="#35495D" stroke-width="0.5" stroke-miterlimit="10" d="M-1565.556-275.945
		c-0.027,2.128-4.409,3.957-12.428,3.854c-8.021-0.102-14.499-1.911-14.473-4.039c0.027-2.129,6.55-3.771,14.571-3.668
		C-1569.866-279.695-1565.527-278.072-1565.556-275.945z"/>

		<rect x="-1805.948" y="-321.705" display="inline" fill="#FFFFFF" stroke="#35495D" stroke-width="0.5" stroke-linecap="round" stroke-linejoin="round" stroke-miterlimit="10" width="25" height="12.5"/>
	<path display="inline" fill="none" stroke="#35495D" stroke-width="0.5" stroke-miterlimit="10" d="M-1923.156-260.504
		c0.513-4.269-3.062-11.277-9.88-13.052c-3.769-0.982-10.179,2.899-8.09,11.333c2.071,8.364,7.317,16.583,13.221,22.469
		c1.293,1.29,5.233,4.456,6.708,4.25c1.346-0.188,4.719-3.185,5.792-4c7.382-5.605,21.009-21.437,12.964-31.73
		c-2.898-3.708-10.252-3.248-13.965-1.208C-1920.155-270.384-1923.407-264.85-1923.156-260.504"/>
	<path display="inline" fill="none" stroke="#35495D" stroke-width="0.5" stroke-miterlimit="10" d="M-1973.763-301.69
		c-0.704-0.583-0.266-2.086,0.037-2.734c0.358-0.769,0.905-1.586,1.727-2.086c0.812-0.494,1.705-0.764,2.703-0.834
		c2.006-0.141,2.558,1.194,2.558,2.557c0,0.887-0.095,1.555-0.792,2.283c-0.518,0.54-1.165,1.042-2.001,1.263
		c-0.8,0.211-2.063,0.336-2.916,0.202C-1972.812-301.097-1973.556-301.435-1973.763-301.69"/>
	<path display="inline" fill="none" stroke="#35495D" stroke-width="0.5" stroke-miterlimit="10" d="M-1974.531-302.254
		c-0.981,0.917-2.238,1.461-3.243,2.366c-2.265,2.039-4.105,4.441-5.909,6.885c-2.188,2.961-4.109,6.188-6.215,9.115
		c5.271-1.933,10.258-5.808,13.301-10.497c1.268-1.954,3.555-4.447,3.94-6.707c0.025,1.473-0.394,3.122-0.526,4.609
		c-0.227,2.511-0.309,5.04,0.027,7.545c0.297,2.206,1.079,4.298,1.746,6.412c0.343,1.085,0.509,2.403,1.007,3.349
		c0.354-1.603,0.236-3.402,0.372-5.079c0.208-2.583,0.654-5.103,0.75-7.689c0.108-2.929,0.393-6.682-0.478-9.293
		c1.218,2.633,2.212,5.47,3.947,7.928c1.662,2.355,3.593,4.394,5.826,6.259c1.464,1.222,3.326,2.973,4.94,3.787
		c-0.74-4.362-4.302-8.173-6.297-12.022c-0.933-1.798-1.85-3.193-3.315-4.502c-0.956-0.854-2-1.771-2.872-2.591"/>
	<path display="inline" fill="none" stroke="#35495D" stroke-width="0.5" stroke-miterlimit="10" d="M-1968.208-300.348
		c0.876,1.019,1.369,2.297,2.231,3.338c1.944,2.345,4.271,4.282,6.639,6.184c2.87,2.305,6.015,4.357,8.854,6.581
		c-1.717-5.347-5.385-10.486-9.946-13.718c-1.901-1.346-4.298-3.733-6.541-4.211c1.474,0.035,3.103,0.521,4.584,0.714
		c2.5,0.328,5.021,0.513,7.54,0.279c2.217-0.206,4.338-0.903,6.478-1.483c1.1-0.297,2.422-0.409,3.389-0.869
		c-1.587-0.42-3.391-0.375-5.061-0.579c-2.572-0.312-5.072-0.861-7.652-1.062c-2.922-0.227-6.659-0.664-9.305,0.099
		c2.681-1.11,5.556-1.988,8.082-3.621c2.421-1.564,4.536-3.41,6.491-5.565c1.281-1.413,3.105-3.203,3.984-4.782
		c-4.388,0.561-8.342,3.966-12.269,5.802c-1.834,0.858-3.266,1.718-4.634,3.129c-0.893,0.921-1.853,1.926-2.705,2.764"/>
	<path display="inline" fill="none" stroke="#35495D" stroke-width="0.5" stroke-miterlimit="10" d="M-1966.849-307.333
		c0.792-1.085,1.924-1.857,2.74-2.935c1.838-2.43,3.192-5.137,4.503-7.876c1.589-3.32,2.868-6.851,4.384-10.124
		c-4.813,2.892-8.979,7.638-11.083,12.817c-0.876,2.158-2.652,5.038-2.605,7.33c-0.303-1.442-0.201-3.14-0.352-4.626
		c-0.252-2.508-0.648-5.007-1.451-7.404c-0.707-2.111-1.871-4.018-2.924-5.968c-0.541-1.001-0.952-2.265-1.621-3.1
		c-0.046,1.64,0.41,3.386,0.593,5.058c0.282,2.576,0.32,5.135,0.714,7.693c0.447,2.896,0.876,6.635,2.224,9.036
		c-1.693-2.356-3.205-4.955-5.372-7.041c-2.077-2-4.357-3.637-6.903-5.047c-1.667-0.924-3.827-2.292-5.564-2.787
		c1.549,4.144,5.767,7.215,8.452,10.618c1.255,1.59,2.418,2.787,4.104,3.796c1.102,0.658,2.298,1.362,3.311,2.002"/>
	<path display="inline" fill="none" stroke="#35495D" stroke-width="0.5" stroke-miterlimit="10" d="M-1973.103-306.724
		c-0.985-0.913-1.619-2.127-2.595-3.064c-2.197-2.11-4.728-3.773-7.294-5.395c-3.11-1.967-6.468-3.651-9.54-5.54
		c2.309,5.119,6.533,9.812,11.432,12.508c2.04,1.123,4.691,3.224,6.974,3.446c-1.467,0.132-3.142-0.167-4.635-0.192
		c-2.521-0.043-5.048,0.057-7.522,0.574c-2.18,0.455-4.209,1.387-6.27,2.205c-1.058,0.419-2.361,0.68-3.268,1.246
		c1.624,0.238,3.41-0.01,5.093,0.003c2.591,0.021,5.137,0.284,7.724,0.192c2.929-0.104,6.692-0.092,9.234-1.148
		c-2.538,1.405-5.296,2.602-7.622,4.509c-2.229,1.829-4.123,3.901-5.822,6.264c-1.113,1.548-2.725,3.532-3.42,5.201
		c4.297-1.052,7.841-4.881,11.535-7.149c1.727-1.06,3.051-2.076,4.251-3.632c0.782-1.016,1.623-2.124,2.376-3.053"/>
	<path display="inline" fill="none" stroke="#35495D" stroke-width="0.5" stroke-miterlimit="10" d="M-1951.999,137.058
		c-0.26-2.271,2.771-4.695,3.997-6.378c2.292-3.145,5.155-6.684,5.128-10.809c-0.052-7.807-11.993-10.988-18.246-8.662
		c-4.076,1.519-5.258,5.651-2.664,9.189c1.167,1.592,2.607,2.541,4.659,1.912c1.128-0.346,2.269-1.734,1.753-2.959
		c-0.557,0.848-1.996,0.48-2.574-0.17c-0.542-2.076,0.899-3.439,2.972-2.155c1.85,1.146,1.721,2.991,0.566,4.527
		c-1.449,1.925-3.823,2.56-5.966,3.376c-3.375,1.283-4.954,2.91-5.844,6.424c-1.347,5.318,0.524,10.18,5.22,12.953"/>
	<path display="inline" fill="none" stroke="#35495D" stroke-width="0.5" stroke-miterlimit="10" d="M-1939.927,112.792
		c2.252,6.502,2.391,14.57,0.174,21.021c-1.297,3.772-3.887,8.297-7.301,10.442c-2.266,1.424-5.025,1.617-7.662,1.74
		c-4.345,0.201-8.299-1.459-8.282-1.688"/>
	<path display="inline" fill="none" stroke="#35495D" stroke-width="0.5" stroke-miterlimit="10" d="M-1940.031,112.622
		c1.25-2.875,2.521-4.123,0.97-7.004c-0.78-1.447-1.181-2.425-1.095-4.121c0.091-1.791,0.302-1.531,0.25-3.244
		c-0.884,1.129-1.265,0.906-2.125,1.994c-0.936,1.186-1.917,1.737-2.396,3.104c-1.353,0.078-2.525-0.074-3.737,0.475
		c-0.114-2.609-1.011-3.191-2.416-5.328c-1.665,2.221-2.584,3.066-2.048,5.822c0.295,1.518,0.87,2.768,1.628,4.174
		c0.541,1.004,1.652,2.033,1.469,3.254"/>
	<path display="inline" fill="none" stroke="#35495D" stroke-width="0.5" stroke-miterlimit="10" d="M-1975.795-251.655
		c-0.704-0.583-0.266-2.086,0.037-2.734c0.359-0.769,0.905-1.586,1.727-2.086c0.812-0.494,1.705-0.764,2.703-0.834
		c2.006-0.141,2.558,1.194,2.558,2.557c0,0.887-0.095,1.555-0.792,2.283c-0.518,0.54-1.165,1.042-2.001,1.263
		c-0.799,0.211-2.063,0.336-2.916,0.202C-1974.844-251.062-1975.589-251.4-1975.795-251.655"/>
	<path display="inline" fill="none" stroke="#35495D" stroke-width="0.5" stroke-miterlimit="10" d="M-1975.407-257.65
		c-1.85-3.385-2.503-7.014-1.216-11.055c0.926-2.906,2.524-4.842,3.864-7.381c0.294,1.415,1.729,3.191,2.388,4.374
		c0.885,1.587,1.792,3.473,2.048,5.438c0.557,4.278-1.186,6.357-3.242,8.742"/>
	<path display="inline" fill="none" stroke="#35495D" stroke-width="0.5" stroke-miterlimit="10" d="M-1975.281-251.004
		c-3.215,2.604-1.269,5.74,0.037,8.625c0.796,1.759,1.331,3.544,2.244,5.229c0.794,1.465,1.76,3.339,1.997,5.011
		c1.147-1.805,3.148-2.687,4.131-4.733c0.983-2.046,1.606-4.227,1.841-6.507c0.185-1.79-0.167-3.589-0.875-5.25
		c-0.725-1.698-2.083-2.7-3.125-4.125"/>
	<path display="inline" fill="none" stroke="#35495D" stroke-width="0.5" stroke-miterlimit="10" d="M-1974.842-255.762
		c-0.564-3.941-4.189-4.102-7.278-4.629c-1.884-0.322-3.656-0.864-5.536-1.054c-1.635-0.165-3.7-0.416-5.229-1.131
		c0.938,1.879,0.668,3.935,1.893,5.814c1.226,1.88,2.744,3.549,4.545,4.966c1.413,1.112,3.104,1.807,4.862,2.146
		c1.796,0.346,3.327-0.185,5.053-0.237"/>
	<path display="inline" fill="none" stroke="#35495D" stroke-width="0.5" stroke-miterlimit="10" d="M-1970.999-257.5
		c2.154-3.609,5.162-6.513,9.571-8.285c3.171-1.274,5.8-1.411,8.85-2.138c-1.151,1.161-2.037,3.392-2.782,4.661
		c-1,1.704-2.266,3.626-3.945,5.128c-3.658,3.268-6.495,3.396-9.78,3.499"/>
</g>
<g>
	<path fill="#FFFFFF" stroke="#35495D" stroke-width="2" stroke-miterlimit="10" d="M-1353.316-249.865"/>
	<path fill="#FFFFFF" stroke="#35495D" stroke-width="2" stroke-miterlimit="10" d="M-1308.996-249.924"/>
	<path fill="#FFFFFF" stroke="#35495D" stroke-width="2" stroke-miterlimit="10" d="M-1352.323-250.405
		c0-11.414,9.925-20.667,22.167-20.667s22.167,9.253,22.167,20.667"/>

		<line fill="none" stroke="#35495D" stroke-width="2" stroke-miterlimit="10" x1="-1379.323" y1="-250.405" x2="-1280.323" y2="-250.405"/>
	<path fill="none" stroke="#35495D" stroke-width="2" stroke-linecap="round" stroke-miterlimit="10" d="M-1329.594-271.363
		c6.001-2.372,12.601-1.157,17.938,3.188c5.125,4.171,7.518,11.14,7.7,17.688"/>
	<path fill="none" stroke="#35495D" stroke-width="2" stroke-linecap="round" stroke-miterlimit="10" d="M-1318.684-282.637
		c-0.117-1.167-0.035-2.227,0.125-3.375"/>
	<path fill="none" stroke="#35495D" stroke-width="2" stroke-linecap="round" stroke-miterlimit="10" d="M-1312.831-281.058
		c0.476-0.929,0.367-2.722,0.375-3.875"/>
	<path fill="none" stroke="#35495D" stroke-width="2" stroke-linecap="round" stroke-miterlimit="10" d="M-1302.615-276.301
		c0.411-1.054,1.364-1.501,2-2.156"/>
	<path fill="none" stroke="#35495D" stroke-width="2" stroke-linecap="round" stroke-miterlimit="10" d="M-1299.434-271.307
		c0.972-1.048,2.646-1.287,3.5-2.5"/>
	<path fill="none" stroke="#35495D" stroke-width="2" stroke-linecap="round" stroke-miterlimit="10" d="M-1297.684-268.018
		c1.339-0.56,2.896-0.784,4.25-1.23"/>
	<path fill="none" stroke="#35495D" stroke-width="2" stroke-linecap="round" stroke-miterlimit="10" d="M-1296.015-257.767
		c1.268-0.139,2.604-0.227,3.875-0.25"/>
	<path fill="none" stroke="#35495D" stroke-width="2" stroke-linecap="round" stroke-miterlimit="10" d="M-1295.559-253.538
		c1.107,0.205,2.738,0.336,3.75-0.125"/>
	<path fill="none" stroke="#35495D" stroke-width="2" stroke-linecap="round" stroke-miterlimit="10" d="M-1339.765-282.996
		c0.014-0.839,0.221-2.567-0.125-3.5"/>
	<path fill="none" stroke="#35495D" stroke-width="2" stroke-linecap="round" stroke-miterlimit="10" d="M-1345.927-281.612
		c-0.425-1.119-1.293-2.152-1.625-3.25"/>
	<path fill="none" stroke="#35495D" stroke-width="2" stroke-linecap="round" stroke-miterlimit="10" d="M-1352.648-278.191
		c-0.228-1.233-1.099-2.136-1.875-3"/>
	<path fill="none" stroke="#35495D" stroke-width="2" stroke-linecap="round" stroke-miterlimit="10" d="M-1356.626-274.363
		c-0.461-0.93-1.399-1.536-1.979-2.381c-0.325-0.473-0.521-1.083-0.896-1.494"/>
	<path fill="none" stroke="#35495D" stroke-width="2" stroke-linecap="round" stroke-miterlimit="10" d="M-1360.075-270.134
		c-1.208-0.57-2.243-1.372-3.5-1.875"/>
	<path fill="none" stroke="#35495D" stroke-width="2" stroke-linecap="round" stroke-miterlimit="10" d="M-1362.812-264.863
		c-1.642-0.405-2.775-2.043-4.375-2.375"/>
	<path fill="none" stroke="#35495D" stroke-width="2" stroke-linecap="round" stroke-miterlimit="10" d="M-1363.865-259.488
		c-1.046,0.471-2.688-0.182-3.75-0.25"/>
	<path fill="none" stroke="#35495D" stroke-width="2" stroke-linecap="round" stroke-miterlimit="10" d="M-1365.322-253.282
		c-1.499-0.202-2.932-0.125-4.5-0.125"/>
	<path fill="none" stroke="#35495D" stroke-width="2" stroke-linecap="round" stroke-miterlimit="10" d="M-1344.79-256.158
		c2.315-4.204,7.758-4.942,10-0.225"/>
	<path fill="none" stroke="#35495D" stroke-width="2" stroke-linecap="round" stroke-miterlimit="10" d="M-1314.985-256.158
		c-2.315-4.204-7.759-4.942-10-0.225"/>
	<path fill="none" stroke="#35495D" stroke-width="2" stroke-linecap="round" stroke-miterlimit="10" d="M-1331.863-286.862
		c-0.833,0.705,0.051,2.573-0.375,3.625"/>
	<path fill="none" stroke="#35495D" stroke-width="2" stroke-linecap="round" stroke-miterlimit="10" d="M-1330.116-271.431
		c0.239-1.68-0.285-1.804,1.289-2.604c6.885-3.498,15.973-1.65,21.904,4.117c4.535,4.408,6.807,9.957,6.807,19.535"/>
	<path fill="none" stroke="#35495D" stroke-width="2" stroke-linecap="round" stroke-miterlimit="10" d="M-1330.638-271.363
		c-6.001-2.372-12.601-1.157-17.938,3.188c-5.125,4.171-7.517,11.14-7.699,17.688"/>
	<path fill="none" stroke="#35495D" stroke-width="2" stroke-linecap="round" stroke-miterlimit="10" d="M-1330.116-271.431
		c-0.238-1.68,0.286-1.804-1.288-2.604c-6.885-3.498-15.973-1.65-21.904,4.117c-4.535,4.408-6.808,9.957-6.808,19.535"/>
	<path fill="none" stroke="#35495D" stroke-width="2" stroke-linecap="round" stroke-miterlimit="10" d="M-1295.826-262.789
		c1.149,0.259,2.208-0.123,3.176-0.694"/>
	<path fill="none" stroke="#35495D" stroke-width="2" stroke-linecap="round" stroke-miterlimit="10" d="M-1326.697-283.299
		c0.66-0.927,1.766-2.624,1.5-3.5"/>
	<path fill="none" stroke="#35495D" stroke-width="2" stroke-linecap="round" stroke-miterlimit="10" d="M-1307.656-279.254
		c0.195-1.516,1.553-1.822,2.25-3"/>
</g>
<g>
	<path fill="#FFFFFF" stroke="#35495D" stroke-width="2" stroke-miterlimit="10" d="M-1336.324-164.715"/>
	<path fill="#FFFFFF" stroke="#35495D" stroke-width="2" stroke-miterlimit="10" d="M-1292.004-164.774"/>
	<path fill="#FFFFFF" stroke="#35495D" stroke-width="2" stroke-miterlimit="10" d="M-1335.331-165.254
		c0-11.414,9.924-20.667,22.167-20.667c12.242,0,22.166,9.253,22.166,20.667"/>

		<line fill="none" stroke="#35495D" stroke-width="2" stroke-linecap="round" stroke-miterlimit="10" x1="-1366.781" y1="-165.338" x2="-1261.281" y2="-165.338"/>
	<path fill="none" stroke="#35495D" stroke-width="2" stroke-miterlimit="10" d="M-1312.602-186.213
		c6.001-2.372,12.601-1.157,17.938,3.187c5.126,4.171,7.518,11.14,7.7,17.688"/>
	<path fill="none" stroke="#FFF6BF" stroke-width="2" stroke-linecap="round" stroke-miterlimit="10" d="M-1301.691-197.487
		c-0.117-1.167-0.035-2.226,0.125-3.375"/>
	<path fill="none" stroke="#FFF6BF" stroke-width="2" stroke-linecap="round" stroke-miterlimit="10" d="M-1295.839-195.908
		c0.475-0.929,0.366-2.722,0.375-3.875"/>
	<path fill="none" stroke="#FFF6BF" stroke-width="2" stroke-linecap="round" stroke-miterlimit="10" d="M-1285.622-191.15
		c0.411-1.054,1.364-1.501,2-2.156"/>
	<path fill="none" stroke="#FFF6BF" stroke-width="2" stroke-linecap="round" stroke-miterlimit="10" d="M-1282.441-186.156
		c0.972-1.048,2.646-1.287,3.5-2.5"/>
	<path fill="none" stroke="#FFF6BF" stroke-width="2" stroke-linecap="round" stroke-miterlimit="10" d="M-1280.691-182.867
		c1.339-0.56,2.896-0.784,4.25-1.23"/>
	<path fill="none" stroke="#FFF6BF" stroke-width="2" stroke-linecap="round" stroke-miterlimit="10" d="M-1279.022-172.616
		c1.268-0.139,2.604-0.227,3.875-0.25"/>
	<path fill="none" stroke="#FFF6BF" stroke-width="2" stroke-linecap="round" stroke-miterlimit="10" d="M-1278.566-168.387
		c1.107,0.205,2.737,0.336,3.75-0.125"/>
	<path fill="none" stroke="#FFF6BF" stroke-width="2" stroke-linecap="round" stroke-miterlimit="10" d="M-1322.772-197.845
		c0.014-0.839,0.221-2.567-0.125-3.5"/>
	<path fill="none" stroke="#FFF6BF" stroke-width="2" stroke-linecap="round" stroke-miterlimit="10" d="M-1328.935-196.461
		c-0.426-1.119-1.293-2.152-1.625-3.25"/>
	<path fill="none" stroke="#FFF6BF" stroke-width="2" stroke-linecap="round" stroke-miterlimit="10" d="M-1335.656-193.041
		c-0.227-1.233-1.098-2.136-1.875-3"/>
	<path fill="#FFF6BF" stroke="#FFF6BF" stroke-width="2" stroke-linecap="round" stroke-miterlimit="10" d="M-1339.634-189.213
		c-0.461-0.93-1.4-1.536-1.98-2.381c-0.324-0.473-0.521-1.083-0.895-1.494"/>
	<path fill="#FFF6BF" stroke="#FFF6BF" stroke-width="2" stroke-linecap="round" stroke-miterlimit="10" d="M-1343.083-184.983
		c-1.208-0.57-2.244-1.372-3.5-1.875"/>
	<path fill="#FFF6BF" stroke="#FFF6BF" stroke-width="2" stroke-linecap="round" stroke-miterlimit="10" d="M-1345.819-179.713
		c-1.642-0.405-2.775-2.043-4.375-2.375"/>
	<path fill="#FFF6BF" stroke="#FFF6BF" stroke-width="2" stroke-linecap="round" stroke-miterlimit="10" d="M-1346.872-174.338
		c-1.046,0.471-2.688-0.182-3.75-0.25"/>
	<path fill="#FFF6BF" stroke="#FFF6BF" stroke-width="2" stroke-linecap="round" stroke-miterlimit="10" d="M-1348.329-168.131
		c-1.499-0.202-2.932-0.125-4.5-0.125"/>
	<path fill="none" stroke="#35495D" stroke-width="2" stroke-linecap="round" stroke-miterlimit="10" d="M-1327.798-171.007
		c2.315-4.204,7.758-4.942,10-0.225"/>
	<path fill="none" stroke="#35495D" stroke-width="2" stroke-linecap="round" stroke-miterlimit="10" d="M-1297.993-171.007
		c-2.314-4.204-7.758-4.942-10-0.225"/>
	<path fill="none" stroke="#FFF6BF" stroke-width="2" stroke-linecap="round" stroke-miterlimit="10" d="M-1314.87-201.711
		c-0.833,0.705,0.051,2.573-0.375,3.625"/>
	<path fill="none" stroke="#35495D" stroke-width="2" stroke-linecap="round" stroke-miterlimit="10" d="M-1313.124-186.281
		c0.239-1.68-0.286-1.804,1.289-2.604c6.884-3.498,15.971-1.65,21.905,4.117c4.534,4.408,6.801,9.311,6.801,18.889"/>
	<path fill="none" stroke="#35495D" stroke-width="2" stroke-miterlimit="10" d="M-1313.646-186.213
		c-6.001-2.372-12.602-1.157-17.938,3.187c-5.125,4.171-7.517,11.14-7.7,17.688"/>
	<path fill="none" stroke="#35495D" stroke-width="2" stroke-linecap="round" stroke-miterlimit="10" d="M-1313.124-186.281
		c-0.239-1.68,0.286-1.804-1.289-2.604c-6.884-3.498-15.972-1.65-21.903,4.117c-4.535,4.408-6.767,9.311-6.767,18.889"/>
	<path fill="none" stroke="#FFF6BF" stroke-width="2" stroke-linecap="round" stroke-miterlimit="10" d="M-1278.834-177.638
		c1.149,0.259,2.208-0.123,3.175-0.694"/>
	<path fill="none" stroke="#FFF6BF" stroke-width="2" stroke-linecap="round" stroke-miterlimit="10" d="M-1309.704-198.149
		c0.66-0.927,1.766-2.624,1.5-3.5"/>
	<path fill="none" stroke="#FFF6BF" stroke-width="2" stroke-linecap="round" stroke-miterlimit="10" d="M-1290.664-194.104
		c0.195-1.516,1.554-1.822,2.25-3"/>
</g>
<ellipse fill="none" cx="-1313.414" cy="-174.168" rx="44.667" ry="34.497"/>
<text transform="matrix(0.0222 -1.059 0.9998 0.021 -1358.1946 -168.9458)" fill="#35495D" font-family="'FredokaOne-Regular'" font-size="12">M</text>
<text transform="matrix(0.0222 -1.059 0.9998 0.021 -1357.0393 -181.7759)" fill="#35495D" font-family="'FredokaOne-Regular'" font-size="12">i</text>
<text transform="matrix(0.0222 -1.059 0.9998 0.021 -1355.2463 -186.813)" fill="#35495D" font-family="'FredokaOne-Regular'" font-size="12">n</text>
<text transform="matrix(0.0222 -1.059 0.9998 0.021 -1349.5579 -194.7095)" fill="#35495D" font-family="'FredokaOne-Regular'" font-size="12">d</text>
<text transform="matrix(0.0222 -1.059 0.9998 0.021 -1341.9631 -200.8042)" fill="#35495D" font-family="'FredokaOne-Regular'" font-size="12">f</text>
<text transform="matrix(0.0222 -1.059 0.9998 0.021 -1335.01 -204.5273)" fill="#35495D" font-family="'FredokaOne-Regular'" font-size="12">u</text>
<text transform="matrix(0.0222 -1.059 0.9998 0.021 -1325.4807 -207.4297)" fill="#35495D" font-family="'FredokaOne-Regular'" font-size="12">l</text>
<text transform="matrix(0.0222 -1.059 0.9998 0.021 -1319.093 -208.4092)" fill="#35495D" font-family="'FredokaOne-Regular'" font-size="12"> </text>
<text transform="matrix(0.0222 -1.059 0.9998 0.021 -1313.634 -208.9263)" fill="#35495D" font-family="'FredokaOne-Regular'" font-size="12">M</text>
<text transform="matrix(0.0222 -1.059 0.9998 0.021 -1300.5212 -207.3438)" fill="#35495D" font-family="'FredokaOne-Regular'" font-size="12">o</text>
<text transform="matrix(0.0222 -1.059 0.9998 0.021 -1291.2278 -204.4526)" fill="#35495D" font-family="'FredokaOne-Regular'" font-size="12">m</text>
<text transform="matrix(0.0222 -1.059 0.9998 0.021 -1280.3538 -197.5898)" fill="#35495D" font-family="'FredokaOne-Regular'" font-size="12">e</text>
<text transform="matrix(0.0222 -1.059 0.9998 0.021 -1273.9915 -190.8145)" fill="#35495D" font-family="'FredokaOne-Regular'" font-size="12">n</text>
<text transform="matrix(0.0222 -1.059 0.9998 0.021 -1269.7893 -182.1401)" fill="#35495D" font-family="'FredokaOne-Regular'" font-size="12">t</text>
<text transform="matrix(0.0222 -1.059 0.9998 0.021 -1268.5706 -174.5493)" fill="#35495D" font-family="'FredokaOne-Regular'" font-size="12">s</text>
<g>
	<g>
		<path fill="#FFFFFF" stroke="#35495D" stroke-width="1.5" stroke-miterlimit="10" d="M-1217.05-322.553"/>
		<path fill="#FFFFFF" stroke="#35495D" stroke-width="1.5" stroke-miterlimit="10" d="M-1188.186-322.592"/>
		<path fill="#FFFFFF" stroke="#35495D" stroke-width="1.5" stroke-miterlimit="10" d="M-1216.403-322.905
			c0-7.433,6.464-13.459,14.437-13.459c7.974,0,14.438,6.026,14.438,13.459"/>

			<line fill="none" stroke="#35495D" stroke-width="1.5" stroke-linecap="round" stroke-miterlimit="10" x1="-1236.886" y1="-322.959" x2="-1168.177" y2="-322.959"/>
		<path fill="none" stroke="#35495D" stroke-width="1.5" stroke-miterlimit="10" d="M-1201.601-336.554
			c3.908-1.544,8.207-0.754,11.684,2.076c3.338,2.716,4.896,7.255,5.016,11.52"/>
		<path fill="none" stroke="#FFF6BF" stroke-width="1.5" stroke-linecap="round" stroke-miterlimit="10" d="M-1194.495-343.896
			c-0.076-0.76-0.021-1.45,0.082-2.198"/>
		<path fill="none" stroke="#FFF6BF" stroke-width="1.5" stroke-linecap="round" stroke-miterlimit="10" d="M-1190.683-342.868
			c0.309-0.605,0.238-1.772,0.244-2.524"/>
		<path fill="none" stroke="#FFF6BF" stroke-width="1.5" stroke-linecap="round" stroke-miterlimit="10" d="M-1184.03-339.77
			c0.269-0.687,0.89-0.978,1.304-1.404"/>
		<path fill="none" stroke="#FFF6BF" stroke-width="1.5" stroke-linecap="round" stroke-miterlimit="10" d="M-1181.958-336.518
			c0.633-0.682,1.726-0.838,2.279-1.628"/>
		<path fill="none" stroke="#FFF6BF" stroke-width="1.5" stroke-linecap="round" stroke-miterlimit="10" d="M-1180.818-334.375
			c0.871-0.364,1.886-0.51,2.769-0.801"/>
		<path fill="none" stroke="#FFF6BF" stroke-width="1.5" stroke-linecap="round" stroke-miterlimit="10" d="M-1179.731-327.699
			c0.826-0.09,1.696-0.146,2.523-0.163"/>
		<path fill="none" stroke="#FFF6BF" stroke-width="1.5" stroke-linecap="round" stroke-miterlimit="10" d="M-1179.435-324.945
			c0.723,0.133,1.784,0.219,2.441-0.082"/>
		<path fill="none" stroke="#FFF6BF" stroke-width="1.5" stroke-linecap="round" stroke-miterlimit="10" d="M-1208.224-344.13
			c0.009-0.546,0.144-1.672-0.082-2.28"/>
		<path fill="none" stroke="#FFF6BF" stroke-width="1.5" stroke-linecap="round" stroke-miterlimit="10" d="M-1212.239-343.229
			c-0.275-0.729-0.842-1.401-1.058-2.116"/>
		<path fill="none" stroke="#FFF6BF" stroke-width="1.5" stroke-linecap="round" stroke-miterlimit="10" d="M-1216.615-341.001
			c-0.146-0.803-0.715-1.391-1.221-1.954"/>
		<path fill="#FFF6BF" stroke="#FFF6BF" stroke-width="1.5" stroke-linecap="round" stroke-miterlimit="10" d="M-1219.205-338.508
			c-0.301-0.605-0.912-1-1.29-1.55c-0.212-0.308-0.34-0.706-0.583-0.973"/>
		<path fill="#FFF6BF" stroke="#FFF6BF" stroke-width="1.5" stroke-linecap="round" stroke-miterlimit="10" d="M-1221.452-335.753
			c-0.786-0.372-1.461-0.894-2.278-1.221"/>
		<path fill="#FFF6BF" stroke="#FFF6BF" stroke-width="1.5" stroke-linecap="round" stroke-miterlimit="10" d="M-1223.233-332.321
			c-1.069-0.264-1.809-1.331-2.851-1.547"/>
		<path fill="#FFF6BF" stroke="#FFF6BF" stroke-width="1.5" stroke-linecap="round" stroke-miterlimit="10" d="M-1223.92-328.82
			c-0.681,0.308-1.751-0.119-2.441-0.163"/>
		<path fill="#FFF6BF" stroke="#FFF6BF" stroke-width="1.5" stroke-linecap="round" stroke-miterlimit="10" d="M-1224.868-324.778
			c-0.977-0.132-1.91-0.082-2.931-0.082"/>
		<path fill="none" stroke="#35495D" stroke-width="1.5" stroke-linecap="round" stroke-miterlimit="10" d="M-1211.497-326.651
			c1.509-2.738,5.054-3.218,6.514-0.146"/>
		<path fill="none" stroke="#35495D" stroke-width="1.5" stroke-linecap="round" stroke-miterlimit="10" d="M-1192.086-326.651
			c-1.508-2.738-5.053-3.218-6.513-0.146"/>
		<path fill="none" stroke="#FFF6BF" stroke-width="1.5" stroke-linecap="round" stroke-miterlimit="10" d="M-1203.077-346.648
			c-0.543,0.459,0.032,1.676-0.244,2.361"/>
		<path fill="none" stroke="#35495D" stroke-width="1.5" stroke-linecap="round" stroke-miterlimit="10" d="M-1201.939-336.599
			c0.154-1.094-0.188-1.174,0.839-1.696c4.481-2.278,10.4-1.075,14.266,2.681c2.953,2.871,4.431,6.064,4.431,12.302"/>
		<path fill="none" stroke="#35495D" stroke-width="1.5" stroke-miterlimit="10" d="M-1202.281-336.554
			c-3.907-1.544-8.206-0.754-11.683,2.076c-3.338,2.716-4.896,7.255-5.015,11.52"/>
		<path fill="none" stroke="#35495D" stroke-width="1.5" stroke-linecap="round" stroke-miterlimit="10" d="M-1201.939-336.599
			c-0.156-1.094,0.186-1.174-0.84-1.696c-4.483-2.278-10.402-1.075-14.267,2.681c-2.954,2.871-4.407,6.064-4.407,12.302"/>
		<path fill="none" stroke="#FFF6BF" stroke-width="1.5" stroke-linecap="round" stroke-miterlimit="10" d="M-1179.608-330.97
			c0.749,0.169,1.438-0.08,2.066-0.452"/>
		<path fill="none" stroke="#FFF6BF" stroke-width="1.5" stroke-linecap="round" stroke-miterlimit="10" d="M-1199.713-344.328
			c0.429-0.604,1.149-1.709,0.978-2.28"/>
		<path fill="none" stroke="#FFF6BF" stroke-width="1.5" stroke-linecap="round" stroke-miterlimit="10" d="M-1187.312-341.693
			c0.127-0.987,1.011-1.187,1.465-1.954"/>
	</g>
	<ellipse fill="none" cx="-1202.129" cy="-328.71" rx="29.09" ry="22.467"/>

		<text transform="matrix(0.0223 -1.059 0.9998 0.021 -1231.2942 -325.2539)" fill="#35495D" font-family="'FredokaOne-Regular'" font-size="7.8152">M</text>

		<text transform="matrix(0.3522 -0.999 0.9431 0.3325 -1230.551 -333.6309)" fill="#35495D" font-family="'FredokaOne-Regular'" font-size="7.8152">i</text>

		<text transform="matrix(0.587 -0.8818 0.8324 0.5541 -1229.4075 -336.8804)" fill="#35495D" font-family="'FredokaOne-Regular'" font-size="7.8149">n</text>

		<text transform="matrix(0.8001 -0.6943 0.6554 0.7553 -1225.7351 -342.0171)" fill="#35495D" font-family="'FredokaOne-Regular'" font-size="7.8152">d</text>

		<text transform="matrix(0.9239 -0.5181 0.4891 0.8722 -1220.8245 -345.9917)" fill="#35495D" font-family="'FredokaOne-Regular'" font-size="7.8152">f</text>

		<text transform="matrix(1.0018 -0.3441 0.3249 0.9458 -1216.3127 -348.4331)" fill="#35495D" font-family="'FredokaOne-Regular'" font-size="7.8156">u</text>

		<text transform="matrix(1.0423 -0.1891 0.1785 0.9839 -1210.1418 -350.3394)" fill="#35495D" font-family="'FredokaOne-Regular'" font-size="7.8149">l</text>

		<text transform="matrix(1.0564 -0.0777 0.0733 0.9973 -1205.9646 -350.9985)" fill="#35495D" font-family="'FredokaOne-Regular'" font-size="7.8152"> </text>

		<text transform="matrix(1.0553 0.0912 -0.0861 0.9963 -1202.4451 -351.3452)" fill="#35495D" font-family="'FredokaOne-Regular'" font-size="7.8152">M</text>

		<text transform="matrix(1.0142 0.3061 -0.2889 0.9574 -1193.9236 -350.3608)" fill="#35495D" font-family="'FredokaOne-Regular'" font-size="7.8148">o</text>

		<text transform="matrix(0.9191 0.5267 -0.4972 0.8676 -1187.8669 -348.5151)" fill="#35495D" font-family="'FredokaOne-Regular'" font-size="7.815">m</text>

		<text transform="matrix(0.7498 0.7483 -0.7064 0.7078 -1180.7878 -344.123)" fill="#35495D" font-family="'FredokaOne-Regular'" font-size="7.8152">e</text>

		<text transform="matrix(0.5154 0.9254 -0.8736 0.4866 -1176.6155 -339.772)" fill="#35495D" font-family="'FredokaOne-Regular'" font-size="7.8152">n</text>

		<text transform="matrix(0.218 1.0366 -0.9786 0.2058 -1173.8 -334.1597)" fill="#35495D" font-family="'FredokaOne-Regular'" font-size="7.8152">t</text>

		<text transform="matrix(-0.0876 1.0557 -0.9966 -0.0827 -1172.9319 -329.2656)" fill="#35495D" font-family="'FredokaOne-Regular'" font-size="7.8152">s</text>
</g>
<g>
	<g>
		<path fill="#F2F8EE" stroke="#96CD7A" stroke-linecap="round" stroke-linejoin="round" stroke-miterlimit="10" d="
			M-1245.706,44.295c-4.12-1.609-4.765-4.467-9.67-8.12c-4.595-3.421-9.295-8.349-12.313-13.1
			c-4.758,8.96-8.957,18.688-13.479,27.417"/>
		<circle fill="#FBD046" cx="-1318.868" cy="26.132" r="33.132"/>
		<path fill="#F2F8EE" stroke="#96CD7A" stroke-linecap="round" stroke-linejoin="round" stroke-miterlimit="10" d="
			M-1315.115,51.542c1.989-6.162,6.876-11.26,10.066-16.658c2.811-4.758,6.235-9.048,8.628-14.072
			c3.771,9.475,7.103,19.759,10.685,28.989"/>
		<path fill="#F2F8EE" stroke="#96CD7A" stroke-linecap="round" stroke-linejoin="round" stroke-miterlimit="10" d="
			M-1303.785,55.071c2.553-4.152,5.489-8.031,8.021-12.199c2.418-3.973,4.291-8.272,6.642-12.287
			c3.059-5.223,6.204-10.524,9.771-15.385c2.839,3.948,3.879,8.956,5.62,13.464c2,5.183,4.198,10.281,6.178,15.476
			c2.808,7.375,11.955,15.952,15.631,23.101"/>
		<path fill="#F2F8EE" stroke="#96CD7A" stroke-linecap="round" stroke-linejoin="round" stroke-miterlimit="10" d="
			M-1350.41,62.747c3.581-9.604,14.373-19.562,20.115-27.979c5.057-7.416,11.224-14.104,15.533-21.934
			c6.788,14.769,14.077,32.045,20.525,46.432"/>
	</g>
	<rect x="-1241.011" y="28.818" fill="none" width="89.873" height="19.802"/>
	<text transform="matrix(1 0 0 1 -1241.012 47.3696)" fill="#96CD7A" font-family="'FredokaOne-Regular'" font-size="24">Mindful</text>
	<rect x="-1249.09" y="47.29" fill="none" width="108.031" height="19.951"/>
	<text transform="matrix(1 0 0 1 -1249.0901 65.8423)" fill="#96CD7A" font-family="'FredokaOne-Regular'" font-size="24">Moments</text>
</g>
<g>
	<path fill="#F2F8EE" stroke="#96CD7A" stroke-linecap="round" stroke-linejoin="round" stroke-miterlimit="10" d="
		M-1251.701,224.185c-4.12-1.61-5.19-4.46-9.214-9.563c-3.546-4.5-7.867-8.558-10.887-13.31
		c-4.757,8.961-8.957,18.688-13.479,27.416"/>
	<circle fill="#FBD046" cx="-1322.979" cy="204.369" r="33.132"/>
	<path fill="#F2F8EE" stroke="#96CD7A" stroke-linecap="round" stroke-linejoin="round" stroke-miterlimit="10" d="
		M-1319.225,229.778c1.989-6.162,6.876-11.26,10.065-16.658c2.811-4.758,6.235-9.047,8.629-14.07
		c3.771,9.475,7.102,19.758,10.684,28.988"/>
	<path fill="#F2F8EE" stroke="#96CD7A" stroke-linecap="round" stroke-linejoin="round" stroke-miterlimit="10" d="
		M-1307.896,233.307c2.552-4.153,5.488-8.032,8.021-12.199c2.418-3.973,4.291-8.273,6.643-12.287
		c3.058-5.223,6.203-10.523,9.77-15.385c2.839,3.947,3.879,8.956,5.62,13.464c2,5.185,4.199,10.281,6.178,15.478
		c2.809,7.375,8.664,14.947,12.34,22.097"/>
	<path fill="#F2F8EE" stroke="#96CD7A" stroke-linecap="round" stroke-linejoin="round" stroke-miterlimit="10" d="
		M-1352.525,238.97c3.581-9.604,12.377-17.552,18.118-25.968c5.058-7.414,11.225-14.104,15.533-21.934
		c6.788,14.77,12.782,30.801,19.231,45.188"/>
</g>
<g>
	<path fill="#F2F8EE" stroke="#96CD7A" stroke-linecap="round" stroke-linejoin="round" stroke-miterlimit="10" d="
		M-1233.632-39.886c-4.488-1.754-5.655-4.859-10.038-10.421c-3.863-4.902-8.569-9.322-11.859-14.499
		c-5.184,9.762-9.76,20.36-14.686,29.869"/>
	<circle fill="#FBD046" cx="-1311.286" cy="-61.475" r="36.097"/>
	<path fill="#F2F8EE" stroke="#96CD7A" stroke-linecap="round" stroke-linejoin="round" stroke-miterlimit="10" d="
		M-1307.197-33.792c2.167-6.714,7.491-12.268,10.968-18.149c3.062-5.184,6.793-9.857,9.399-15.331
		c4.109,10.322,7.737,21.526,11.641,31.583"/>
	<path fill="#F2F8EE" stroke="#96CD7A" stroke-linecap="round" stroke-linejoin="round" stroke-miterlimit="10" d="
		M-1294.854-29.948c2.779-4.524,5.979-8.75,8.739-13.291c2.635-4.328,4.675-9.013,7.234-13.386
		c3.332-5.69,6.76-11.466,10.646-16.761c3.092,4.301,4.226,9.758,6.121,14.669c2.181,5.647,4.576,11.201,6.73,16.86
		c3.06,8.035,9.438,16.285,13.445,24.074"/>
	<path fill="#F2F8EE" stroke="#96CD7A" stroke-linecap="round" stroke-linejoin="round" stroke-miterlimit="10" d="
		M-1343.476-23.778c3.9-10.465,13.483-19.121,19.74-28.29c5.51-8.079,12.228-15.365,16.923-23.896
		c7.395,16.09,13.926,33.557,20.953,49.229"/>
	<rect x="-1228.209" y="-49.87" fill="none" width="66.16" height="19.967"/>
	<text transform="matrix(1 0 0 1 -1228.2083 -36.6753)" fill="#96CD7A" font-family="'FredokaOne-Regular'" font-size="17.0706">Mindful</text>
	<rect x="-1238.549" y="-35.362" fill="none" width="76.473" height="17.578"/>
	<text transform="matrix(1 0 0 1 -1238.5491 -22.1655)" fill="#96CD7A" font-family="'FredokaOne-Regular'" font-size="17.0706">Moments</text>
</g>
<rect x="-1247.59" y="202.37" fill="none" width="106.207" height="23.31"/>
<text transform="matrix(1 0 0 1 -1247.5901 224.0142)" fill="#96CD7A" font-family="'FredokaOne-Regular'" font-size="28">Mindful</text>
<rect x="-1255.59" y="225.167" fill="none" width="125.364" height="22.996"/>
<text transform="matrix(1 0 0 1 -1255.5901 246.811)" fill="#96CD7A" font-family="'FredokaOne-Regular'" font-size="28">Moments</text>
<g>
	<path fill="#F2F8EE" stroke="#96CD7A" stroke-linecap="round" stroke-linejoin="round" stroke-miterlimit="10" d="
		M-1250.471,133.333c-4.119-1.609-5.191-4.459-9.213-9.563c-3.547-4.5-7.867-8.558-10.887-13.31
		c-4.759,8.961-8.957,18.688-13.48,27.416"/>
	<circle fill="#FBD046" cx="-1321.748" cy="113.516" r="33.133"/>
	<path fill="#F2F8EE" stroke="#96CD7A" stroke-linecap="round" stroke-linejoin="round" stroke-miterlimit="10" d="
		M-1317.994,138.924c1.989-6.162,6.876-11.26,10.066-16.657c2.81-4.759,6.234-9.048,8.629-14.071
		c3.771,9.475,7.103,19.758,10.684,28.989"/>
	<path fill="#F2F8EE" stroke="#96CD7A" stroke-linecap="round" stroke-linejoin="round" stroke-miterlimit="10" d="
		M-1306.666,142.456c2.552-4.154,5.49-8.033,8.021-12.199c2.418-3.973,4.291-8.273,6.643-12.287
		c3.057-5.223,6.203-10.524,9.771-15.385c2.838,3.947,3.879,8.955,5.618,13.463c2,5.185,4.199,10.281,6.179,15.478
		c2.809,7.375,8.664,14.947,12.34,22.097"/>
	<path fill="#F2F8EE" stroke="#96CD7A" stroke-linecap="round" stroke-linejoin="round" stroke-miterlimit="10" d="
		M-1351.294,148.118c3.581-9.604,12.377-17.551,18.119-25.967c5.057-7.415,11.224-14.104,15.533-21.934
		c6.788,14.77,12.782,30.801,19.231,45.187"/>
</g>
<rect x="-1246.359" y="113.516" fill="none" width="99.207" height="20.479"/>
<text transform="matrix(1 0 0 1 -1246.3596 133.6138)" fill="#96CD7A" font-family="'FredokaOne-Regular'" font-size="26">Mindful</text>
<rect x="-1254.359" y="134.314" fill="none" width="116.364" height="22.996"/>
<text transform="matrix(1 0 0 1 -1254.3596 154.4126)" fill="#96CD7A" font-family="'FredokaOne-Regular'" font-size="26">Moments</text>
<path fill="#F2F8EE" stroke="#393E41" stroke-linecap="round" stroke-linejoin="round" stroke-miterlimit="10" d="M106.294,51.295
	c-4.12-1.609-4.765-4.467-9.67-8.119c-4.595-3.422-9.295-8.349-12.313-13.1c-4.758,8.96-8.957,18.688-13.479,27.417"/>
<circle fill="#FBD046" cx="33.132" cy="33.132" r="33.132"/>
<path fill="#F2F8EE" stroke="#393E41" stroke-linecap="round" stroke-linejoin="round" stroke-miterlimit="10" d="M36.887,58.542
	c1.987-6.162,6.875-11.26,10.065-16.658c2.811-4.757,6.234-9.047,8.628-14.071c3.771,9.475,7.103,19.759,10.685,28.989"/>
<path fill="#F2F8EE" stroke="#393E41" stroke-linecap="round" stroke-linejoin="round" stroke-miterlimit="10" d="M48.215,62.071
	c2.553-4.152,5.489-8.031,8.021-12.199c2.418-3.973,4.291-8.272,6.642-12.287c3.059-5.223,6.204-10.524,9.771-15.385
	c2.839,3.948,3.879,8.956,5.62,13.464c2,5.183,4.198,10.281,6.178,15.476c2.808,7.375,11.955,15.952,15.631,23.101"/>
<path fill="#F2F8EE" stroke="#393E41" stroke-linecap="round" stroke-linejoin="round" stroke-miterlimit="10" d="M1.59,69.747
	c3.581-9.604,14.373-19.562,20.115-27.979c5.058-7.416,11.225-14.104,15.533-21.934c6.788,14.769,14.077,32.047,20.526,46.432"/>
<rect x="110.989" y="35.818" fill="none" width="89.873" height="19.802"/>
<text transform="matrix(1 0 0 1 110.988 54.3696)" fill="#393E41" font-family="'FredokaOne-Regular'" font-size="24">Mindful</text>
<rect x="102.91" y="54.29" fill="none" width="108.031" height="19.951"/>
<text transform="matrix(1 0 0 1 102.9099 72.8423)" fill="#393E41" font-family="'FredokaOne-Regular'" font-size="24">Moments</text>
</svg>
