<?xml version="1.0" encoding="utf-8"?>
<!-- Generator: Adobe Illustrator 15.0.2, SVG Export Plug-In . SVG Version: 6.00 Build 0)  -->
<!DOCTYPE svg PUBLIC "-//W3C//DTD SVG 1.1//EN" "http://www.w3.org/Graphics/SVG/1.1/DTD/svg11.dtd">
<svg version="1.1" id="Layer_1" xmlns="http://www.w3.org/2000/svg" xmlns:xlink="http://www.w3.org/1999/xlink" x="0px" y="0px"
	 width="319.887px" height="428.318px" viewBox="0 0 319.887 428.318" enable-background="new 0 0 319.887 428.318"
	 xml:space="preserve">
<g>
	<path fill="none" stroke="#000000" stroke-width="2" stroke-linecap="round" stroke-linejoin="round" stroke-miterlimit="10" d="
		M-1593.199-84.958c-1.376-1.972-12.813-10.357-22.889-12.375c-8.538-1.709-18.378,1.253-21.089,9.667
		c-7.897,24.52,25.821,36.334,42.012,46.839c4.132-1.723,7.519-2.941,11.712-4.737c6.196-2.652,14.873-7.048,19.117-10.248
		c8.024-6.049,17.127-12.089,17.844-23.402C-1544.943-103.646-1584.223-105.919-1593.199-84.958"/>
	<path fill="none" stroke="#000000" stroke-width="2" stroke-linecap="round" stroke-linejoin="round" stroke-miterlimit="10" d="
		M-1593.355-77.309c0.035,5.654,0.69,11.297,0.69,17.049"/>
	<path fill="none" stroke="#000000" stroke-width="2" stroke-linecap="round" stroke-linejoin="round" stroke-miterlimit="10" d="
		M-1601.542-68.833c5.651,0.19,11.314-0.243,17.063-0.019"/>
</g>
<g>
	<path fill="none" stroke="#000000" stroke-width="2" stroke-linecap="round" stroke-linejoin="round" stroke-miterlimit="10" d="
		M-1531.743,35.757c-5.519,30.639-3.877,63.386-14.705,93.441c0.613,1.547,0.646-0.668,1.028-1.423"/>
	<path fill="none" stroke="#000000" stroke-width="2" stroke-linecap="round" stroke-linejoin="round" stroke-miterlimit="10" d="
		M-1482.005,39.488c0,34.051-4.127,64.88-9.946,96.991"/>
	<path fill="none" stroke="#000000" stroke-width="2" stroke-linecap="round" stroke-linejoin="round" stroke-miterlimit="10" d="
		M-1561.586,68.087c34.822,11.574,73.331,2.145,108.183,9.947"/>
	<path fill="none" stroke="#000000" stroke-width="2" stroke-linecap="round" stroke-linejoin="round" stroke-miterlimit="10" d="
		M-1565.316,99.175c34.685,7.892,73.223,1.484,106.939,9.947"/>
</g>
<g>
	<path fill="none" stroke="#000000" stroke-width="2" stroke-linecap="round" stroke-linejoin="round" stroke-miterlimit="10" d="
		M-1668.636,135.373c1.516,0.155,2.503,0.308,3.183,1.874c-3.526,6.928-9.56-3.228-3.183-1.247"/>
	<path fill="none" stroke="#000000" stroke-width="2" stroke-linecap="round" stroke-linejoin="round" stroke-miterlimit="10" d="
		M-1669.675,29.867c3.213,30.882,3.393,50.589,3.393,82.566"/>
</g>
<path fill="none" stroke="#000000" stroke-width="2" stroke-linecap="round" stroke-linejoin="round" stroke-miterlimit="10" d="
	M-1959.646-66.523c4.587,2.125,9.794-0.818,14.291,2.552c0.331,12.285,0,0-0.624,12.006c-0.271,5.212-0.602,11.242-0.274,16.626
	c0.595,9.775,4.656,9.942,9.419,12.837c8.875,5.395,25.789,2.117,32.257,18.271c3.76,9.39,2.727,28.967,3.087,40.597
	c0.574,18.544-0.357,37.857-1.403,56.271c-1.008,17.73-1.752,37.504-4.513,54.227c-1.168,7.073-2.943,11.008-6.854,12.484
	c-5.089,1.921-10.186,4.404-15.359,6.135c-8.719,2.917-17.702,3.531-26.425,1.847c-1.062-0.205-2.366-0.768-3.603-0.517"/>
<path fill="none" stroke="#000000" stroke-width="2" stroke-miterlimit="10" d="M-1348.672-58.907c0,6.627-5.373,12-12,12h-105.95
	c-6.627,0-12-5.373-12-12v-105.95c0-6.627,5.373-12,12-12h105.95c6.627,0,12,5.373,12,12V-58.907z"/>
<g>
	<g>
		<path fill="none" stroke="#000000" stroke-width="2" stroke-linecap="round" stroke-linejoin="round" stroke-miterlimit="10" d="
			M-1355.775,36.994c-10.977,5.882-14.059,27.634-12.716,27.947c39.567,9.241,37.45,36.009,38.341,39.805
			c0.609,2.593,8.388-0.006,11.81-1.609c26.678-12.501,35.506-30.772,25.472-51.438
			C-1302.142,32.614-1336.778,22.891-1355.775,36.994"/>
		<path fill="none" stroke="#000000" stroke-width="2" stroke-linecap="round" stroke-linejoin="round" stroke-miterlimit="10" d="
			M-1334.193,87.509c6.121,1.935,14.227-0.038,19.367-2.675c3.703-1.898,7.738-4.846,8.68-9.529
			c0.803-3.99-0.413-10.97-4.424-12.823"/>
		<path fill="none" stroke="#000000" stroke-width="2" stroke-linecap="round" stroke-linejoin="round" stroke-miterlimit="10" d="
			M-1325.665,54.167c3.645,1.445,9.561,0.779,11.225-3.217"/>
		<path fill="none" stroke="#000000" stroke-width="2" stroke-linecap="round" stroke-linejoin="round" stroke-miterlimit="10" d="
			M-1341.453,63.953c-2.118,3.302-7.313,6.213-10.997,3.938"/>
	</g>
	<g>
		<path fill="none" stroke="#000000" stroke-width="2" stroke-linecap="round" stroke-linejoin="round" stroke-miterlimit="10" d="
			M-1388.889,69.975c6.626-4.982,18.296-5.077,26.859-2.748c6.83,1.857,15.129,6.066,19.563,10.842
			c4.562,4.917,8.998,9.788,10.929,16.333c3.591,12.191-2.273,25.674-9.993,35.015c-13.437,16.263-41.812,21.432-57.231,4.401
			C-1412.996,118.084-1409.07,82.325-1388.889,69.975"/>
		<path fill="none" stroke="#000000" stroke-width="2" stroke-linecap="round" stroke-linejoin="round" stroke-miterlimit="10" d="
			M-1349.407,105.212c5.172,10.105-6.533,19.42-14.768,22.564c-3.887,1.485-8.776,2.517-12.891,0.088
			c-3.503-2.07-7.882-7.64-6.579-11.862"/>
		<path fill="none" stroke="#000000" stroke-width="2" stroke-linecap="round" stroke-linejoin="round" stroke-miterlimit="10" d="
			M-1381.3,98.993c-1.361,3.678-5.811,7.633-9.896,6.2"/>
		<path fill="none" stroke="#000000" stroke-width="2" stroke-linecap="round" stroke-linejoin="round" stroke-miterlimit="10" d="
			M-1363.468,93.792c3.872,0.632,9.511-1.288,10.279-5.547"/>
	</g>
</g>
<g>
	<g>
		<path fill="none" stroke="#000000" stroke-width="2" stroke-linecap="round" stroke-linejoin="round" stroke-miterlimit="10" d="
			M-1194.337,72.211c13.691-32.543,26.819-34.618,41.898-32.365c15.491,2.315,18.878,24.094,13.832,42.486
			c-8.844,32.223-35.048,49.582-55.73,60.156"/>
		<path fill="none" stroke="#000000" stroke-width="2" stroke-linecap="round" stroke-linejoin="round" stroke-miterlimit="10" d="
			M-1194.337,72.211c-10.642-29.401-26.819-34.618-41.9-32.365c-15.49,2.315-18.877,24.094-13.83,42.486
			c8.843,32.223,35.046,49.582,55.73,60.156"/>
	</g>
	<g>
		<path fill="none" stroke="#000000" stroke-width="2" stroke-linecap="round" stroke-linejoin="round" stroke-miterlimit="10" d="
			M-1192.837,85.508c-0.168,9.207-1.612,18.347-3,27.333"/>
		<path fill="none" stroke="#000000" stroke-width="2" stroke-linecap="round" stroke-linejoin="round" stroke-miterlimit="10" d="
			M-1207.837,98.175c3.753,0.992,7.851,0.506,11.799,0.659c5.155,0.199,10.074,0.992,15.201,1.008"/>
	</g>
</g>
<g>
	<g>
		<path fill="none" stroke="#000000" stroke-width="2" stroke-linecap="round" stroke-linejoin="round" stroke-miterlimit="10" d="
			M-1344.454,198.81c-11.595,0-23.424-0.697-35,0c-12.177,0.734-10.998,4.752-11,16.003c-0.004,23.173-0.742,63.13-0.742,85.996
			c0,10.667-30.053,11.35-44.012,14.026c-12.556,2.407-26.743,4.896-38.492,9.726c-9.745,4.007-11.251,7.949-13.754,18.253
			c-6.939,28.56-8.383,60.871-10.052,90.444c-2.323,41.167-3.456,82.652-4.948,123.803c-2.717,74.933,114.308,67.862,163.474,65.357
			"/>
		<path fill="none" stroke="#000000" stroke-width="2" stroke-linecap="round" stroke-linejoin="round" stroke-miterlimit="10" d="
			M-1343.659,198.81c11.595,0,23.424-0.697,35,0c12.177,0.734,10.998,4.752,11,16.003c0.004,23.173,0.742,63.13,0.742,85.996
			c0,10.667,30.053,11.35,44.013,14.026c12.556,2.407,26.742,4.896,38.491,9.726c9.745,4.007,11.251,7.949,13.754,18.253
			c6.939,28.56,8.383,60.871,10.052,90.444c2.323,41.167,3.456,82.652,4.948,123.803c2.717,74.933-114.308,67.862-163.474,65.357"/>
	</g>
	<g>
		<path fill="none" stroke="#000000" stroke-linecap="round" stroke-linejoin="round" stroke-miterlimit="10" d="M-1464.666,601.952
			c1.402-0.225,2.326-0.325,3.315,0.92c-1.503,7.082-9.378-0.601-3.164-0.355"/>
		<path fill="none" stroke="#000000" stroke-linecap="round" stroke-linejoin="round" stroke-miterlimit="10" d="M-1491.02,507.29
			c10.331,27.008,15.241,44.693,22.945,73.459"/>
	</g>
	<g>
		<g>
			<path fill="none" stroke="#000000" stroke-linecap="round" stroke-linejoin="round" stroke-miterlimit="10" d="
				M-1362.947,547.571c-8.262-8.14-28.46-4.875-28.368-3.595c2.705,37.743-21.689,43.251-24.819,45.091
				c-2.138,1.258,2.322,7.459,4.692,10.06c18.485,20.277,37.172,23.085,52.785,8.454
				C-1344.244,594.065-1345.158,560.574-1362.947,547.571"/>
			<path fill="none" stroke="#000000" stroke-linecap="round" stroke-linejoin="round" stroke-miterlimit="10" d="
				M-1401.919,580.712c-0.031,5.979,3.962,12.644,7.727,16.487c2.711,2.77,6.446,5.545,10.872,5.09
				c3.77-0.388,9.642-3.396,10.184-7.475"/>
			<path fill="none" stroke="#000000" stroke-linecap="round" stroke-linejoin="round" stroke-miterlimit="10" d="
				M-1369.908,579.092c-0.279,3.641,1.946,8.72,5.96,9.096"/>
			<path fill="none" stroke="#000000" stroke-linecap="round" stroke-linejoin="round" stroke-miterlimit="10" d="
				M-1382.971,567.752c-3.522-0.973-7.545-4.79-6.538-8.694"/>
		</g>
		<g>
			<path fill="none" stroke="#000000" stroke-linecap="round" stroke-linejoin="round" stroke-miterlimit="10" d="
				M-1401.422,527.223c6.261,4.518,9.566,14.872,9.858,23.132c0.234,6.587-1.218,15.13-4.242,20.393
				c-3.113,5.415-6.222,10.706-11.51,14.23c-9.852,6.56-23.463,5.065-33.902,0.779c-18.175-7.463-30.607-31.272-19.715-49.689
				C-1450.869,519.064-1417.979,512.683-1401.422,527.223"/>
			<path fill="none" stroke="#000000" stroke-linecap="round" stroke-linejoin="round" stroke-miterlimit="10" d="
				M-1421.865,572.068c-7.561,7.391-19.076-0.448-24.147-6.906c-2.394-3.047-4.661-7.11-3.637-11.44
				c0.875-3.688,4.619-9.12,8.735-9.127"/>
			<path fill="none" stroke="#000000" stroke-linecap="round" stroke-linejoin="round" stroke-miterlimit="10" d="
				M-1425.139,541.985c-3.647-0.195-8.394-3.062-8.246-7.091"/>
			<path fill="none" stroke="#000000" stroke-linecap="round" stroke-linejoin="round" stroke-miterlimit="10" d="M-1415.589,556.41
				c0.506,3.618,3.77,8.104,7.771,7.611"/>
		</g>
	</g>
	<g>
		<path fill="none" stroke="#000000" stroke-linecap="round" stroke-linejoin="round" stroke-miterlimit="10" d="M-1473.328,431.267
			c2.761,28.861,12.474,57.811,10.328,87.484c0.939,1.234,0.412-0.761,0.564-1.534"/>
		<path fill="none" stroke="#000000" stroke-linecap="round" stroke-linejoin="round" stroke-miterlimit="10" d="M-1427.792,422.095
			c8.569,30.532,12.627,59.215,15.49,89.472"/>
		<path fill="none" stroke="#000000" stroke-linecap="round" stroke-linejoin="round" stroke-miterlimit="10" d="M-1491.951,467.766
			c34.136,1.615,66.292-16.53,99.506-18.305"/>
		<path fill="none" stroke="#000000" stroke-linecap="round" stroke-linejoin="round" stroke-miterlimit="10" d="M-1487.473,496.58
			c33.086-1.651,66.029-17.096,98.391-17.991"/>
	</g>
	<g>
		<g>
			<path fill="none" stroke="#000000" stroke-linecap="round" stroke-linejoin="round" stroke-miterlimit="10" d="
				M-1296.377,528.329c17.923-27.565,30.298-27.299,43.747-22.743c13.816,4.68,13.323,25.201,5.661,41.224
				c-13.428,28.073-40.312,39.655-61.015,45.932"/>
			<path fill="none" stroke="#000000" stroke-linecap="round" stroke-linejoin="round" stroke-miterlimit="10" d="
				M-1296.377,528.329c-4.898-28.704-18.864-36.157-33.058-36.583c-14.58-0.436-21.281,18.966-19.692,36.655
				c2.783,30.995,23.933,51.232,41.144,64.34"/>
		</g>
		<g>
			<path fill="none" stroke="#000000" stroke-linecap="round" stroke-linejoin="round" stroke-miterlimit="10" d="
				M-1297.198,540.764c-1.674,8.41-4.508,16.55-7.264,24.557"/>
			<path fill="none" stroke="#000000" stroke-linecap="round" stroke-linejoin="round" stroke-miterlimit="10" d="
				M-1313.038,549.897c3.276,1.529,7.112,1.761,10.706,2.553c4.692,1.033,9.069,2.572,13.766,3.434"/>
		</g>
	</g>
	<g>
		<path fill="none" stroke="#000000" stroke-linecap="round" stroke-linejoin="round" stroke-miterlimit="10" d="M-1236.542,594.139
			c-0.109-1.415-0.135-2.346,1.186-3.229c6.938,2.072-1.359,9.298-0.61,3.125"/>
		<path fill="none" stroke="#000000" stroke-linecap="round" stroke-linejoin="round" stroke-miterlimit="10" d="M-1333.031,612.718
			c27.756-8.104,45.783-11.561,75.08-16.903"/>
	</g>
	<g>
		<path fill="none" stroke="#000000" stroke-linecap="round" stroke-linejoin="round" stroke-miterlimit="10" d="M-1212.74,574.598
			c1.419-0.001,2.35,0.045,3.129,1.43c-2.6,6.758-9.165-2.069-3.068-0.849"/>
		<path fill="none" stroke="#000000" stroke-linecap="round" stroke-linejoin="round" stroke-miterlimit="10" d="M-1223.854,476.966
			c5.948,28.297,8.011,46.535,11.087,76.156"/>
	</g>
	<g>
		<g>
			<path fill="none" stroke="#000000" stroke-linecap="round" stroke-linejoin="round" stroke-miterlimit="10" d="
				M-1263.167,423.056c-10.452-5.025-28.506,4.603-28.003,5.784c14.779,34.834-6.517,47.943-8.883,50.698
				c-1.616,1.882,4.611,6.305,7.696,7.998c24.055,13.2,42.644,9.807,52.678-9.091
				C-1230.418,460.991-1242.125,429.599-1263.167,423.056"/>
			<path fill="none" stroke="#000000" stroke-linecap="round" stroke-linejoin="round" stroke-miterlimit="10" d="M-1289.31,467.032
				c1.907,5.666,7.843,10.679,12.649,13.097c3.461,1.743,7.894,3.158,11.935,1.297c3.441-1.588,8.022-6.336,7.213-10.37"/>
			<path fill="none" stroke="#000000" stroke-linecap="round" stroke-linejoin="round" stroke-miterlimit="10" d="
				M-1259.547,455.134c0.914,3.535,4.664,7.619,8.584,6.676"/>
			<path fill="none" stroke="#000000" stroke-linecap="round" stroke-linejoin="round" stroke-miterlimit="10" d="
				M-1275.578,448.634c-3.647,0.221-8.689-2.089-9.001-6.108"/>
		</g>
		<g>
			<path fill="none" stroke="#000000" stroke-linecap="round" stroke-linejoin="round" stroke-miterlimit="10" d="
				M-1306.158,416.263c7.386,2.247,13.866,10.974,16.817,18.693c2.354,6.156,3.747,14.709,2.589,20.668
				c-1.194,6.132-2.42,12.143-6.283,17.19c-7.197,9.396-20.559,12.389-31.824,11.713c-19.611-1.175-39.083-19.678-34.741-40.629
				C-1355.583,424.552-1326.53,407.866-1306.158,416.263"/>
			<path fill="none" stroke="#000000" stroke-linecap="round" stroke-linejoin="round" stroke-miterlimit="10" d="M-1310.979,465.31
				c-4.761,9.44-18.194,5.752-25.082,1.285c-3.252-2.108-6.713-5.22-7.146-9.648c-0.366-3.771,1.418-10.124,5.31-11.463"/>
			<path fill="none" stroke="#000000" stroke-linecap="round" stroke-linejoin="round" stroke-miterlimit="10" d="
				M-1323.817,437.908c-3.514,0.996-8.932-0.179-10.098-4.04"/>
			<path fill="none" stroke="#000000" stroke-linecap="round" stroke-linejoin="round" stroke-miterlimit="10" d="
				M-1310.112,448.462c1.652,3.261,6.191,6.447,9.817,4.686"/>
		</g>
	</g>
	<g>
		<path fill="none" stroke="#000000" stroke-linecap="round" stroke-linejoin="round" stroke-miterlimit="10" d="M-1373.316,525.703
			c1.412,0.146,2.332,0.287,2.964,1.745c-3.284,6.453-8.903-3.006-2.964-1.161"/>
		<path fill="none" stroke="#000000" stroke-linecap="round" stroke-linejoin="round" stroke-miterlimit="10" d="M-1374.284,427.445
			c2.992,28.761,3.159,47.114,3.159,76.895"/>
	</g>
	<g>
		<g>
			<path fill="none" stroke="#000000" stroke-linecap="round" stroke-linejoin="round" stroke-miterlimit="10" d="
				M-1428.711,385.256c-19.196,26.694-31.544,25.849-44.765,20.667c-13.581-5.323-12.126-25.797-3.722-41.443
				c14.729-27.414,42.125-37.723,63.1-43.021"/>
			<path fill="none" stroke="#000000" stroke-linecap="round" stroke-linejoin="round" stroke-miterlimit="10" d="
				M-1428.711,385.256c3.546,28.901,17.148,37.001,31.307,38.092c14.544,1.119,22.147-17.947,21.389-35.692
				c-1.327-31.091-21.505-52.297-38.083-66.197"/>
		</g>
		<g>
			<path fill="none" stroke="#000000" stroke-linecap="round" stroke-linejoin="round" stroke-miterlimit="10" d="
				M-1427.308,372.873c2.066-8.323,5.278-16.319,8.407-24.189"/>
			<path fill="none" stroke="#000000" stroke-linecap="round" stroke-linejoin="round" stroke-miterlimit="10" d="
				M-1411.058,364.492c-3.2-1.681-7.021-2.091-10.574-3.05c-4.639-1.253-8.939-2.996-13.59-4.077"/>
		</g>
	</g>
	<g>
		<path fill="none" stroke="#000000" stroke-linecap="round" stroke-linejoin="round" stroke-miterlimit="10" d="M-1292.787,318.041
			c-8.144,27.826-9.864,58.312-22.867,85.073c0.415,1.494,0.664-0.555,1.093-1.217"/>
		<path fill="none" stroke="#000000" stroke-linecap="round" stroke-linejoin="round" stroke-miterlimit="10" d="M-1247.099,326.417
			c-3.368,31.533-10.243,59.674-18.81,88.834"/>
		<path fill="none" stroke="#000000" stroke-linecap="round" stroke-linejoin="round" stroke-miterlimit="10" d="M-1323.622,345.025
			c31.1,14.165,67.693,9.244,99.194,19.92"/>
		<path fill="none" stroke="#000000" stroke-linecap="round" stroke-linejoin="round" stroke-miterlimit="10" d="M-1330.153,373.444
			c31.337,10.741,67.66,8.622,98.043,19.798"/>
	</g>
	<g>
		<path fill="none" stroke="#000000" stroke-linecap="round" stroke-linejoin="round" stroke-miterlimit="10" d="M-1213.439,377.128
			c-1.523-0.013-2.521-0.072-3.345-1.564c2.856-7.231,9.822,2.309,3.286,0.939"/>
		<path fill="none" stroke="#000000" stroke-linecap="round" stroke-linejoin="round" stroke-miterlimit="10" d="M-1202.438,482.064
			c-6.115-30.44-8.155-50.043-11.177-81.877"/>
	</g>
</g>
<g>
	<g>
		<path fill="none" stroke="#FFFFFF" stroke-width="3" stroke-linecap="round" stroke-linejoin="round" stroke-miterlimit="10" d="
			M159.546,1.81c-11.595,0-23.425-0.697-35,0c-12.177,0.734-10.998,4.752-11,16.003c-0.005,23.173-0.742,63.13-0.742,85.996
			c0,10.667-30.053,11.35-44.013,14.026c-12.556,2.407-26.742,4.896-38.491,9.726c-9.745,4.007-11.251,7.949-13.754,18.253
			c-6.939,28.56-8.383,60.871-10.052,90.444c-2.323,41.167-3.456,82.652-4.948,123.803c-2.717,74.933,114.308,67.862,163.474,65.357
			"/>
		<path fill="none" stroke="#FFFFFF" stroke-width="3" stroke-linecap="round" stroke-linejoin="round" stroke-miterlimit="10" d="
			M160.341,1.81c11.595,0,23.425-0.697,35,0c12.177,0.734,10.998,4.752,11,16.003c0.005,23.173,0.742,63.13,0.742,85.996
			c0,10.667,30.053,11.35,44.013,14.026c12.556,2.407,26.742,4.896,38.491,9.726c9.745,4.007,11.251,7.949,13.754,18.253
			c6.939,28.56,8.383,60.871,10.052,90.444c2.323,41.167,3.456,82.652,4.948,123.803c2.717,74.933-114.308,67.862-163.474,65.357"/>
	</g>
	<g>
		<path fill="none" stroke="#FFFFFF" stroke-width="3" stroke-linecap="round" stroke-linejoin="round" stroke-miterlimit="10" d="
			M39.334,404.952c1.402-0.225,2.326-0.325,3.314,0.92c-1.502,7.082-9.377-0.601-3.163-0.355"/>
		<path fill="none" stroke="#FFFFFF" stroke-width="3" stroke-linecap="round" stroke-linejoin="round" stroke-miterlimit="10" d="
			M12.98,310.29c10.33,27.008,15.24,44.693,22.944,73.459"/>
	</g>
	<g>
		<g>
			<path fill="none" stroke="#FFFFFF" stroke-width="3" stroke-linecap="round" stroke-linejoin="round" stroke-miterlimit="10" d="
				M141.053,350.571c-8.262-8.14-28.46-4.875-28.367-3.595c2.705,37.743-21.689,43.251-24.819,45.091
				c-2.138,1.258,2.321,7.459,4.692,10.06c18.484,20.277,37.172,23.085,52.784,8.454
				C159.756,397.065,158.842,363.574,141.053,350.571"/>
			<path fill="none" stroke="#FFFFFF" stroke-width="3" stroke-linecap="round" stroke-linejoin="round" stroke-miterlimit="10" d="
				M102.081,383.712c-0.031,5.979,3.962,12.644,7.727,16.487c2.711,2.77,6.446,5.545,10.872,5.09
				c3.77-0.388,9.643-3.396,10.184-7.475"/>
			<path fill="none" stroke="#FFFFFF" stroke-width="3" stroke-linecap="round" stroke-linejoin="round" stroke-miterlimit="10" d="
				M134.092,382.092c-0.279,3.641,1.946,8.72,5.96,9.096"/>
			<path fill="none" stroke="#FFFFFF" stroke-width="3" stroke-linecap="round" stroke-linejoin="round" stroke-miterlimit="10" d="
				M121.029,370.752c-3.523-0.973-7.545-4.79-6.539-8.694"/>
		</g>
		<g>
			<path fill="none" stroke="#FFFFFF" stroke-width="3" stroke-linecap="round" stroke-linejoin="round" stroke-miterlimit="10" d="
				M102.578,330.223c6.26,4.518,9.565,14.872,9.857,23.132c0.234,6.587-1.219,15.13-4.242,20.393
				c-3.113,5.415-6.222,10.706-11.51,14.23c-9.852,6.56-23.463,5.065-33.902,0.779c-18.174-7.463-30.606-31.272-19.715-49.689
				C53.131,322.064,86.021,315.683,102.578,330.223"/>
			<path fill="none" stroke="#FFFFFF" stroke-width="3" stroke-linecap="round" stroke-linejoin="round" stroke-miterlimit="10" d="
				M82.135,375.068c-7.561,7.391-19.076-0.448-24.146-6.906c-2.395-3.047-4.662-7.11-3.638-11.44
				c0.874-3.688,4.619-9.12,8.735-9.127"/>
			<path fill="none" stroke="#FFFFFF" stroke-width="3" stroke-linecap="round" stroke-linejoin="round" stroke-miterlimit="10" d="
				M78.861,344.985c-3.647-0.195-8.394-3.062-8.246-7.091"/>
			<path fill="none" stroke="#FFFFFF" stroke-width="3" stroke-linecap="round" stroke-linejoin="round" stroke-miterlimit="10" d="
				M88.41,359.41c0.507,3.618,3.771,8.104,7.771,7.611"/>
		</g>
	</g>
	<g>
		<path fill="none" stroke="#FFFFFF" stroke-width="3" stroke-linecap="round" stroke-linejoin="round" stroke-miterlimit="10" d="
			M30.672,234.267c2.762,28.861,12.475,57.811,10.328,87.484c0.939,1.234,0.412-0.761,0.564-1.534"/>
		<path fill="none" stroke="#FFFFFF" stroke-width="3" stroke-linecap="round" stroke-linejoin="round" stroke-miterlimit="10" d="
			M76.208,225.095c8.569,30.532,12.627,59.215,15.489,89.472"/>
		<path fill="none" stroke="#FFFFFF" stroke-width="3" stroke-linecap="round" stroke-linejoin="round" stroke-miterlimit="10" d="
			M12.049,270.766c34.136,1.615,66.292-16.53,99.506-18.305"/>
		<path fill="none" stroke="#FFFFFF" stroke-width="3" stroke-linecap="round" stroke-linejoin="round" stroke-miterlimit="10" d="
			M16.527,299.58c33.086-1.651,66.029-17.096,98.391-17.991"/>
	</g>
	<g>
		<g>
			<path fill="none" stroke="#FFFFFF" stroke-width="3" stroke-linecap="round" stroke-linejoin="round" stroke-miterlimit="10" d="
				M207.623,331.329c17.924-27.565,30.299-27.299,43.747-22.743c13.816,4.68,13.323,25.201,5.661,41.224
				c-13.428,28.073-40.312,39.655-61.015,45.932"/>
			<path fill="none" stroke="#FFFFFF" stroke-width="3" stroke-linecap="round" stroke-linejoin="round" stroke-miterlimit="10" d="
				M207.623,331.329c-4.898-28.704-18.863-36.157-33.059-36.583c-14.58-0.436-21.28,18.966-19.691,36.655
				c2.783,30.995,23.932,51.232,41.144,64.34"/>
		</g>
		<g>
			<path fill="none" stroke="#FFFFFF" stroke-width="3" stroke-linecap="round" stroke-linejoin="round" stroke-miterlimit="10" d="
				M206.802,343.764c-1.675,8.41-4.508,16.55-7.264,24.557"/>
			<path fill="none" stroke="#FFFFFF" stroke-width="3" stroke-linecap="round" stroke-linejoin="round" stroke-miterlimit="10" d="
				M190.962,352.897c3.276,1.529,7.112,1.761,10.706,2.553c4.691,1.033,9.068,2.572,13.766,3.434"/>
		</g>
	</g>
	<g>
		<path fill="none" stroke="#FFFFFF" stroke-width="3" stroke-linecap="round" stroke-linejoin="round" stroke-miterlimit="10" d="
			M267.458,397.139c-0.109-1.415-0.135-2.346,1.186-3.229c6.938,2.072-1.359,9.298-0.61,3.125"/>
		<path fill="none" stroke="#FFFFFF" stroke-width="3" stroke-linecap="round" stroke-linejoin="round" stroke-miterlimit="10" d="
			M170.969,415.718c27.756-8.104,45.783-11.561,75.08-16.903"/>
	</g>
	<g>
		<path fill="none" stroke="#FFFFFF" stroke-width="3" stroke-linecap="round" stroke-linejoin="round" stroke-miterlimit="10" d="
			M291.26,377.598c1.419-0.001,2.35,0.045,3.129,1.43c-2.6,6.758-9.165-2.069-3.068-0.849"/>
		<path fill="none" stroke="#FFFFFF" stroke-width="3" stroke-linecap="round" stroke-linejoin="round" stroke-miterlimit="10" d="
			M280.146,279.966c5.948,28.297,8.011,46.535,11.087,76.156"/>
	</g>
	<g>
		<g>
			<path fill="none" stroke="#FFFFFF" stroke-width="3" stroke-linecap="round" stroke-linejoin="round" stroke-miterlimit="10" d="
				M240.834,226.056c-10.452-5.025-28.506,4.603-28.004,5.784c14.779,34.834-6.518,47.943-8.883,50.698
				c-1.616,1.882,4.611,6.305,7.695,7.998c24.055,13.2,42.645,9.807,52.679-9.091C273.582,263.991,261.875,232.599,240.834,226.056"
				/>
			<path fill="none" stroke="#FFFFFF" stroke-width="3" stroke-linecap="round" stroke-linejoin="round" stroke-miterlimit="10" d="
				M214.69,270.032c1.907,5.666,7.843,10.679,12.649,13.097c3.461,1.743,7.895,3.158,11.935,1.297
				c3.44-1.588,8.022-6.336,7.213-10.37"/>
			<path fill="none" stroke="#FFFFFF" stroke-width="3" stroke-linecap="round" stroke-linejoin="round" stroke-miterlimit="10" d="
				M244.453,258.134c0.914,3.535,4.664,7.619,8.584,6.676"/>
			<path fill="none" stroke="#FFFFFF" stroke-width="3" stroke-linecap="round" stroke-linejoin="round" stroke-miterlimit="10" d="
				M228.422,251.634c-3.646,0.221-8.689-2.089-9.001-6.108"/>
		</g>
		<g>
			<path fill="none" stroke="#FFFFFF" stroke-width="3" stroke-linecap="round" stroke-linejoin="round" stroke-miterlimit="10" d="
				M197.842,219.263c7.387,2.247,13.867,10.974,16.817,18.693c2.354,6.156,3.747,14.709,2.589,20.668
				c-1.193,6.132-2.42,12.143-6.283,17.19c-7.197,9.396-20.559,12.389-31.824,11.713c-19.61-1.175-39.082-19.678-34.74-40.629
				C148.417,227.552,177.47,210.866,197.842,219.263"/>
			<path fill="none" stroke="#FFFFFF" stroke-width="3" stroke-linecap="round" stroke-linejoin="round" stroke-miterlimit="10" d="
				M193.021,268.31c-4.761,9.44-18.194,5.752-25.082,1.285c-3.253-2.108-6.713-5.22-7.146-9.648
				c-0.367-3.771,1.418-10.124,5.309-11.463"/>
			<path fill="none" stroke="#FFFFFF" stroke-width="3" stroke-linecap="round" stroke-linejoin="round" stroke-miterlimit="10" d="
				M180.183,240.908c-3.514,0.996-8.932-0.179-10.098-4.04"/>
			<path fill="none" stroke="#FFFFFF" stroke-width="3" stroke-linecap="round" stroke-linejoin="round" stroke-miterlimit="10" d="
				M193.888,251.462c1.651,3.261,6.191,6.447,9.817,4.686"/>
		</g>
	</g>
	<g>
		<path fill="none" stroke="#FFFFFF" stroke-width="3" stroke-linecap="round" stroke-linejoin="round" stroke-miterlimit="10" d="
			M130.684,328.703c1.412,0.146,2.332,0.287,2.965,1.745c-3.284,6.453-8.904-3.006-2.965-1.161"/>
		<path fill="none" stroke="#FFFFFF" stroke-width="3" stroke-linecap="round" stroke-linejoin="round" stroke-miterlimit="10" d="
			M129.717,230.445c2.992,28.761,3.158,47.114,3.158,76.895"/>
	</g>
	<g>
		<g>
			<path fill="none" stroke="#FFFFFF" stroke-width="3" stroke-linecap="round" stroke-linejoin="round" stroke-miterlimit="10" d="
				M75.289,188.256c-19.196,26.694-31.545,25.849-44.766,20.667c-13.581-5.323-12.127-25.797-3.723-41.443
				c14.729-27.414,42.126-37.723,63.101-43.021"/>
			<path fill="none" stroke="#FFFFFF" stroke-width="3" stroke-linecap="round" stroke-linejoin="round" stroke-miterlimit="10" d="
				M75.289,188.256c3.546,28.901,17.147,37.001,31.307,38.092c14.544,1.119,22.146-17.947,21.389-35.692
				c-1.326-31.091-21.505-52.297-38.083-66.197"/>
		</g>
		<g>
			<path fill="none" stroke="#FFFFFF" stroke-width="3" stroke-linecap="round" stroke-linejoin="round" stroke-miterlimit="10" d="
				M76.691,175.873c2.066-8.323,5.279-16.319,8.407-24.189"/>
			<path fill="none" stroke="#FFFFFF" stroke-width="3" stroke-linecap="round" stroke-linejoin="round" stroke-miterlimit="10" d="
				M92.942,167.492c-3.2-1.681-7.021-2.091-10.573-3.05c-4.639-1.253-8.939-2.996-13.591-4.077"/>
		</g>
	</g>
	<g>
		<path fill="none" stroke="#FFFFFF" stroke-width="3" stroke-linecap="round" stroke-linejoin="round" stroke-miterlimit="10" d="
			M211.213,121.041c-8.143,27.826-9.863,58.312-22.866,85.073c0.415,1.494,0.664-0.555,1.093-1.217"/>
		<path fill="none" stroke="#FFFFFF" stroke-width="3" stroke-linecap="round" stroke-linejoin="round" stroke-miterlimit="10" d="
			M256.901,129.417c-3.368,31.533-10.243,59.674-18.81,88.834"/>
		<path fill="none" stroke="#FFFFFF" stroke-width="3" stroke-linecap="round" stroke-linejoin="round" stroke-miterlimit="10" d="
			M180.378,148.025c31.101,14.165,67.693,9.244,99.194,19.92"/>
		<path fill="none" stroke="#FFFFFF" stroke-width="3" stroke-linecap="round" stroke-linejoin="round" stroke-miterlimit="10" d="
			M173.847,176.444c31.337,10.741,67.659,8.622,98.043,19.798"/>
	</g>
	<g>
		<path fill="none" stroke="#FFFFFF" stroke-width="3" stroke-linecap="round" stroke-linejoin="round" stroke-miterlimit="10" d="
			M290.561,180.128c-1.523-0.013-2.521-0.072-3.345-1.564c2.856-7.231,9.822,2.309,3.286,0.939"/>
		<path fill="none" stroke="#FFFFFF" stroke-width="3" stroke-linecap="round" stroke-linejoin="round" stroke-miterlimit="10" d="
			M301.562,285.064c-6.115-30.44-8.155-50.043-11.177-81.877"/>
	</g>
</g>
</svg>
