<?xml version="1.0" encoding="utf-8"?>
<!-- Generator: Adobe Illustrator 15.0.2, SVG Export Plug-In . SVG Version: 6.00 Build 0)  -->
<!DOCTYPE svg PUBLIC "-//W3C//DTD SVG 1.1//EN" "http://www.w3.org/Graphics/SVG/1.1/DTD/svg11.dtd">
<svg version="1.1" id="Layer_1" xmlns="http://www.w3.org/2000/svg" xmlns:xlink="http://www.w3.org/1999/xlink" x="0px" y="0px"
	 width="6.694px" height="70.833px" viewBox="0 0 6.694 70.833" enable-background="new 0 0 6.694 70.833" xml:space="preserve">
<g>
	<g>
		<path fill="none" stroke="#000000" stroke-width="5" stroke-linecap="round" stroke-linejoin="round" stroke-miterlimit="10" d="
			M-1874.418,120.849c-5.424,1.294-10.479,7.297-12.947,12.732c-1.967,4.333-1.902,9.907-2.087,14.574
			c-0.181,4.508,0.52,9.068,3.083,12.878c4.771,7.089,14.271,9.834,22.419,9.843c14.188,0.018,29.038-12.462,26.832-27.755
			C-1839.159,129-1859.367,115.693-1874.418,120.849"/>
		<path fill="none" stroke="#000000" stroke-width="5" stroke-linecap="round" stroke-linejoin="round" stroke-miterlimit="10" d="
			M-1878.69,150.922c1.841,9.676,14.819,9.822,22.131,7.588c3.454-1.055,7.353-2.953,8.875-6.806
			c1.298-3.284,1.33-9.431-1.812-11.63"/>
		<path fill="none" stroke="#000000" stroke-width="5" stroke-linecap="round" stroke-linejoin="round" stroke-miterlimit="10" d="
			M-1860.533,133.978c2.891,1.793,8.045,2.132,10.079-1.027"/>
		<path fill="none" stroke="#000000" stroke-width="5" stroke-linecap="round" stroke-linejoin="round" stroke-miterlimit="10" d="
			M-1871.977,139.02c-2.312,2.494-7.195,4.183-9.991,1.675"/>
	</g>
	<g>
		
			<path fill="#FFFFFF" stroke="#000000" stroke-width="5" stroke-linecap="round" stroke-linejoin="round" stroke-miterlimit="10" d="
			M-1913.358,119.678c-5.568-0.283-12.108,4.056-16.004,8.576c-3.108,3.606-4.612,8.972-6.105,13.398
			c-1.44,4.275-2.05,8.849-0.664,13.223c2.586,8.147,10.929,13.454,18.747,15.756c13.609,4.007,31.37-3.79,33.555-19.084
			C-1881.816,137.421-1897.462,118.967-1913.358,119.678"/>
		<path fill="none" stroke="#000000" stroke-width="5" stroke-linecap="round" stroke-linejoin="round" stroke-miterlimit="10" d="
			M-1925.919,147.336c-0.955,9.803,11.457,13.593,19.104,13.507c3.61-0.039,7.885-0.764,10.431-4.035
			c2.169-2.786,3.929-8.675,1.533-11.668"/>
		<path fill="none" stroke="#000000" stroke-width="5" stroke-linecap="round" stroke-linejoin="round" stroke-miterlimit="10" d="
			M-1903.727,136.184c2.27,2.534,7.121,4.309,9.96,1.852"/>
		<path fill="none" stroke="#000000" stroke-width="5" stroke-linecap="round" stroke-linejoin="round" stroke-miterlimit="10" d="
			M-1916.124,137.802c-2.924,1.743-8.085,1.99-10.062-1.203"/>
	</g>
</g>
<path fill="none" stroke="#000000" stroke-width="2" stroke-linecap="round" stroke-linejoin="round" stroke-miterlimit="10" d="
	M-1635.124,534.059c-3.092-2.039-8.75-0.869-11,3.157c-3.585,3.665,1.48,16.412,10.262,14.512
	C-1627.121,549.836-1627.874,537.466-1635.124,534.059"/>
<path fill="none" stroke="#000000" stroke-width="2" stroke-linecap="round" stroke-linejoin="round" stroke-miterlimit="10" d="
	M-1644.754,525.374c0.3-7.1-3.39-14.422-3.978-22.026c-0.606-7.835-0.359-14.724-2.109-24.611c-0.986-5.57-0.479-11.399-1-16.974
	c-0.471-5.037-2.024-10.796-1.436-15.812c9.397,0.073,19.504,5.345,28.962,6.423c7.346,0.836,15.784-0.729,22.91,1.073
	c-2.189,13.164-5.592,24.868-11.56,37.427c-2.733,5.75-5.111,11.645-7.863,17.474c-2.792,5.915-6.848,11.811-9.1,17.938
	C-1633.871,526.952-1640.623,525.374-1644.754,525.374"/>
<g>
	<path fill="none" stroke="#000000" stroke-width="2" stroke-linecap="round" stroke-linejoin="round" stroke-miterlimit="10" d="
		M-1772.528,420.019c0.124,2.262-0.461,4.723-0.651,6.975c-0.373,4.417-0.653,8.788-0.649,13.222
		c0.005,5.973-0.312,11.761-0.813,17.679"/>
	<path fill="none" stroke="#000000" stroke-width="2" stroke-linecap="round" stroke-linejoin="round" stroke-miterlimit="10" d="
		M-1754.247,456.752c0.124-2.262-0.46-4.723-0.651-6.975c-0.373-4.417-0.653-8.788-0.649-13.222
		c0.005-5.973-0.312-11.76-0.813-17.679"/>
	<path fill="none" stroke="#000000" stroke-width="2" stroke-linecap="round" stroke-linejoin="round" stroke-miterlimit="10" d="
		M-1745.31,432.359c-2.255,0.217-4.737-0.266-6.997-0.364c-4.427-0.191-8.807-0.292-13.237-0.105
		c-5.967,0.25-11.763,0.172-17.697-0.086"/>
	<path fill="none" stroke="#000000" stroke-width="2" stroke-linecap="round" stroke-linejoin="round" stroke-miterlimit="10" d="
		M-1745.321,444.926c-2.26-0.164-4.73,0.375-6.986,0.524c-4.423,0.292-8.798,0.493-13.231,0.409
		c-5.971-0.114-11.764,0.097-17.69,0.49"/>
</g>
<g>
	<path fill="none" stroke="#000000" stroke-width="5" stroke-linecap="round" stroke-linejoin="round" stroke-miterlimit="10" d="
		M-2069.323,129.493c-1.376-1.972-12.813-10.357-22.889-12.375c-8.538-1.709-18.378,1.253-21.089,9.667
		c-7.897,24.52,25.821,36.334,42.012,46.839c4.132-1.723,7.519-2.941,11.712-4.737c6.196-2.652,14.873-7.048,19.117-10.248
		c8.024-6.049,17.127-12.089,17.844-23.402C-2021.067,110.805-2060.347,108.531-2069.323,129.493"/>
	<path fill="none" stroke="#000000" stroke-width="5" stroke-linecap="round" stroke-linejoin="round" stroke-miterlimit="10" d="
		M-2069.479,137.142c0.035,5.654,0.69,11.297,0.69,17.049"/>
	<path fill="none" stroke="#000000" stroke-width="5" stroke-linecap="round" stroke-linejoin="round" stroke-miterlimit="10" d="
		M-2077.666,145.617c5.651,0.19,11.314-0.243,17.063-0.019"/>
</g>
<g>
	<path fill="none" stroke="#000000" stroke-width="5" stroke-linecap="round" stroke-linejoin="round" stroke-miterlimit="10" d="
		M-1778.94,109.638c-3.948,21.919-2.774,45.346-10.52,66.847c0.439,1.107,0.462-0.478,0.735-1.018"/>
	<path fill="none" stroke="#000000" stroke-width="5" stroke-linecap="round" stroke-linejoin="round" stroke-miterlimit="10" d="
		M-1743.358,112.308c0,24.359-2.952,46.415-7.115,69.386"/>
	<path fill="none" stroke="#000000" stroke-width="5" stroke-linecap="round" stroke-linejoin="round" stroke-miterlimit="10" d="
		M-1800.29,132.767c24.911,8.28,52.46,1.534,77.393,7.116"/>
	<path fill="none" stroke="#000000" stroke-width="5" stroke-linecap="round" stroke-linejoin="round" stroke-miterlimit="10" d="
		M-1802.958,155.007c24.813,5.646,52.383,1.062,76.503,7.116"/>
</g>
<g>
	<path fill="none" stroke="#000000" stroke-width="5" stroke-linecap="round" stroke-linejoin="round" stroke-miterlimit="10" d="
		M-1977.771,175.661c0.937,0.096,1.546,0.19,1.966,1.157c-2.178,4.279-5.904-1.994-1.966-0.77"/>
	<path fill="none" stroke="#000000" stroke-width="5" stroke-linecap="round" stroke-linejoin="round" stroke-miterlimit="10" d="
		M-1978.413,110.5c1.984,19.073,2.095,31.244,2.095,50.993"/>
</g>
<path fill="none" stroke="#000000" stroke-width="2" stroke-linecap="round" stroke-linejoin="round" stroke-miterlimit="10" d="
	M-2234.64,161.617c4.587,2.125,9.794-0.818,14.291,2.552c0.331,12.285,0,0-0.624,12.006c-0.271,5.212-0.602,11.242-0.274,16.626
	c0.595,9.775,4.656,9.942,9.419,12.837c8.875,5.395,25.789,2.117,32.257,18.271c3.76,9.39,2.727,28.967,3.087,40.597
	c0.574,18.544-0.357,37.857-1.403,56.271c-1.008,17.73-1.752,37.504-4.513,54.227c-1.168,7.073-2.943,11.008-6.854,12.484
	c-5.089,1.921-10.186,4.404-15.359,6.135c-8.719,2.917-17.702,3.531-26.425,1.847c-1.062-0.205-2.366-0.768-3.603-0.517"/>
<g>
	<path fill="none" stroke="#FCFAFB" stroke-width="3" stroke-linecap="round" stroke-linejoin="round" stroke-miterlimit="10" d="
		M-112.323,433.493c-1.376-1.972-12.813-10.357-22.889-12.375c-8.538-1.709-18.378,1.253-21.089,9.667
		c-7.897,24.52,25.821,36.334,42.012,46.839c4.133-1.723,7.519-2.941,11.712-4.736c6.196-2.652,14.872-7.049,19.116-10.248
		c8.025-6.049,17.127-12.09,17.844-23.402C-64.067,414.805-103.348,412.531-112.323,433.493"/>
	<path fill="none" stroke="#FCFAFB" stroke-width="3" stroke-linecap="round" stroke-linejoin="round" stroke-miterlimit="10" d="
		M-112.479,444.142c0.034,5.654,0.689,11.297,0.689,17.049"/>
	<path fill="none" stroke="#FCFAFB" stroke-width="3" stroke-linecap="round" stroke-linejoin="round" stroke-miterlimit="10" d="
		M-120.666,452.617c5.652,0.19,11.314-0.243,17.063-0.019"/>
</g>
<g>
	<path fill="none" stroke="#FCFAFB" stroke-width="3" stroke-linecap="round" stroke-linejoin="round" stroke-miterlimit="10" d="
		M3.229,66.661c0.937,0.096,1.547,0.19,1.966,1.157c-2.178,4.279-5.904-1.994-1.966-0.77"/>
	<path fill="none" stroke="#FCFAFB" stroke-width="3" stroke-linecap="round" stroke-linejoin="round" stroke-miterlimit="10" d="
		M2.587,1.5c1.984,19.073,2.095,31.244,2.095,50.993"/>
</g>
<g>
	<path fill="none" stroke="#FCFAFB" stroke-width="3" stroke-linecap="round" stroke-linejoin="round" stroke-miterlimit="10" d="
		M739.582,414.849c-5.425,1.294-10.479,7.297-12.947,12.732c-0.17,0.376-0.535,0.742-0.467,1.155
		c0.588,3.526,8.525,12.026,1.079,25.7c-0.113,0.208,0.251,0.4,0.384,0.598c4.771,7.088,14.271,9.834,22.42,9.843
		c14.188,0.018,29.037-12.462,26.832-27.755C774.841,423,754.633,409.693,739.582,414.849"/>
	<path fill="none" stroke="#FCFAFB" stroke-width="3" stroke-linecap="round" stroke-linejoin="round" stroke-miterlimit="10" d="
		M735.31,444.922c1.841,9.676,14.819,9.822,22.131,7.588c3.454-1.055,7.353-2.953,8.874-6.806c1.299-3.284,1.33-9.431-1.811-11.63"
		/>
	<path fill="none" stroke="#FCFAFB" stroke-width="3" stroke-linecap="round" stroke-linejoin="round" stroke-miterlimit="10" d="
		M753.845,429.07c2.494,1.547,6.94,1.839,8.695-0.886"/>
	<path fill="none" stroke="#FCFAFB" stroke-width="3" stroke-linecap="round" stroke-linejoin="round" stroke-miterlimit="10" d="
		M744.979,432.819c-1.994,2.151-6.207,3.608-8.619,1.445"/>
	<path fill="none" stroke="#FCFAFB" stroke-width="3" stroke-linecap="round" stroke-linejoin="round" stroke-miterlimit="10" d="
		M700.643,413.678c-5.568-0.283-12.109,4.056-16.005,8.576c-3.108,3.606-4.612,8.972-6.104,13.398
		c-1.441,4.275-2.051,8.849-0.664,13.223c2.586,8.147,10.929,13.455,18.746,15.756c13.609,4.008,31.371-3.789,33.556-19.084
		C732.184,431.421,716.537,412.967,700.643,413.678"/>
	<path fill="none" stroke="#FCFAFB" stroke-width="3" stroke-linecap="round" stroke-linejoin="round" stroke-miterlimit="10" d="
		M688.081,441.336c-0.954,9.803,11.456,13.593,19.104,13.507c3.609-0.039,7.885-0.765,10.431-4.034
		c2.169-2.787,3.929-8.676,1.533-11.669"/>
	<path fill="none" stroke="#FCFAFB" stroke-width="3" stroke-linecap="round" stroke-linejoin="round" stroke-miterlimit="10" d="
		M709.302,429.973c1.958,2.187,6.143,3.717,8.593,1.597"/>
	<path fill="none" stroke="#FCFAFB" stroke-width="3" stroke-linecap="round" stroke-linejoin="round" stroke-miterlimit="10" d="
		M697.894,431.369c-2.522,1.504-6.975,1.716-8.68-1.038"/>
</g>
</svg>
