<?xml version="1.0" encoding="utf-8"?>
<!-- Generator: Adobe Illustrator 15.0.2, SVG Export Plug-In . SVG Version: 6.00 Build 0)  -->
<!DOCTYPE svg PUBLIC "-//W3C//DTD SVG 1.1//EN" "http://www.w3.org/Graphics/SVG/1.1/DTD/svg11.dtd">
<svg version="1.1" id="Layer_1" xmlns="http://www.w3.org/2000/svg" xmlns:xlink="http://www.w3.org/1999/xlink" x="0px" y="0px"
	 width="121.402px" height="117.06px" viewBox="0 0 121.402 117.06" enable-background="new 0 0 121.402 117.06"
	 xml:space="preserve">
<g>
	<path fill="none" stroke="#000000" stroke-width="2" stroke-linecap="round" stroke-linejoin="round" stroke-miterlimit="10" d="
		M-2572.451-244.753c-1.376-1.972-12.813-10.357-22.889-12.375c-8.538-1.709-18.378,1.253-21.089,9.667
		c-7.897,24.52,25.821,36.334,42.012,46.839c4.132-1.723,7.519-2.941,11.712-4.737c6.196-2.652,14.873-7.048,19.117-10.248
		c8.024-6.049,17.127-12.089,17.844-23.402C-2524.195-263.441-2563.475-265.715-2572.451-244.753"/>
	<path fill="none" stroke="#000000" stroke-width="2" stroke-linecap="round" stroke-linejoin="round" stroke-miterlimit="10" d="
		M-2572.607-237.104c0.035,5.654,0.69,11.297,0.69,17.049"/>
	<path fill="none" stroke="#000000" stroke-width="2" stroke-linecap="round" stroke-linejoin="round" stroke-miterlimit="10" d="
		M-2580.793-228.629c5.651,0.19,11.314-0.243,17.063-0.019"/>
</g>
<g>
	<path fill="none" stroke="#000000" stroke-width="2" stroke-linecap="round" stroke-linejoin="round" stroke-miterlimit="10" d="
		M-2510.995-124.039c-5.519,30.639-3.877,63.386-14.705,93.441c0.613,1.547,0.646-0.668,1.028-1.423"/>
	<path fill="none" stroke="#000000" stroke-width="2" stroke-linecap="round" stroke-linejoin="round" stroke-miterlimit="10" d="
		M-2461.257-120.308c0,34.051-4.127,64.88-9.946,96.991"/>
	<path fill="none" stroke="#000000" stroke-width="2" stroke-linecap="round" stroke-linejoin="round" stroke-miterlimit="10" d="
		M-2540.838-91.708c34.822,11.574,73.331,2.145,108.183,9.947"/>
	<path fill="none" stroke="#000000" stroke-width="2" stroke-linecap="round" stroke-linejoin="round" stroke-miterlimit="10" d="
		M-2544.568-60.621c34.685,7.892,73.223,1.484,106.939,9.947"/>
</g>
<g>
	<path fill="none" stroke="#000000" stroke-width="2" stroke-linecap="round" stroke-linejoin="round" stroke-miterlimit="10" d="
		M-2647.888-24.423c1.516,0.155,2.503,0.308,3.183,1.874c-3.526,6.928-9.56-3.228-3.183-1.247"/>
	<path fill="none" stroke="#000000" stroke-width="2" stroke-linecap="round" stroke-linejoin="round" stroke-miterlimit="10" d="
		M-2648.927-129.929c3.213,30.882,3.393,50.589,3.393,82.566"/>
</g>
<path fill="none" stroke="#000000" stroke-width="2" stroke-linecap="round" stroke-linejoin="round" stroke-miterlimit="10" d="
	M-2938.898-226.319c4.587,2.125,9.794-0.818,14.291,2.552c0.331,12.285,0,0-0.624,12.006c-0.271,5.212-0.602,11.242-0.274,16.626
	c0.595,9.775,4.656,9.942,9.419,12.837c8.875,5.395,25.789,2.117,32.257,18.271c3.76,9.39,2.727,28.967,3.087,40.597
	c0.574,18.544-0.357,37.857-1.403,56.271c-1.008,17.73-1.752,37.504-4.513,54.227c-1.168,7.073-2.943,11.008-6.854,12.484
	c-5.089,1.921-10.186,4.404-15.359,6.135c-8.719,2.917-17.702,3.531-26.425,1.847c-1.062-0.205-2.366-0.768-3.603-0.517"/>
<path fill="none" stroke="#000000" stroke-width="2" stroke-miterlimit="10" d="M-2327.924-218.703c0,6.627-5.373,12-12,12h-105.95
	c-6.627,0-12-5.373-12-12v-105.95c0-6.627,5.373-12,12-12h105.95c6.627,0,12,5.373,12,12V-218.703z"/>
<g>
	<g>
		<path fill="none" stroke="#000000" stroke-width="2" stroke-linecap="round" stroke-linejoin="round" stroke-miterlimit="10" d="
			M-2335.027-122.802c-10.977,5.882-14.059,27.634-12.716,27.947c39.567,9.241,37.45,36.009,38.341,39.805
			c0.609,2.593,8.388-0.006,11.81-1.609c26.678-12.501,35.506-30.772,25.472-51.438
			C-2281.394-127.182-2316.03-136.905-2335.027-122.802"/>
		<path fill="none" stroke="#000000" stroke-width="2" stroke-linecap="round" stroke-linejoin="round" stroke-miterlimit="10" d="
			M-2313.445-72.287c6.121,1.935,14.227-0.038,19.367-2.675c3.703-1.898,7.738-4.846,8.68-9.529
			c0.803-3.99-0.413-10.97-4.424-12.823"/>
		<path fill="none" stroke="#000000" stroke-width="2" stroke-linecap="round" stroke-linejoin="round" stroke-miterlimit="10" d="
			M-2304.917-105.629c3.645,1.445,9.561,0.779,11.225-3.217"/>
		<path fill="none" stroke="#000000" stroke-width="2" stroke-linecap="round" stroke-linejoin="round" stroke-miterlimit="10" d="
			M-2320.705-95.843c-2.118,3.302-7.313,6.213-10.997,3.938"/>
	</g>
	<g>
		<path fill="none" stroke="#000000" stroke-width="2" stroke-linecap="round" stroke-linejoin="round" stroke-miterlimit="10" d="
			M-2368.141-89.821c6.626-4.982,18.296-5.077,26.859-2.748c6.83,1.857,15.129,6.066,19.563,10.842
			c4.562,4.917,8.998,9.788,10.929,16.333c3.591,12.191-2.273,25.674-9.993,35.015c-13.437,16.263-41.812,21.432-57.231,4.401
			C-2392.248-41.711-2388.322-77.471-2368.141-89.821"/>
		<path fill="none" stroke="#000000" stroke-width="2" stroke-linecap="round" stroke-linejoin="round" stroke-miterlimit="10" d="
			M-2328.659-54.583c5.172,10.105-6.533,19.42-14.768,22.564c-3.887,1.485-8.776,2.517-12.891,0.088
			c-3.503-2.07-7.882-7.64-6.579-11.862"/>
		<path fill="none" stroke="#000000" stroke-width="2" stroke-linecap="round" stroke-linejoin="round" stroke-miterlimit="10" d="
			M-2360.552-60.803c-1.361,3.678-5.811,7.633-9.896,6.2"/>
		<path fill="none" stroke="#000000" stroke-width="2" stroke-linecap="round" stroke-linejoin="round" stroke-miterlimit="10" d="
			M-2342.72-66.003c3.872,0.632,9.511-1.288,10.279-5.547"/>
	</g>
</g>
<g>
	<g>
		<path fill="none" stroke="#000000" stroke-width="2" stroke-linecap="round" stroke-linejoin="round" stroke-miterlimit="10" d="
			M-2173.589-87.585c13.691-32.543,26.819-34.618,41.898-32.365c15.491,2.315,18.878,24.094,13.832,42.486
			c-8.844,32.223-35.048,49.582-55.73,60.156"/>
		<path fill="none" stroke="#000000" stroke-width="2" stroke-linecap="round" stroke-linejoin="round" stroke-miterlimit="10" d="
			M-2173.589-87.585c-10.642-29.401-26.819-34.618-41.9-32.365c-15.49,2.315-18.877,24.094-13.83,42.486
			c8.843,32.223,35.046,49.582,55.73,60.156"/>
	</g>
	<g>
		<path fill="none" stroke="#000000" stroke-width="2" stroke-linecap="round" stroke-linejoin="round" stroke-miterlimit="10" d="
			M-2172.089-74.288c-0.168,9.207-1.612,18.347-3,27.333"/>
		<path fill="none" stroke="#000000" stroke-width="2" stroke-linecap="round" stroke-linejoin="round" stroke-miterlimit="10" d="
			M-2187.089-61.621c3.753,0.992,7.851,0.506,11.799,0.659c5.155,0.199,10.074,0.992,15.201,1.008"/>
	</g>
</g>
<g>
	<g>
		<path fill="none" stroke="#000000" stroke-width="2" stroke-linecap="round" stroke-linejoin="round" stroke-miterlimit="10" d="
			M-2323.706,39.014c-11.595,0-23.424-0.697-35,0c-12.177,0.734-10.998,4.752-11,16.003c-0.004,23.173-0.742,63.13-0.742,85.996
			c0,10.667-30.053,11.35-44.012,14.026c-12.556,2.407-26.743,4.896-38.492,9.726c-9.745,4.007-11.251,7.949-13.754,18.253
			c-6.939,28.56-8.383,60.871-10.052,90.444c-2.323,41.167-3.456,82.652-4.948,123.803c-2.717,74.933,114.308,67.862,163.474,65.357
			"/>
		<path fill="none" stroke="#000000" stroke-width="2" stroke-linecap="round" stroke-linejoin="round" stroke-miterlimit="10" d="
			M-2322.911,39.014c11.595,0,23.424-0.697,35,0c12.177,0.734,10.998,4.752,11,16.003c0.004,23.173,0.742,63.13,0.742,85.996
			c0,10.667,30.053,11.35,44.013,14.026c12.556,2.407,26.742,4.896,38.491,9.726c9.745,4.007,11.251,7.949,13.754,18.253
			c6.939,28.56,8.383,60.871,10.052,90.444c2.323,41.167,3.456,82.652,4.948,123.803c2.717,74.933-114.308,67.862-163.474,65.357"/>
	</g>
	<g>
		<path fill="none" stroke="#000000" stroke-linecap="round" stroke-linejoin="round" stroke-miterlimit="10" d="M-2443.918,442.156
			c1.402-0.225,2.326-0.325,3.315,0.92c-1.503,7.082-9.378-0.601-3.164-0.355"/>
		<path fill="none" stroke="#000000" stroke-linecap="round" stroke-linejoin="round" stroke-miterlimit="10" d="M-2470.272,347.494
			c10.331,27.008,15.241,44.693,22.945,73.459"/>
	</g>
	<g>
		<g>
			<path fill="none" stroke="#000000" stroke-linecap="round" stroke-linejoin="round" stroke-miterlimit="10" d="
				M-2342.199,387.775c-8.262-8.14-28.46-4.875-28.368-3.595c2.705,37.743-21.689,43.251-24.819,45.091
				c-2.138,1.258,2.322,7.459,4.692,10.06c18.485,20.277,37.172,23.085,52.785,8.454
				C-2323.496,434.269-2324.41,400.778-2342.199,387.775"/>
			<path fill="none" stroke="#000000" stroke-linecap="round" stroke-linejoin="round" stroke-miterlimit="10" d="
				M-2381.171,420.917c-0.031,5.979,3.962,12.644,7.727,16.487c2.711,2.77,6.446,5.545,10.872,5.09
				c3.77-0.388,9.642-3.396,10.184-7.475"/>
			<path fill="none" stroke="#000000" stroke-linecap="round" stroke-linejoin="round" stroke-miterlimit="10" d="M-2349.16,419.296
				c-0.279,3.641,1.946,8.72,5.96,9.096"/>
			<path fill="none" stroke="#000000" stroke-linecap="round" stroke-linejoin="round" stroke-miterlimit="10" d="
				M-2362.223,407.957c-3.522-0.973-7.545-4.79-6.538-8.694"/>
		</g>
		<g>
			<path fill="none" stroke="#000000" stroke-linecap="round" stroke-linejoin="round" stroke-miterlimit="10" d="
				M-2380.674,367.427c6.261,4.518,9.566,14.872,9.858,23.132c0.234,6.587-1.218,15.13-4.242,20.393
				c-3.113,5.415-6.222,10.706-11.51,14.23c-9.852,6.56-23.463,5.065-33.902,0.779c-18.175-7.463-30.607-31.272-19.715-49.689
				C-2430.121,359.268-2397.231,352.887-2380.674,367.427"/>
			<path fill="none" stroke="#000000" stroke-linecap="round" stroke-linejoin="round" stroke-miterlimit="10" d="
				M-2401.117,412.272c-7.561,7.391-19.076-0.448-24.147-6.906c-2.394-3.047-4.661-7.11-3.637-11.44
				c0.875-3.688,4.619-9.12,8.735-9.127"/>
			<path fill="none" stroke="#000000" stroke-linecap="round" stroke-linejoin="round" stroke-miterlimit="10" d="
				M-2404.391,382.189c-3.647-0.195-8.394-3.062-8.246-7.091"/>
			<path fill="none" stroke="#000000" stroke-linecap="round" stroke-linejoin="round" stroke-miterlimit="10" d="
				M-2394.841,396.614c0.506,3.618,3.77,8.104,7.771,7.611"/>
		</g>
	</g>
	<g>
		<path fill="none" stroke="#000000" stroke-linecap="round" stroke-linejoin="round" stroke-miterlimit="10" d="M-2452.58,271.471
			c2.761,28.861,12.474,57.811,10.328,87.484c0.939,1.234,0.412-0.761,0.564-1.534"/>
		<path fill="none" stroke="#000000" stroke-linecap="round" stroke-linejoin="round" stroke-miterlimit="10" d="M-2407.044,262.299
			c8.569,30.532,12.627,59.215,15.49,89.472"/>
		<path fill="none" stroke="#000000" stroke-linecap="round" stroke-linejoin="round" stroke-miterlimit="10" d="M-2471.203,307.97
			c34.136,1.615,66.292-16.53,99.506-18.305"/>
		<path fill="none" stroke="#000000" stroke-linecap="round" stroke-linejoin="round" stroke-miterlimit="10" d="M-2466.725,336.784
			c33.086-1.651,66.029-17.096,98.391-17.991"/>
	</g>
	<g>
		<g>
			<path fill="none" stroke="#000000" stroke-linecap="round" stroke-linejoin="round" stroke-miterlimit="10" d="
				M-2275.629,368.533c17.923-27.565,30.298-27.299,43.747-22.743c13.816,4.68,13.323,25.201,5.661,41.224
				c-13.428,28.073-40.312,39.655-61.015,45.932"/>
			<path fill="none" stroke="#000000" stroke-linecap="round" stroke-linejoin="round" stroke-miterlimit="10" d="
				M-2275.629,368.533c-4.898-28.704-18.864-36.157-33.058-36.583c-14.58-0.436-21.281,18.966-19.692,36.655
				c2.783,30.995,23.933,51.232,41.144,64.34"/>
		</g>
		<g>
			<path fill="none" stroke="#000000" stroke-linecap="round" stroke-linejoin="round" stroke-miterlimit="10" d="M-2276.45,380.968
				c-1.674,8.41-4.508,16.55-7.264,24.557"/>
			<path fill="none" stroke="#000000" stroke-linecap="round" stroke-linejoin="round" stroke-miterlimit="10" d="M-2292.29,390.101
				c3.276,1.529,7.112,1.761,10.706,2.553c4.692,1.033,9.069,2.572,13.766,3.434"/>
		</g>
	</g>
	<g>
		<path fill="none" stroke="#000000" stroke-linecap="round" stroke-linejoin="round" stroke-miterlimit="10" d="M-2215.794,434.343
			c-0.109-1.415-0.135-2.346,1.186-3.229c6.938,2.072-1.359,9.298-0.61,3.125"/>
		<path fill="none" stroke="#000000" stroke-linecap="round" stroke-linejoin="round" stroke-miterlimit="10" d="M-2312.283,452.922
			c27.756-8.104,45.783-11.561,75.08-16.903"/>
	</g>
	<g>
		<path fill="none" stroke="#000000" stroke-linecap="round" stroke-linejoin="round" stroke-miterlimit="10" d="M-2191.992,414.802
			c1.419-0.001,2.35,0.045,3.129,1.43c-2.6,6.758-9.165-2.069-3.068-0.849"/>
		<path fill="none" stroke="#000000" stroke-linecap="round" stroke-linejoin="round" stroke-miterlimit="10" d="M-2203.106,317.17
			c5.948,28.297,8.011,46.535,11.087,76.156"/>
	</g>
	<g>
		<g>
			<path fill="none" stroke="#000000" stroke-linecap="round" stroke-linejoin="round" stroke-miterlimit="10" d="M-2242.418,263.26
				c-10.452-5.025-28.506,4.603-28.003,5.784c14.779,34.834-6.517,47.943-8.883,50.698c-1.616,1.882,4.611,6.305,7.696,7.998
				c24.055,13.2,42.644,9.807,52.678-9.091C-2209.67,301.195-2221.377,269.803-2242.418,263.26"/>
			<path fill="none" stroke="#000000" stroke-linecap="round" stroke-linejoin="round" stroke-miterlimit="10" d="
				M-2268.562,307.236c1.907,5.666,7.843,10.679,12.649,13.097c3.461,1.743,7.894,3.158,11.935,1.297
				c3.441-1.588,8.022-6.336,7.213-10.37"/>
			<path fill="none" stroke="#000000" stroke-linecap="round" stroke-linejoin="round" stroke-miterlimit="10" d="
				M-2238.799,295.338c0.914,3.535,4.664,7.619,8.584,6.676"/>
			<path fill="none" stroke="#000000" stroke-linecap="round" stroke-linejoin="round" stroke-miterlimit="10" d="M-2254.83,288.838
				c-3.647,0.221-8.689-2.089-9.001-6.108"/>
		</g>
		<g>
			<path fill="none" stroke="#000000" stroke-linecap="round" stroke-linejoin="round" stroke-miterlimit="10" d="M-2285.41,256.467
				c7.386,2.247,13.866,10.974,16.817,18.693c2.354,6.156,3.747,14.709,2.589,20.668c-1.194,6.132-2.42,12.143-6.283,17.19
				c-7.197,9.396-20.559,12.389-31.824,11.713c-19.611-1.175-39.083-19.678-34.741-40.629
				C-2334.835,264.756-2305.782,248.07-2285.41,256.467"/>
			<path fill="none" stroke="#000000" stroke-linecap="round" stroke-linejoin="round" stroke-miterlimit="10" d="
				M-2290.231,305.514c-4.761,9.44-18.194,5.752-25.082,1.285c-3.252-2.108-6.713-5.22-7.146-9.648
				c-0.366-3.771,1.418-10.124,5.31-11.463"/>
			<path fill="none" stroke="#000000" stroke-linecap="round" stroke-linejoin="round" stroke-miterlimit="10" d="
				M-2303.069,278.112c-3.514,0.996-8.932-0.179-10.098-4.04"/>
			<path fill="none" stroke="#000000" stroke-linecap="round" stroke-linejoin="round" stroke-miterlimit="10" d="
				M-2289.364,288.667c1.652,3.261,6.191,6.447,9.817,4.686"/>
		</g>
	</g>
	<g>
		<path fill="none" stroke="#000000" stroke-linecap="round" stroke-linejoin="round" stroke-miterlimit="10" d="M-2352.568,365.907
			c1.412,0.146,2.332,0.287,2.964,1.745c-3.284,6.453-8.903-3.006-2.964-1.161"/>
		<path fill="none" stroke="#000000" stroke-linecap="round" stroke-linejoin="round" stroke-miterlimit="10" d="M-2353.536,267.649
			c2.992,28.761,3.159,47.114,3.159,76.895"/>
	</g>
	<g>
		<g>
			<path fill="none" stroke="#000000" stroke-linecap="round" stroke-linejoin="round" stroke-miterlimit="10" d="M-2407.963,225.46
				c-19.196,26.694-31.544,25.849-44.765,20.667c-13.581-5.323-12.126-25.797-3.722-41.443c14.729-27.414,42.125-37.723,63.1-43.021
				"/>
			<path fill="none" stroke="#000000" stroke-linecap="round" stroke-linejoin="round" stroke-miterlimit="10" d="M-2407.963,225.46
				c3.546,28.901,17.148,37.001,31.307,38.092c14.544,1.119,22.147-17.947,21.389-35.692c-1.327-31.091-21.505-52.297-38.083-66.197
				"/>
		</g>
		<g>
			<path fill="none" stroke="#000000" stroke-linecap="round" stroke-linejoin="round" stroke-miterlimit="10" d="M-2406.56,213.077
				c2.066-8.323,5.278-16.319,8.407-24.189"/>
			<path fill="none" stroke="#000000" stroke-linecap="round" stroke-linejoin="round" stroke-miterlimit="10" d="M-2390.31,204.696
				c-3.2-1.681-7.021-2.091-10.574-3.05c-4.639-1.253-8.939-2.996-13.59-4.077"/>
		</g>
	</g>
	<g>
		<path fill="none" stroke="#000000" stroke-linecap="round" stroke-linejoin="round" stroke-miterlimit="10" d="M-2272.039,158.245
			c-8.144,27.826-9.864,58.312-22.867,85.073c0.415,1.494,0.664-0.555,1.093-1.217"/>
		<path fill="none" stroke="#000000" stroke-linecap="round" stroke-linejoin="round" stroke-miterlimit="10" d="M-2226.351,166.622
			c-3.368,31.533-10.243,59.674-18.81,88.834"/>
		<path fill="none" stroke="#000000" stroke-linecap="round" stroke-linejoin="round" stroke-miterlimit="10" d="M-2302.874,185.229
			c31.1,14.165,67.693,9.244,99.194,19.92"/>
		<path fill="none" stroke="#000000" stroke-linecap="round" stroke-linejoin="round" stroke-miterlimit="10" d="M-2309.405,213.648
			c31.337,10.741,67.66,8.622,98.043,19.798"/>
	</g>
	<g>
		<path fill="none" stroke="#000000" stroke-linecap="round" stroke-linejoin="round" stroke-miterlimit="10" d="M-2192.691,217.333
			c-1.523-0.013-2.521-0.072-3.345-1.564c2.856-7.231,9.822,2.309,3.286,0.939"/>
		<path fill="none" stroke="#000000" stroke-linecap="round" stroke-linejoin="round" stroke-miterlimit="10" d="M-2181.69,322.268
			c-6.115-30.44-8.155-50.043-11.177-81.877"/>
	</g>
</g>
<g>
	<g>
		<path fill="none" stroke="#FFFFFF" stroke-width="3" stroke-linecap="round" stroke-linejoin="round" stroke-miterlimit="10" d="
			M-819.706-157.986c-11.595,0-23.425-0.697-35,0c-12.177,0.734-10.998,4.752-11,16.003c-0.005,23.173-0.742,63.13-0.742,85.996
			c0,10.667-30.053,11.35-44.013,14.026c-12.556,2.407-26.742,4.896-38.491,9.726c-9.745,4.007-11.251,7.949-13.754,18.253
			c-6.939,28.56-8.383,60.871-10.052,90.444c-2.323,41.167-3.456,82.652-4.948,123.803c-2.717,74.933,114.308,67.862,163.474,65.357
			"/>
		<path fill="none" stroke="#FFFFFF" stroke-width="3" stroke-linecap="round" stroke-linejoin="round" stroke-miterlimit="10" d="
			M-818.911-157.986c11.595,0,23.425-0.697,35,0c12.177,0.734,10.998,4.752,11,16.003c0.005,23.173,0.742,63.13,0.742,85.996
			c0,10.667,30.053,11.35,44.013,14.026c12.556,2.407,26.742,4.896,38.491,9.726c9.745,4.007,11.251,7.949,13.754,18.253
			c6.939,28.56,8.383,60.871,10.052,90.444c2.323,41.167,3.456,82.652,4.948,123.803c2.717,74.933-114.308,67.862-163.474,65.357"/>
	</g>
	<g>
		<path fill="none" stroke="#FFFFFF" stroke-width="3" stroke-linecap="round" stroke-linejoin="round" stroke-miterlimit="10" d="
			M-939.918,245.156c1.402-0.225,2.326-0.325,3.314,0.92c-1.502,7.082-9.377-0.601-3.163-0.355"/>
		<path fill="none" stroke="#FFFFFF" stroke-width="3" stroke-linecap="round" stroke-linejoin="round" stroke-miterlimit="10" d="
			M-966.271,150.494c10.33,27.008,15.24,44.693,22.944,73.459"/>
	</g>
	<g>
		<g>
			<path fill="none" stroke="#FFFFFF" stroke-width="3" stroke-linecap="round" stroke-linejoin="round" stroke-miterlimit="10" d="
				M-838.199,190.775c-8.262-8.14-28.46-4.875-28.367-3.595c2.705,37.743-21.689,43.251-24.819,45.091
				c-2.138,1.258,2.321,7.459,4.692,10.06c18.484,20.277,37.172,23.085,52.784,8.454
				C-819.496,237.269-820.41,203.778-838.199,190.775"/>
			<path fill="none" stroke="#FFFFFF" stroke-width="3" stroke-linecap="round" stroke-linejoin="round" stroke-miterlimit="10" d="
				M-877.171,223.917c-0.031,5.979,3.962,12.644,7.727,16.487c2.711,2.77,6.446,5.545,10.872,5.09
				c3.77-0.388,9.643-3.396,10.184-7.475"/>
			<path fill="none" stroke="#FFFFFF" stroke-width="3" stroke-linecap="round" stroke-linejoin="round" stroke-miterlimit="10" d="
				M-845.16,222.296c-0.279,3.641,1.946,8.72,5.96,9.096"/>
			<path fill="none" stroke="#FFFFFF" stroke-width="3" stroke-linecap="round" stroke-linejoin="round" stroke-miterlimit="10" d="
				M-858.223,210.957c-3.523-0.973-7.545-4.79-6.539-8.694"/>
		</g>
		<g>
			<path fill="none" stroke="#FFFFFF" stroke-width="3" stroke-linecap="round" stroke-linejoin="round" stroke-miterlimit="10" d="
				M-876.674,170.427c6.26,4.518,9.565,14.872,9.857,23.132c0.234,6.587-1.219,15.13-4.242,20.393
				c-3.113,5.415-6.222,10.706-11.51,14.23c-9.852,6.56-23.463,5.065-33.902,0.779c-18.174-7.463-30.606-31.272-19.715-49.689
				C-926.121,162.268-893.231,155.887-876.674,170.427"/>
			<path fill="none" stroke="#FFFFFF" stroke-width="3" stroke-linecap="round" stroke-linejoin="round" stroke-miterlimit="10" d="
				M-897.117,215.272c-7.561,7.391-19.076-0.448-24.146-6.906c-2.395-3.047-4.662-7.11-3.638-11.44
				c0.874-3.688,4.619-9.12,8.735-9.127"/>
			<path fill="none" stroke="#FFFFFF" stroke-width="3" stroke-linecap="round" stroke-linejoin="round" stroke-miterlimit="10" d="
				M-900.391,185.189c-3.647-0.195-8.394-3.062-8.246-7.091"/>
			<path fill="none" stroke="#FFFFFF" stroke-width="3" stroke-linecap="round" stroke-linejoin="round" stroke-miterlimit="10" d="
				M-890.842,199.614c0.507,3.618,3.771,8.104,7.771,7.611"/>
		</g>
	</g>
	<g>
		<path fill="none" stroke="#FFFFFF" stroke-width="3" stroke-linecap="round" stroke-linejoin="round" stroke-miterlimit="10" d="
			M-948.58,74.471c2.762,28.861,12.475,57.811,10.328,87.484c0.939,1.234,0.412-0.761,0.564-1.534"/>
		<path fill="none" stroke="#FFFFFF" stroke-width="3" stroke-linecap="round" stroke-linejoin="round" stroke-miterlimit="10" d="
			M-903.044,65.299c8.569,30.532,12.627,59.215,15.489,89.472"/>
		<path fill="none" stroke="#FFFFFF" stroke-width="3" stroke-linecap="round" stroke-linejoin="round" stroke-miterlimit="10" d="
			M-967.203,110.97c34.136,1.615,66.292-16.53,99.506-18.305"/>
		<path fill="none" stroke="#FFFFFF" stroke-width="3" stroke-linecap="round" stroke-linejoin="round" stroke-miterlimit="10" d="
			M-962.725,139.784c33.086-1.651,66.029-17.096,98.391-17.991"/>
	</g>
	<g>
		<g>
			<path fill="none" stroke="#FFFFFF" stroke-width="3" stroke-linecap="round" stroke-linejoin="round" stroke-miterlimit="10" d="
				M-771.629,171.533c17.924-27.565,30.299-27.299,43.747-22.743c13.816,4.68,13.323,25.201,5.661,41.224
				c-13.428,28.073-40.312,39.655-61.015,45.932"/>
			<path fill="none" stroke="#FFFFFF" stroke-width="3" stroke-linecap="round" stroke-linejoin="round" stroke-miterlimit="10" d="
				M-771.629,171.533c-4.898-28.704-18.863-36.157-33.059-36.583c-14.58-0.436-21.28,18.966-19.691,36.655
				c2.783,30.995,23.932,51.232,41.144,64.34"/>
		</g>
		<g>
			<path fill="none" stroke="#FFFFFF" stroke-width="3" stroke-linecap="round" stroke-linejoin="round" stroke-miterlimit="10" d="
				M-772.45,183.968c-1.675,8.41-4.508,16.55-7.264,24.557"/>
			<path fill="none" stroke="#FFFFFF" stroke-width="3" stroke-linecap="round" stroke-linejoin="round" stroke-miterlimit="10" d="
				M-788.29,193.101c3.276,1.529,7.112,1.761,10.706,2.553c4.691,1.033,9.068,2.572,13.766,3.434"/>
		</g>
	</g>
	<g>
		<path fill="none" stroke="#FFFFFF" stroke-width="3" stroke-linecap="round" stroke-linejoin="round" stroke-miterlimit="10" d="
			M-711.794,237.343c-0.109-1.415-0.135-2.346,1.186-3.229c6.938,2.072-1.359,9.298-0.61,3.125"/>
		<path fill="none" stroke="#FFFFFF" stroke-width="3" stroke-linecap="round" stroke-linejoin="round" stroke-miterlimit="10" d="
			M-808.283,255.922c27.756-8.104,45.783-11.561,75.08-16.903"/>
	</g>
	<g>
		<path fill="none" stroke="#FFFFFF" stroke-width="3" stroke-linecap="round" stroke-linejoin="round" stroke-miterlimit="10" d="
			M-687.992,217.802c1.419-0.001,2.35,0.045,3.129,1.43c-2.6,6.758-9.165-2.069-3.068-0.849"/>
		<path fill="none" stroke="#FFFFFF" stroke-width="3" stroke-linecap="round" stroke-linejoin="round" stroke-miterlimit="10" d="
			M-699.106,120.17c5.948,28.297,8.011,46.535,11.087,76.156"/>
	</g>
	<g>
		<g>
			<path fill="none" stroke="#FFFFFF" stroke-width="3" stroke-linecap="round" stroke-linejoin="round" stroke-miterlimit="10" d="
				M-738.418,66.26c-10.452-5.025-28.506,4.603-28.004,5.784c14.779,34.834-6.518,47.943-8.883,50.698
				c-1.616,1.882,4.611,6.305,7.695,7.998c24.055,13.2,42.645,9.807,52.679-9.091C-705.67,104.195-717.377,72.803-738.418,66.26"/>
			<path fill="none" stroke="#FFFFFF" stroke-width="3" stroke-linecap="round" stroke-linejoin="round" stroke-miterlimit="10" d="
				M-764.562,110.236c1.907,5.666,7.843,10.679,12.649,13.097c3.461,1.743,7.895,3.158,11.935,1.297
				c3.44-1.588,8.022-6.336,7.213-10.37"/>
			<path fill="none" stroke="#FFFFFF" stroke-width="3" stroke-linecap="round" stroke-linejoin="round" stroke-miterlimit="10" d="
				M-734.799,98.338c0.914,3.535,4.664,7.619,8.584,6.676"/>
			<path fill="none" stroke="#FFFFFF" stroke-width="3" stroke-linecap="round" stroke-linejoin="round" stroke-miterlimit="10" d="
				M-750.83,91.838c-3.646,0.221-8.689-2.089-9.001-6.108"/>
		</g>
		<g>
			<path fill="none" stroke="#FFFFFF" stroke-width="3" stroke-linecap="round" stroke-linejoin="round" stroke-miterlimit="10" d="
				M-781.41,59.467c7.387,2.247,13.867,10.974,16.817,18.693c2.354,6.156,3.747,14.709,2.589,20.668
				c-1.193,6.132-2.42,12.143-6.283,17.19c-7.197,9.396-20.559,12.389-31.824,11.713c-19.61-1.175-39.082-19.678-34.74-40.629
				C-830.835,67.756-801.782,51.07-781.41,59.467"/>
			<path fill="none" stroke="#FFFFFF" stroke-width="3" stroke-linecap="round" stroke-linejoin="round" stroke-miterlimit="10" d="
				M-786.231,108.514c-4.761,9.44-18.194,5.752-25.082,1.285c-3.253-2.108-6.713-5.22-7.146-9.648
				c-0.367-3.771,1.418-10.124,5.309-11.463"/>
			<path fill="none" stroke="#FFFFFF" stroke-width="3" stroke-linecap="round" stroke-linejoin="round" stroke-miterlimit="10" d="
				M-799.069,81.112c-3.514,0.996-8.932-0.179-10.098-4.04"/>
			<path fill="none" stroke="#FFFFFF" stroke-width="3" stroke-linecap="round" stroke-linejoin="round" stroke-miterlimit="10" d="
				M-785.364,91.667c1.651,3.261,6.191,6.447,9.817,4.686"/>
		</g>
	</g>
	<g>
		<path fill="none" stroke="#FFFFFF" stroke-width="3" stroke-linecap="round" stroke-linejoin="round" stroke-miterlimit="10" d="
			M-848.568,168.907c1.412,0.146,2.332,0.287,2.965,1.745c-3.284,6.453-8.904-3.006-2.965-1.161"/>
		<path fill="none" stroke="#FFFFFF" stroke-width="3" stroke-linecap="round" stroke-linejoin="round" stroke-miterlimit="10" d="
			M-849.535,70.649c2.992,28.761,3.158,47.114,3.158,76.895"/>
	</g>
	<g>
		<g>
			<path fill="none" stroke="#FFFFFF" stroke-width="3" stroke-linecap="round" stroke-linejoin="round" stroke-miterlimit="10" d="
				M-903.963,28.46c-19.196,26.694-31.545,25.849-44.766,20.667c-13.581-5.323-12.127-25.797-3.723-41.443
				c14.729-27.414,42.126-37.723,63.101-43.021"/>
			<path fill="none" stroke="#FFFFFF" stroke-width="3" stroke-linecap="round" stroke-linejoin="round" stroke-miterlimit="10" d="
				M-903.963,28.46c3.546,28.901,17.147,37.001,31.307,38.092c14.544,1.119,22.146-17.947,21.389-35.692
				c-1.326-31.091-21.505-52.297-38.083-66.197"/>
		</g>
		<g>
			<path fill="none" stroke="#FFFFFF" stroke-width="3" stroke-linecap="round" stroke-linejoin="round" stroke-miterlimit="10" d="
				M-902.561,16.077c2.066-8.323,5.279-16.319,8.407-24.189"/>
			<path fill="none" stroke="#FFFFFF" stroke-width="3" stroke-linecap="round" stroke-linejoin="round" stroke-miterlimit="10" d="
				M-886.31,7.696c-3.2-1.681-7.021-2.091-10.573-3.05c-4.639-1.253-8.939-2.996-13.591-4.077"/>
		</g>
	</g>
	<g>
		<path fill="none" stroke="#FFFFFF" stroke-width="3" stroke-linecap="round" stroke-linejoin="round" stroke-miterlimit="10" d="
			M-768.039-38.755c-8.143,27.826-9.863,58.312-22.866,85.073c0.415,1.494,0.664-0.555,1.093-1.217"/>
		<path fill="none" stroke="#FFFFFF" stroke-width="3" stroke-linecap="round" stroke-linejoin="round" stroke-miterlimit="10" d="
			M-722.351-30.378c-3.368,31.533-10.243,59.674-18.81,88.834"/>
		<path fill="none" stroke="#FFFFFF" stroke-width="3" stroke-linecap="round" stroke-linejoin="round" stroke-miterlimit="10" d="
			M-798.874-11.771c31.101,14.165,67.693,9.244,99.194,19.92"/>
		<path fill="none" stroke="#FFFFFF" stroke-width="3" stroke-linecap="round" stroke-linejoin="round" stroke-miterlimit="10" d="
			M-805.405,16.648c31.337,10.741,67.659,8.622,98.043,19.798"/>
	</g>
	<g>
		<path fill="none" stroke="#FFFFFF" stroke-width="3" stroke-linecap="round" stroke-linejoin="round" stroke-miterlimit="10" d="
			M-688.691,20.333c-1.523-0.013-2.521-0.072-3.345-1.564c2.856-7.231,9.822,2.309,3.286,0.939"/>
		<path fill="none" stroke="#FFFFFF" stroke-width="3" stroke-linecap="round" stroke-linejoin="round" stroke-miterlimit="10" d="
			M-677.69,125.268c-6.115-30.44-8.155-50.043-11.177-81.877"/>
	</g>
</g>
<g>
	<g>
		<path fill="none" stroke="#FFFFFF" stroke-width="3" stroke-linecap="round" stroke-linejoin="round" stroke-miterlimit="10" d="
			M52.973,8.198C41.996,14.08,38.914,35.832,40.257,36.145c39.567,9.241,37.45,36.009,38.341,39.805
			c0.609,2.593,8.389-0.007,11.81-1.609c26.679-12.502,35.507-30.772,25.472-51.439C106.605,3.818,71.971-5.905,52.973,8.198"/>
		<path fill="none" stroke="#FFFFFF" stroke-width="3" stroke-linecap="round" stroke-linejoin="round" stroke-miterlimit="10" d="
			M74.555,58.713c6.121,1.935,14.227-0.038,19.367-2.675c3.703-1.898,7.738-4.846,8.68-9.529c0.804-3.99-0.412-10.97-4.424-12.823"
			/>
		<path fill="none" stroke="#FFFFFF" stroke-width="3" stroke-linecap="round" stroke-linejoin="round" stroke-miterlimit="10" d="
			M83.083,25.371c3.645,1.445,9.561,0.779,11.225-3.217"/>
		<path fill="none" stroke="#FFFFFF" stroke-width="3" stroke-linecap="round" stroke-linejoin="round" stroke-miterlimit="10" d="
			M67.295,35.157c-2.117,3.302-7.313,6.213-10.996,3.938"/>
	</g>
	<g>
		<path fill="none" stroke="#FFFFFF" stroke-width="3" stroke-linecap="round" stroke-linejoin="round" stroke-miterlimit="10" d="
			M19.859,41.179c6.626-4.982,18.297-5.077,26.859-2.748c6.83,1.857,15.129,6.066,19.563,10.842
			c4.562,4.917,8.998,9.788,10.929,16.333c3.592,12.191-2.273,25.674-9.992,35.015c-13.438,16.263-41.812,21.433-57.232,4.401
			C-4.248,89.289-0.322,53.529,19.859,41.179"/>
		<path fill="none" stroke="#FFFFFF" stroke-width="3" stroke-linecap="round" stroke-linejoin="round" stroke-miterlimit="10" d="
			M59.341,76.417c5.172,10.105-6.532,19.42-14.769,22.564c-3.887,1.485-8.775,2.517-12.891,0.088
			c-3.502-2.07-7.882-7.64-6.578-11.862"/>
		<path fill="none" stroke="#FFFFFF" stroke-width="3" stroke-linecap="round" stroke-linejoin="round" stroke-miterlimit="10" d="
			M27.448,70.198c-1.361,3.678-5.811,7.633-9.896,6.199"/>
		<path fill="none" stroke="#FFFFFF" stroke-width="3" stroke-linecap="round" stroke-linejoin="round" stroke-miterlimit="10" d="
			M45.28,64.997c3.872,0.632,9.511-1.287,10.278-5.547"/>
	</g>
</g>
</svg>
