<?xml version="1.0" encoding="utf-8"?>
<!-- Generator: Adobe Illustrator 15.0.2, SVG Export Plug-In . SVG Version: 6.00 Build 0)  -->
<!DOCTYPE svg PUBLIC "-//W3C//DTD SVG 1.1//EN" "http://www.w3.org/Graphics/SVG/1.1/DTD/svg11.dtd">
<svg version="1.1" id="Layer_1" xmlns="http://www.w3.org/2000/svg" xmlns:xlink="http://www.w3.org/1999/xlink" x="0px" y="0px"
	 width="156.622px" height="265.862px" viewBox="0 0 156.622 265.862" enable-background="new 0 0 156.622 265.862"
	 xml:space="preserve">
<g>
	<path fill="none" stroke="#FCFAFB" stroke-width="3" stroke-linecap="round" stroke-linejoin="round" stroke-miterlimit="10" d="
		M-2291.465,126.004c-1.376-1.972-12.813-10.357-22.889-12.375c-8.538-1.709-18.378,1.253-21.089,9.667
		c-7.897,24.52,25.821,36.334,42.012,46.839c4.133-1.723,7.519-2.941,11.712-4.736c6.196-2.652,14.872-7.049,19.116-10.248
		c8.025-6.049,17.127-12.09,17.844-23.402C-2243.209,107.316-2282.489,105.042-2291.465,126.004"/>
	<path fill="none" stroke="#FCFAFB" stroke-width="3" stroke-linecap="round" stroke-linejoin="round" stroke-miterlimit="10" d="
		M-2291.62,136.653c0.034,5.654,0.689,11.297,0.689,17.049"/>
	<path fill="none" stroke="#FCFAFB" stroke-width="3" stroke-linecap="round" stroke-linejoin="round" stroke-miterlimit="10" d="
		M-2299.808,145.128c5.652,0.19,11.314-0.243,17.063-0.019"/>
</g>
<g>
	<path fill="none" stroke="#FCFAFB" stroke-width="3" stroke-linecap="round" stroke-linejoin="round" stroke-miterlimit="10" d="
		M-2175.913-240.828c0.937,0.096,1.547,0.19,1.966,1.157c-2.178,4.279-5.904-1.994-1.966-0.77"/>
	<path fill="none" stroke="#FCFAFB" stroke-width="3" stroke-linecap="round" stroke-linejoin="round" stroke-miterlimit="10" d="
		M-2176.555-305.989c1.984,19.073,2.095,31.244,2.095,50.993"/>
</g>
<g>
	<path fill="none" stroke="#FCFAFB" stroke-width="3" stroke-linecap="round" stroke-linejoin="round" stroke-miterlimit="10" d="
		M-1439.56,107.36c-5.425,1.294-10.479,7.297-12.947,12.732c-0.17,0.376-0.535,0.742-0.467,1.155
		c0.588,3.526,8.525,12.026,1.079,25.7c-0.113,0.208,0.251,0.4,0.384,0.598c4.771,7.088,14.271,9.834,22.42,9.843
		c14.188,0.018,29.037-12.462,26.832-27.755C-1404.301,115.512-1424.509,102.205-1439.56,107.36"/>
	<path fill="none" stroke="#FCFAFB" stroke-width="3" stroke-linecap="round" stroke-linejoin="round" stroke-miterlimit="10" d="
		M-1443.832,137.434c1.841,9.676,14.819,9.822,22.131,7.588c3.454-1.055,7.353-2.953,8.874-6.806
		c1.299-3.284,1.33-9.431-1.811-11.63"/>
	<path fill="none" stroke="#FCFAFB" stroke-width="3" stroke-linecap="round" stroke-linejoin="round" stroke-miterlimit="10" d="
		M-1425.297,121.581c2.494,1.547,6.94,1.839,8.695-0.886"/>
	<path fill="none" stroke="#FCFAFB" stroke-width="3" stroke-linecap="round" stroke-linejoin="round" stroke-miterlimit="10" d="
		M-1434.163,125.33c-1.994,2.151-6.207,3.608-8.619,1.445"/>
	<path fill="none" stroke="#FCFAFB" stroke-width="3" stroke-linecap="round" stroke-linejoin="round" stroke-miterlimit="10" d="
		M-1478.499,106.189c-5.568-0.283-12.109,4.056-16.005,8.576c-3.108,3.606-4.612,8.972-6.104,13.398
		c-1.441,4.275-2.051,8.849-0.664,13.223c2.586,8.147,10.929,13.455,18.746,15.756c13.609,4.008,31.371-3.789,33.556-19.084
		C-1446.958,123.932-1462.604,105.478-1478.499,106.189"/>
	<path fill="none" stroke="#FCFAFB" stroke-width="3" stroke-linecap="round" stroke-linejoin="round" stroke-miterlimit="10" d="
		M-1491.061,133.847c-0.954,9.803,11.456,13.593,19.104,13.507c3.609-0.039,7.885-0.765,10.431-4.034
		c2.169-2.787,3.929-8.676,1.533-11.669"/>
	<path fill="none" stroke="#FCFAFB" stroke-width="3" stroke-linecap="round" stroke-linejoin="round" stroke-miterlimit="10" d="
		M-1469.84,122.484c1.958,2.187,6.143,3.717,8.593,1.597"/>
	<path fill="none" stroke="#FCFAFB" stroke-width="3" stroke-linecap="round" stroke-linejoin="round" stroke-miterlimit="10" d="
		M-1481.248,123.88c-2.522,1.504-6.975,1.716-8.68-1.038"/>
</g>
<g>
	<path fill="none" stroke="#FCFAFB" stroke-width="3" stroke-linecap="round" stroke-linejoin="round" stroke-miterlimit="10" d="
		M-696.082,96.149c-3.948,21.919-2.774,45.346-10.521,66.847c0.439,1.107,0.463-0.478,0.736-1.018"/>
	<path fill="none" stroke="#FCFAFB" stroke-width="3" stroke-linecap="round" stroke-linejoin="round" stroke-miterlimit="10" d="
		M-660.5,98.819c0,24.359-2.952,46.415-7.115,69.386"/>
	<path fill="none" stroke="#FCFAFB" stroke-width="3" stroke-linecap="round" stroke-linejoin="round" stroke-miterlimit="10" d="
		M-717.431,119.278c24.91,8.28,52.459,1.534,77.393,7.116"/>
	<path fill="none" stroke="#FCFAFB" stroke-width="3" stroke-linecap="round" stroke-linejoin="round" stroke-miterlimit="10" d="
		M-720.1,141.518c24.813,5.646,52.384,1.062,76.503,7.117"/>
</g>
<g>
	<path fill="none" stroke="#000000" stroke-width="3" stroke-linecap="round" stroke-linejoin="round" stroke-miterlimit="10" d="
		M-4122.334-173.956c-4.08,0.974-7.879,5.487-9.735,9.573c-0.128,0.283-0.402,0.559-0.351,0.868
		c0.441,2.652,6.41,9.043,0.811,19.325c-0.085,0.156,0.188,0.301,0.288,0.449c3.588,5.329,10.731,7.394,16.858,7.4
		c10.668,0.014,21.833-9.37,20.174-20.868C-4095.823-167.827-4111.018-177.832-4122.334-173.956"/>
	<path fill="none" stroke="#000000" stroke-width="3" stroke-linecap="round" stroke-linejoin="round" stroke-miterlimit="10" d="
		M-4125.547-151.343c1.384,7.275,11.143,7.385,16.64,5.705c2.597-0.793,5.528-2.221,6.672-5.117c0.977-2.47,1-7.092-1.362-8.745"/>
	<path fill="none" stroke="#000000" stroke-width="3" stroke-linecap="round" stroke-linejoin="round" stroke-miterlimit="10" d="
		M-4111.61-163.263c1.875,1.163,5.219,1.383,6.538-0.666"/>
	<path fill="none" stroke="#000000" stroke-width="3" stroke-linecap="round" stroke-linejoin="round" stroke-miterlimit="10" d="
		M-4118.277-160.444c-1.499,1.618-4.667,2.713-6.48,1.086"/>
	<path fill="none" stroke="#000000" stroke-width="3" stroke-linecap="round" stroke-linejoin="round" stroke-miterlimit="10" d="
		M-4151.613-174.836c-4.187-0.213-9.105,3.049-12.034,6.448c-2.337,2.712-3.468,6.747-4.59,10.075
		c-1.084,3.214-1.542,6.653-0.499,9.941c1.944,6.126,8.217,10.117,14.095,11.847c10.233,3.014,23.587-2.849,25.23-14.349
		C-4127.897-161.496-4139.662-175.372-4151.613-174.836"/>
	<path fill="none" stroke="#000000" stroke-width="3" stroke-linecap="round" stroke-linejoin="round" stroke-miterlimit="10" d="
		M-4161.059-154.04c-0.717,7.371,8.614,10.221,14.365,10.156c2.714-0.029,5.929-0.575,7.843-3.033
		c1.631-2.096,2.954-6.523,1.153-8.774"/>
	<path fill="none" stroke="#000000" stroke-width="3" stroke-linecap="round" stroke-linejoin="round" stroke-miterlimit="10" d="
		M-4145.103-162.584c1.472,1.644,4.619,2.795,6.461,1.201"/>
	<path fill="none" stroke="#000000" stroke-width="3" stroke-linecap="round" stroke-linejoin="round" stroke-miterlimit="10" d="
		M-4153.68-161.534c-1.897,1.131-5.244,1.291-6.526-0.781"/>
</g>
<g>
	<path fill="none" stroke="#000000" stroke-width="3" stroke-linecap="round" stroke-linejoin="round" stroke-miterlimit="10" d="
		M-4282.332-166.514c-1.035-1.483-9.635-7.788-17.21-9.304c-6.419-1.285-13.818,0.942-15.857,7.268
		c-5.938,18.437,19.415,27.32,31.589,35.219c3.107-1.295,5.653-2.212,8.806-3.562c4.659-1.995,11.183-5.3,14.374-7.705
		c6.034-4.548,12.878-9.091,13.417-17.597C-4246.048-180.565-4275.583-182.275-4282.332-166.514"/>
	<path fill="none" stroke="#000000" stroke-width="3" stroke-linecap="round" stroke-linejoin="round" stroke-miterlimit="10" d="
		M-4282.448-158.506c0.025,4.25,0.518,8.494,0.518,12.819"/>
	<path fill="none" stroke="#000000" stroke-width="3" stroke-linecap="round" stroke-linejoin="round" stroke-miterlimit="10" d="
		M-4288.604-152.134c4.25,0.143,8.507-0.184,12.83-0.015"/>
</g>
<g>
	<path fill="none" stroke="#000000" stroke-width="3" stroke-linecap="round" stroke-linejoin="round" stroke-miterlimit="10" d="
		M-4057.549-182.382c-2.968,16.48-2.086,34.096-7.91,50.262c0.331,0.833,0.348-0.359,0.553-0.766"/>
	<path fill="none" stroke="#000000" stroke-width="3" stroke-linecap="round" stroke-linejoin="round" stroke-miterlimit="10" d="
		M-4030.794-180.374c0,18.315-2.22,34.898-5.351,52.171"/>
	<path fill="none" stroke="#000000" stroke-width="3" stroke-linecap="round" stroke-linejoin="round" stroke-miterlimit="10" d="
		M-4073.601-164.991c18.73,6.226,39.444,1.154,58.192,5.351"/>
	<path fill="none" stroke="#000000" stroke-width="3" stroke-linecap="round" stroke-linejoin="round" stroke-miterlimit="10" d="
		M-4075.608-148.27c18.658,4.246,39.388,0.799,57.523,5.351"/>
</g>
<g>
	<path fill="none" stroke="#000000" stroke-width="3" stroke-linecap="round" stroke-linejoin="round" stroke-miterlimit="10" d="
		M-4214.356-131.8c0.704,0.072,1.163,0.143,1.478,0.871c-1.637,3.216-4.439-1.499-1.478-0.58"/>
	<path fill="none" stroke="#000000" stroke-width="3" stroke-linecap="round" stroke-linejoin="round" stroke-miterlimit="10" d="
		M-4214.839-180.794c1.492,14.341,1.575,23.493,1.575,38.342"/>
</g>
<line fill="none" stroke="#000000" stroke-width="2" stroke-linecap="round" stroke-linejoin="round" stroke-miterlimit="10" x1="-3515.723" y1="26.39" x2="-3515.723" y2="476.186"/>
<g>
	<path fill="none" stroke="#000000" stroke-width="3" stroke-linecap="round" stroke-linejoin="round" stroke-miterlimit="10" d="
		M-3657.878,77.5c-11.477,2.379-28.6-0.917-39.846,2.857c-0.828,13.755,0,0,1.559,13.442c0.68,5.836,0.818-6.029,0,0
		c-1.488,10.945-10.961,29.746-22.874,32.987c-22.198,6.04-51.091,2.884-67.271,20.97c-9.403,10.514-19.337,32.013-21.134,44.94
		c-5.337,38.393-4.712,47.781-2.096,68.397c2.521,19.851,9.987,36.595,16.895,55.317c2.921,7.919,7.362,12.325,17.143,13.977
		c12.726,2.152,25.477,4.932,38.418,6.869c21.808,3.267,44.275,3.954,66.093,2.068c2.658-0.229,5.92-0.859,9.014-0.578"/>
	<g>
		<path fill="none" stroke="#000000" stroke-width="3" stroke-linecap="round" stroke-linejoin="round" stroke-miterlimit="10" d="
			M-3755.472,294.056c-0.734-1.652-7.979-9.478-15.128-12.406c-6.058-2.482-13.745-1.702-16.949,4.12
			c-9.335,16.972,13.867,30.513,24.317,40.582c3.297-0.682,5.969-1.097,9.322-1.822c4.954-1.072,11.986-3.078,15.577-4.831
			c6.788-3.319,14.371-6.478,16.517-14.726C-3717.179,287.159-3745.851,279.865-3755.472,294.056"/>
		<path fill="none" stroke="#000000" stroke-width="3" stroke-linecap="round" stroke-linejoin="round" stroke-miterlimit="10" d="
			M-3757.11,301.895c-0.783,4.178-1.107,8.438-1.929,12.684"/>
		<path fill="none" stroke="#000000" stroke-width="3" stroke-linecap="round" stroke-linejoin="round" stroke-miterlimit="10" d="
			M-3764.365,306.98c4.145,0.948,8.386,1.438,12.599,2.426"/>
	</g>
	<g>
		<path fill="none" stroke="#000000" stroke-width="3" stroke-linecap="round" stroke-linejoin="round" stroke-miterlimit="10" d="
			M-3796.828,270.282c0.704,0.072,1.163,0.144,1.478,0.87c-1.637,3.217-4.439-1.498-1.478-0.579"/>
		<path fill="none" stroke="#000000" stroke-width="3" stroke-linecap="round" stroke-linejoin="round" stroke-miterlimit="10" d="
			M-3797.311,221.288c1.492,14.341,1.574,23.493,1.574,38.342"/>
	</g>
	<g>
		<path fill="none" stroke="#000000" stroke-width="3" stroke-linecap="round" stroke-linejoin="round" stroke-miterlimit="10" d="
			M-3672.06,271.854c-3.438-2.402-9.336-2.242-13.623-0.914c-0.297,0.092-0.684,0.07-0.881,0.314
			c-1.688,2.092-2.5,10.799-13.902,13.447c-0.174,0.041-0.1,0.342-0.145,0.514c-1.598,6.223,1.605,12.932,5.672,17.516
			c7.078,7.982,21.51,10.09,29.002,1.209C-3659.022,295.738-3661.642,277.734-3672.06,271.854"/>
		<path fill="none" stroke="#000000" stroke-width="3" stroke-linecap="round" stroke-linejoin="round" stroke-miterlimit="10" d="
			M-3691.091,284.479c-4.518,5.867,1.885,13.234,6.793,16.225c2.318,1.414,5.332,2.656,8.258,1.588
			c2.494-0.912,5.963-3.965,5.629-6.83"/>
		<path fill="none" stroke="#000000" stroke-width="3" stroke-linecap="round" stroke-linejoin="round" stroke-miterlimit="10" d="
			M-3672.923,286.973c0.375,2.174,2.434,4.818,4.842,4.443"/>
		<path fill="none" stroke="#000000" stroke-width="3" stroke-linecap="round" stroke-linejoin="round" stroke-miterlimit="10" d="
			M-3679.46,283.863c-2.205-0.045-5.129-1.684-5.119-4.121"/>
		<path fill="none" stroke="#000000" stroke-width="3" stroke-linecap="round" stroke-linejoin="round" stroke-miterlimit="10" d="
			M-3690.856,249.389c-2.623-3.271-8.33-4.779-12.814-4.709c-3.582,0.056-7.348,1.893-10.581,3.266
			c-3.123,1.326-5.996,3.268-7.762,6.232c-3.285,5.523-2.1,12.863,0.514,18.406c4.548,9.648,17.803,15.732,27.489,9.318
			C-3685.067,275.975-3682.517,257.963-3690.856,249.389"/>
		<path fill="none" stroke="#000000" stroke-width="3" stroke-linecap="round" stroke-linejoin="round" stroke-miterlimit="10" d="
			M-3712.674,256.148c-5.985,4.363-1.913,13.229,1.957,17.482c1.826,2.01,4.369,4.051,7.477,3.846
			c2.65-0.172,6.838-2.127,7.324-4.967"/>
		<path fill="none" stroke="#000000" stroke-width="3" stroke-linecap="round" stroke-linejoin="round" stroke-miterlimit="10" d="
			M-3695.687,262.395c-0.25,2.193,0.98,5.309,3.396,5.627"/>
		<path fill="none" stroke="#000000" stroke-width="3" stroke-linecap="round" stroke-linejoin="round" stroke-miterlimit="10" d="
			M-3702.171,256.684c-2.105-0.668-4.449-3.062-3.754-5.396"/>
	</g>
	<g>
		<path fill="none" stroke="#000000" stroke-width="3" stroke-linecap="round" stroke-linejoin="round" stroke-miterlimit="10" d="
			M-3722.863,325.578c0.011,0.707-0.005,1.172-0.69,1.568c-3.387-1.246,0.965-4.584,0.401-1.535"/>
		<path fill="none" stroke="#000000" stroke-width="3" stroke-linecap="round" stroke-linejoin="round" stroke-miterlimit="10" d="
			M-3674.267,319.325c-14.066,3.172-23.145,4.331-37.889,6.081"/>
	</g>
	<g>
		<path fill="none" stroke="#000000" stroke-width="3" stroke-linecap="round" stroke-linejoin="round" stroke-miterlimit="10" d="
			M-3758.558,222.161c-8.783,14.257-14.396,30.978-25.724,43.899c0.004,0.896,0.456-0.207,0.795-0.511"/>
		<path fill="none" stroke="#000000" stroke-width="3" stroke-linecap="round" stroke-linejoin="round" stroke-miterlimit="10" d="
			M-3734.386,233.803c-6.69,17.051-14.815,31.676-24.039,46.611"/>
		<path fill="none" stroke="#000000" stroke-width="3" stroke-linecap="round" stroke-linejoin="round" stroke-miterlimit="10" d="
			M-3779.854,232.486c15.162,12.637,36.296,15.482,52.216,26.237"/>
		<path fill="none" stroke="#000000" stroke-width="3" stroke-linecap="round" stroke-linejoin="round" stroke-miterlimit="10" d="
			M-3787.83,247.319c15.817,10.768,36.375,15.132,51.593,25.994"/>
	</g>
	<g>
		<path fill="none" stroke="#000000" stroke-width="3" stroke-linecap="round" stroke-linejoin="round" stroke-miterlimit="10" d="
			M-3680.101,212.442c0.803-1.618,2.213-12.189-0.09-19.563c-1.949-6.25-7.453-11.675-13.98-10.43
			c-19.026,3.629-14.664,30.137-15.758,44.607c2.627,2.105,4.65,3.899,7.348,6.02c3.984,3.133,10.014,7.271,13.654,8.919
			c6.885,3.113,14.152,6.94,21.875,3.335C-3650.372,237.545-3663.034,210.807-3680.101,212.442"/>
		<path fill="none" stroke="#000000" stroke-width="3" stroke-linecap="round" stroke-linejoin="round" stroke-miterlimit="10" d="
			M-3687.185,216.18c-3.717,2.061-7.205,4.527-11.002,6.602"/>
		<path fill="none" stroke="#000000" stroke-width="3" stroke-linecap="round" stroke-linejoin="round" stroke-miterlimit="10" d="
			M-3695.729,213.833c1.914,3.798,4.242,7.377,6.166,11.252"/>
	</g>
	<g>
		<path fill="none" stroke="#000000" stroke-width="3" stroke-linecap="round" stroke-linejoin="round" stroke-miterlimit="10" d="
			M-3793.12,169.824c3.569,16.361,11.13,32.295,11.941,49.461c0.624,0.641,0.184-0.467,0.218-0.92"/>
		<path fill="none" stroke="#000000" stroke-width="3" stroke-linecap="round" stroke-linejoin="round" stroke-miterlimit="10" d="
			M-3767.635,161.433c7.014,16.919,11.312,33.089,15.035,50.243"/>
		<path fill="none" stroke="#000000" stroke-width="3" stroke-linecap="round" stroke-linejoin="round" stroke-miterlimit="10" d="
			M-3801.289,192.037c19.687-1.423,36.879-14.041,55.805-17.344"/>
		<path fill="none" stroke="#000000" stroke-width="3" stroke-linecap="round" stroke-linejoin="round" stroke-miterlimit="10" d="
			M-3796.739,208.252c18.862-3.223,36.691-14.346,55.188-17.086"/>
	</g>
	<g>
		<path fill="none" stroke="#000000" stroke-width="3" stroke-linecap="round" stroke-linejoin="round" stroke-miterlimit="10" d="
			M-3725.656,176.363c-0.69-0.156-1.138-0.281-1.363-1.04c2.008-2.999,4.229,2.015,1.398,0.751"/>
		<path fill="none" stroke="#000000" stroke-width="3" stroke-linecap="round" stroke-linejoin="round" stroke-miterlimit="10" d="
			M-3730.997,225.067c0.222-14.416,1.228-23.514,2.992-38.257"/>
	</g>
</g>
<rect x="-4199.788" y="-1.878" fill="#FFFFFF" stroke="#000000" stroke-width="3" stroke-linecap="round" stroke-linejoin="round" stroke-miterlimit="10" width="305.882" height="158.757"/>
<g>
	<path fill="none" stroke="#FCFAFB" stroke-width="3" stroke-linecap="round" stroke-linejoin="round" stroke-miterlimit="10" d="
		M155.122,1.5c-11.477,2.379-28.6-0.917-39.846,2.857c-0.828,13.755,0,0,1.559,13.442c0.68,5.836,0.818-6.029,0,0
		c-1.488,10.945-10.961,29.746-22.873,32.987c-22.199,6.04-51.092,2.884-67.271,20.97c-9.403,10.514-19.338,32.013-21.135,44.94
		C0.22,155.09,0.845,164.479,3.46,185.095c2.521,19.851,9.987,36.595,16.895,55.317c2.922,7.919,7.363,12.325,17.143,13.977
		c12.727,2.152,25.477,4.932,38.418,6.869c21.809,3.267,44.275,3.954,66.094,2.068c2.658-0.229,5.92-0.859,9.014-0.578"/>
	<g>
		<path fill="none" stroke="#FCFAFB" stroke-width="3" stroke-linecap="round" stroke-linejoin="round" stroke-miterlimit="10" d="
			M57.528,218.056c-0.734-1.652-7.979-9.478-15.129-12.406c-6.057-2.482-13.744-1.702-16.949,4.12
			c-9.334,16.972,13.867,30.513,24.317,40.582c3.297-0.682,5.97-1.097,9.321-1.822c4.954-1.072,11.986-3.078,15.577-4.831
			c6.788-3.319,14.37-6.478,16.517-14.726C95.821,211.159,67.149,203.865,57.528,218.056"/>
		<path fill="none" stroke="#FCFAFB" stroke-width="3" stroke-linecap="round" stroke-linejoin="round" stroke-miterlimit="10" d="
			M55.89,225.895c-0.783,4.178-1.106,8.438-1.929,12.684"/>
		<path fill="none" stroke="#FCFAFB" stroke-width="3" stroke-linecap="round" stroke-linejoin="round" stroke-miterlimit="10" d="
			M48.635,230.98c4.146,0.948,8.386,1.438,12.599,2.426"/>
	</g>
	<g>
		<path fill="none" stroke="#FCFAFB" stroke-width="3" stroke-linecap="round" stroke-linejoin="round" stroke-miterlimit="10" d="
			M16.172,194.282c0.704,0.072,1.163,0.144,1.478,0.87c-1.637,3.217-4.439-1.498-1.478-0.579"/>
		<path fill="none" stroke="#FCFAFB" stroke-width="3" stroke-linecap="round" stroke-linejoin="round" stroke-miterlimit="10" d="
			M15.689,145.288c1.492,14.341,1.574,23.493,1.574,38.342"/>
	</g>
	<g>
		<path fill="none" stroke="#FCFAFB" stroke-width="3" stroke-linecap="round" stroke-linejoin="round" stroke-miterlimit="10" d="
			M140.94,195.854c-3.438-2.402-9.336-2.242-13.623-0.914c-0.297,0.092-0.684,0.07-0.881,0.314
			c-1.688,2.092-2.5,10.799-13.902,13.447c-0.174,0.041-0.1,0.342-0.145,0.514c-1.598,6.223,1.605,12.932,5.672,17.516
			c7.078,7.982,21.51,10.09,29.002,1.209C153.978,219.738,151.358,201.734,140.94,195.854"/>
		<path fill="none" stroke="#FCFAFB" stroke-width="3" stroke-linecap="round" stroke-linejoin="round" stroke-miterlimit="10" d="
			M121.909,208.479c-4.518,5.867,1.885,13.234,6.793,16.225c2.318,1.414,5.332,2.656,8.258,1.588
			c2.494-0.912,5.963-3.965,5.629-6.83"/>
		<path fill="none" stroke="#FCFAFB" stroke-width="3" stroke-linecap="round" stroke-linejoin="round" stroke-miterlimit="10" d="
			M140.077,210.973c0.375,2.174,2.434,4.818,4.842,4.443"/>
		<path fill="none" stroke="#FCFAFB" stroke-width="3" stroke-linecap="round" stroke-linejoin="round" stroke-miterlimit="10" d="
			M133.54,207.863c-2.205-0.045-5.129-1.684-5.119-4.121"/>
		<path fill="none" stroke="#FCFAFB" stroke-width="3" stroke-linecap="round" stroke-linejoin="round" stroke-miterlimit="10" d="
			M122.144,173.389c-2.623-3.271-8.33-4.779-12.814-4.709c-3.582,0.056-7.348,1.893-10.58,3.266
			c-3.123,1.326-5.996,3.268-7.762,6.232c-3.285,5.523-2.1,12.863,0.514,18.406c4.547,9.648,17.803,15.732,27.488,9.318
			C127.933,199.975,130.483,181.963,122.144,173.389"/>
		<path fill="none" stroke="#FCFAFB" stroke-width="3" stroke-linecap="round" stroke-linejoin="round" stroke-miterlimit="10" d="
			M100.325,180.148c-5.984,4.363-1.912,13.229,1.957,17.482c1.826,2.01,4.369,4.051,7.477,3.846c2.65-0.172,6.838-2.127,7.324-4.967
			"/>
		<path fill="none" stroke="#FCFAFB" stroke-width="3" stroke-linecap="round" stroke-linejoin="round" stroke-miterlimit="10" d="
			M117.313,186.395c-0.25,2.193,0.98,5.309,3.396,5.627"/>
		<path fill="none" stroke="#FCFAFB" stroke-width="3" stroke-linecap="round" stroke-linejoin="round" stroke-miterlimit="10" d="
			M110.829,180.684c-2.105-0.668-4.449-3.062-3.754-5.396"/>
	</g>
	<g>
		<path fill="none" stroke="#FCFAFB" stroke-width="3" stroke-linecap="round" stroke-linejoin="round" stroke-miterlimit="10" d="
			M90.137,249.578c0.011,0.707-0.005,1.172-0.69,1.568c-3.387-1.246,0.965-4.584,0.402-1.535"/>
		<path fill="none" stroke="#FCFAFB" stroke-width="3" stroke-linecap="round" stroke-linejoin="round" stroke-miterlimit="10" d="
			M138.733,243.325c-14.066,3.172-23.145,4.331-37.889,6.081"/>
	</g>
	<g>
		<path fill="none" stroke="#FCFAFB" stroke-width="3" stroke-linecap="round" stroke-linejoin="round" stroke-miterlimit="10" d="
			M54.442,146.161c-8.783,14.257-14.396,30.978-25.725,43.899c0.004,0.896,0.455-0.207,0.795-0.511"/>
		<path fill="none" stroke="#FCFAFB" stroke-width="3" stroke-linecap="round" stroke-linejoin="round" stroke-miterlimit="10" d="
			M78.614,157.803c-6.69,17.051-14.814,31.676-24.039,46.611"/>
		<path fill="none" stroke="#FCFAFB" stroke-width="3" stroke-linecap="round" stroke-linejoin="round" stroke-miterlimit="10" d="
			M33.146,156.486c15.161,12.637,36.296,15.482,52.216,26.237"/>
		<path fill="none" stroke="#FCFAFB" stroke-width="3" stroke-linecap="round" stroke-linejoin="round" stroke-miterlimit="10" d="
			M25.17,171.319c15.817,10.768,36.374,15.132,51.593,25.994"/>
	</g>
	<g>
		<path fill="none" stroke="#FCFAFB" stroke-width="3" stroke-linecap="round" stroke-linejoin="round" stroke-miterlimit="10" d="
			M132.899,136.442c0.803-1.618,2.213-12.189-0.09-19.563c-1.949-6.25-7.453-11.675-13.98-10.43
			c-19.025,3.629-14.664,30.137-15.758,44.607c2.627,2.105,4.65,3.899,7.348,6.02c3.984,3.133,10.014,7.271,13.654,8.919
			c6.885,3.113,14.152,6.94,21.875,3.335C162.628,161.545,149.966,134.807,132.899,136.442"/>
		<path fill="none" stroke="#FCFAFB" stroke-width="3" stroke-linecap="round" stroke-linejoin="round" stroke-miterlimit="10" d="
			M125.815,140.18c-3.717,2.061-7.205,4.527-11.002,6.602"/>
		<path fill="none" stroke="#FCFAFB" stroke-width="3" stroke-linecap="round" stroke-linejoin="round" stroke-miterlimit="10" d="
			M117.271,137.833c1.914,3.798,4.242,7.377,6.166,11.252"/>
	</g>
	<g>
		<path fill="none" stroke="#FCFAFB" stroke-width="3" stroke-linecap="round" stroke-linejoin="round" stroke-miterlimit="10" d="
			M19.88,93.824c3.57,16.361,11.131,32.295,11.941,49.461c0.625,0.641,0.184-0.467,0.219-0.92"/>
		<path fill="none" stroke="#FCFAFB" stroke-width="3" stroke-linecap="round" stroke-linejoin="round" stroke-miterlimit="10" d="
			M45.364,85.433c7.014,16.919,11.312,33.089,15.035,50.243"/>
		<path fill="none" stroke="#FCFAFB" stroke-width="3" stroke-linecap="round" stroke-linejoin="round" stroke-miterlimit="10" d="
			M11.712,116.037c19.687-1.423,36.879-14.041,55.805-17.344"/>
		<path fill="none" stroke="#FCFAFB" stroke-width="3" stroke-linecap="round" stroke-linejoin="round" stroke-miterlimit="10" d="
			M16.261,132.252c18.862-3.223,36.691-14.346,55.188-17.086"/>
	</g>
	<g>
		<path fill="none" stroke="#FCFAFB" stroke-width="3" stroke-linecap="round" stroke-linejoin="round" stroke-miterlimit="10" d="
			M87.344,100.363c-0.69-0.156-1.138-0.281-1.363-1.04c2.008-2.999,4.229,2.015,1.398,0.751"/>
		<path fill="none" stroke="#FCFAFB" stroke-width="3" stroke-linecap="round" stroke-linejoin="round" stroke-miterlimit="10" d="
			M82.003,149.067c0.223-14.416,1.228-23.514,2.992-38.257"/>
	</g>
</g>
</svg>
